<svg width="24" height="24" viewBox="0 0 24 24" fill="none" xmlns="http://www.w3.org/2000/svg">
<path d="M12 8.5V12.5M12 16.5H12.01M2 9.02274V15.9773C2 16.2218 2 16.3441 2.02763 16.4592C2.05213 16.5613 2.09253 16.6588 2.14736 16.7483C2.2092 16.8492 2.29568 16.9357 2.46863 17.1086L7.39137 22.0314C7.56432 22.2043 7.6508 22.2908 7.75172 22.3526C7.84119 22.4075 7.93873 22.4479 8.04077 22.4724C8.15586 22.5 8.27815 22.5 8.52274 22.5H15.4773C15.7218 22.5 15.8441 22.5 15.9592 22.4724C16.0613 22.4479 16.1588 22.4075 16.2483 22.3526C16.3492 22.2908 16.4357 22.2043 16.6086 22.0314L21.5314 17.1086C21.7043 16.9357 21.7908 16.8492 21.8526 16.7483C21.9075 16.6588 21.9479 16.5613 21.9724 16.4592C22 16.3441 22 16.2218 22 15.9773V9.02274C22 8.77815 22 8.65586 21.9724 8.54077C21.9479 8.43873 21.9075 8.34119 21.8526 8.25172C21.7908 8.1508 21.7043 8.06432 21.5314 7.89137L16.6086 2.96863C16.4357 2.79568 16.3492 2.7092 16.2483 2.64736C16.1588 2.59253 16.0613 2.55213 15.9592 2.52763C15.8441 2.5 15.7218 2.5 15.4773 2.5H8.52274C8.27815 2.5 8.15586 2.5 8.04077 2.52763C7.93873 2.55213 7.84119 2.59253 7.75172 2.64736C7.6508 2.7092 7.56432 2.79568 7.39137 2.96863L2.46863 7.89137C2.29568 8.06432 2.2092 8.1508 2.14736 8.25172C2.09253 8.34119 2.05213 8.43873 2.02763 8.54077C2 8.65586 2 8.77815 2 9.02274Z" stroke="#B6A15E" stroke-width="2" stroke-linecap="round" stroke-linejoin="round"/>
</svg>
