<svg width="14" height="14" viewBox="0 0 14 14" fill="none" xmlns="http://www.w3.org/2000/svg">
<path d="M11.6667 3.5C11.6667 3.01674 11.2749 2.625 10.7917 2.625H3.20832C2.72506 2.625 2.33332 3.01674 2.33332 3.5V6.70833H11.6667V3.5Z" stroke="#A9A9A9" stroke-width="0.9375" stroke-linecap="round" stroke-linejoin="round"/>
<path d="M12.25 10.2085V11.3752" stroke="#A9A9A9" stroke-width="0.9375" stroke-linecap="round" stroke-linejoin="round"/>
<path d="M1.75 10.2085V11.3752" stroke="#A9A9A9" stroke-width="0.9375" stroke-linecap="round" stroke-linejoin="round"/>
<path d="M7.29166 6.70833V6.125C7.29166 5.64174 7.68339 5.25 8.16666 5.25H9.91666C10.3999 5.25 10.7917 5.64174 10.7917 6.125V6.70833" stroke="#A9A9A9" stroke-width="0.9375" stroke-linecap="round" stroke-linejoin="round"/>
<path d="M3.20834 6.70833V6.125C3.20834 5.64174 3.60008 5.25 4.08334 5.25H5.83334C6.31661 5.25 6.70834 5.64174 6.70834 6.125V6.70833" stroke="#A9A9A9" stroke-width="0.9375" stroke-linecap="round" stroke-linejoin="round"/>
<path d="M12.8333 7.5835C12.8333 7.10023 12.4416 6.7085 11.9583 6.7085H2.04168C1.55841 6.7085 1.16668 7.10023 1.16668 7.5835V10.2085H12.8333V7.5835Z" stroke="#A9A9A9" stroke-width="0.9375" stroke-linecap="round" stroke-linejoin="round"/>
</svg>
