<svg width="14" height="14" viewBox="0 0 14 14" fill="none" xmlns="http://www.w3.org/2000/svg">
<path d="M4.37499 6.41667H2.68332C2.35663 6.41667 2.19328 6.41667 2.0685 6.48025C1.95873 6.53617 1.8695 6.62541 1.81357 6.73517C1.74999 6.85995 1.74999 7.0233 1.74999 7.35V12.25M9.62499 6.41667H11.3167C11.6434 6.41667 11.8067 6.41667 11.9315 6.48025C12.0412 6.53617 12.1305 6.62541 12.1864 6.73517C12.25 6.85995 12.25 7.0233 12.25 7.35V12.25M9.62499 12.25V3.61667C9.62499 2.96327 9.62499 2.63657 9.49783 2.38701C9.38598 2.16749 9.2075 1.98901 8.98798 1.87716C8.73842 1.75 8.41172 1.75 7.75832 1.75H6.24166C5.58826 1.75 5.26156 1.75 5.012 1.87716C4.79248 1.98901 4.614 2.16749 4.50215 2.38701C4.37499 2.63657 4.37499 2.96327 4.37499 3.61667V12.25M12.8333 12.25H1.16666M6.41666 4.08333H7.58332M6.41666 6.41667H7.58332M6.41666 8.75H7.58332" stroke="#A9A9A9" stroke-width="0.583333" stroke-linecap="round" stroke-linejoin="round"/>
</svg>
