<svg width="14" height="14" viewBox="0 0 14 14" fill="none" xmlns="http://www.w3.org/2000/svg">
<g clip-path="url(#clip0_1537_2377)">
<path d="M13.125 6.97412H0.875C0.392574 6.97412 0 7.3667 0 7.84912C0 8.33155 0.392574 8.72412 0.875 8.72412H13.125C13.6074 8.72412 14 8.33155 14 7.84912C14 7.3667 13.6074 6.97412 13.125 6.97412ZM13.125 8.14077H0.875C0.714574 8.14077 0.583324 8.01009 0.583324 7.84909C0.583324 7.68809 0.714574 7.55742 0.875 7.55742H13.125C13.2854 7.55742 13.4167 7.68809 13.4167 7.84909C13.4167 8.01009 13.2854 8.14077 13.125 8.14077Z" fill="#A9A9A9"/>
<path d="M13.2055 8.15176C13.0474 8.10801 12.8887 8.19726 12.845 8.35244L12.0412 11.1664C11.8632 11.7889 11.2863 12.224 10.6388 12.224H3.36174C2.71424 12.224 2.13791 11.7888 1.95941 11.1664L1.15556 8.35241C1.11181 8.19724 0.952561 8.10799 0.795061 8.15174C0.758218 8.16221 0.723805 8.17986 0.693796 8.20366C0.663786 8.22747 0.638771 8.25696 0.620183 8.29045C0.601596 8.32394 0.589802 8.36077 0.585478 8.39883C0.581155 8.43689 0.584386 8.47543 0.594987 8.51224L1.39881 11.3262C1.64789 12.1983 2.45464 12.8073 3.36174 12.8073H10.6382C11.5453 12.8073 12.3527 12.1983 12.6017 11.3262L13.4056 8.51224C13.4499 8.35766 13.3607 8.19609 13.2055 8.15176Z" fill="#A9A9A9"/>
<path d="M3.36176 11.0579C3.23226 11.0579 3.11733 10.9704 3.08118 10.8461L2.70261 9.51963C2.65886 9.36505 2.49843 9.27463 2.34211 9.31895C2.18754 9.36328 2.09768 9.52428 2.14204 9.67945L2.52061 11.006C2.62679 11.3799 2.97329 11.6406 3.36179 11.6406C3.52279 11.6406 3.65346 11.5106 3.65346 11.3496C3.65343 11.1886 3.52276 11.0579 3.36176 11.0579ZM3.92176 12.2543C3.77768 12.1837 3.60326 12.2403 3.53033 12.385L2.94701 13.5517C2.87526 13.6957 2.93358 13.8707 3.07768 13.9431C3.11195 13.9603 3.14927 13.9706 3.18752 13.9733C3.22576 13.9761 3.26417 13.9712 3.30054 13.9591C3.33691 13.9469 3.37053 13.9277 3.39945 13.9026C3.42838 13.8774 3.45205 13.8468 3.46911 13.8124L4.05243 12.6458C4.12418 12.5016 4.06583 12.3266 3.92176 12.2543ZM11.053 13.5522L10.4697 12.3856C10.3974 12.2409 10.2224 12.1831 10.0783 12.2549C9.93418 12.3272 9.87583 12.5022 9.94758 12.6463L10.5309 13.813C10.5551 13.8614 10.5924 13.9021 10.6384 13.9305C10.6845 13.9589 10.7375 13.974 10.7917 13.974C10.8354 13.974 10.8797 13.9641 10.9223 13.9437C11.0664 13.8713 11.1248 13.6963 11.053 13.5522ZM11.7163 0.0258789C11.4188 0.0258789 11.1388 0.141953 10.9282 0.352555L10.0024 1.2783C9.88868 1.39205 9.88868 1.57698 10.0024 1.69073C10.1162 1.80448 10.3011 1.80448 10.4149 1.69073L11.3406 0.765555C11.4403 0.665231 11.5739 0.609805 11.7192 0.609805C12.012 0.609805 12.25 0.847805 12.25 1.14063V7.26563C12.25 7.42663 12.3807 7.5573 12.5417 7.5573C12.7027 7.5573 12.8333 7.42663 12.8339 7.26505V1.14005C12.8339 0.525805 12.3346 0.0258789 11.7163 0.0258789Z" fill="#A9A9A9"/>
<path d="M10.7071 1.57066L10.1238 0.987332C10.0567 0.920258 9.96393 0.889332 9.87 0.905656L8.41168 1.14483C8.30436 1.16176 8.21625 1.23758 8.18185 1.34083C8.14746 1.44408 8.17368 1.55783 8.24953 1.63541L9.99953 3.43791C10.0544 3.49566 10.1308 3.52658 10.2084 3.52658C10.2358 3.52658 10.2638 3.52251 10.2918 3.51491C10.3428 3.50001 10.3887 3.47141 10.4246 3.43223C10.4605 3.39304 10.485 3.34477 10.4954 3.29266L10.787 1.83433C10.7964 1.7872 10.794 1.73847 10.7801 1.69247C10.7662 1.64648 10.7411 1.60464 10.7071 1.57066ZM10.031 2.63348L9.05625 1.62958L9.81633 1.50533L10.1833 1.87226L10.031 2.63348ZM6.91425 3.55983C6.8005 3.44608 6.61558 3.44608 6.50183 3.55983L5.9185 4.14316C5.80475 4.25691 5.80475 4.44183 5.9185 4.55558C5.97568 4.61216 6.05033 4.64076 6.125 4.64076C6.19968 4.64076 6.27433 4.61218 6.33093 4.55558L6.91425 3.97226C7.028 3.85848 7.028 3.67358 6.91425 3.55983ZM8.08093 4.72648C7.96718 4.61273 7.78225 4.61273 7.6685 4.72648L7.08518 5.3098C6.97143 5.42355 6.97143 5.60848 7.08518 5.72223C7.14007 5.77677 7.2143 5.80739 7.29168 5.80741C7.36635 5.80741 7.441 5.77883 7.4976 5.72223L8.08093 5.13891C8.19468 5.02516 8.19468 4.84023 8.08093 4.72648ZM8.66425 2.97648C8.5505 2.86273 8.36558 2.86273 8.25183 2.97648L7.6685 3.5598C7.55475 3.67355 7.55475 3.85848 7.6685 3.97223C7.72568 4.0288 7.80033 4.05741 7.875 4.05741C7.94968 4.05741 8.02433 4.02883 8.08093 3.97223L8.66425 3.38891C8.778 3.27516 8.778 3.09023 8.66425 2.97648Z" fill="#A9A9A9"/>
</g>
<defs>
<clipPath id="clip0_1537_2377">
<rect width="14" height="14" fill="white"/>
</clipPath>
</defs>
</svg>
