<svg width="16" height="16" viewBox="0 0 16 16" fill="none" xmlns="http://www.w3.org/2000/svg">
<g clip-path="url(#clip0_2181_2137)">
<path d="M15.8991 6.62735L15.5202 7.55748C15.4005 7.87412 15.4005 8.21056 15.5202 8.5272L15.8991 9.45733C16.1184 10.0115 15.939 10.6447 15.4404 11.001L14.6028 11.5749C14.3236 11.7728 14.1441 12.0696 14.0644 12.3863L13.8849 13.3758C13.7652 13.9695 13.2667 14.4049 12.6684 14.4247L11.6513 14.4642C11.3123 14.484 10.9932 14.6226 10.7539 14.86L10.0559 15.5923C9.63716 16.0277 8.97906 16.1266 8.46056 15.8298L7.58309 15.3152C7.28396 15.1371 6.94494 15.0975 6.60592 15.1767L5.6088 15.4142C5.03047 15.5527 4.41225 15.2756 4.13306 14.7413L3.67438 13.8309C3.51485 13.5341 3.25559 13.2966 2.93652 13.1977L1.97928 12.881C1.40095 12.6831 1.04199 12.129 1.10182 11.5353L1.20153 10.526C1.24141 10.1896 1.1417 9.85314 0.922335 9.59586L0.284179 8.80426C-0.0947263 8.3293 -0.0947263 7.67622 0.284179 7.20126L0.922335 6.40965C1.1417 6.15238 1.24141 5.81595 1.20153 5.47952L1.10182 4.47022C1.04199 3.87652 1.40095 3.3224 1.97928 3.12449L2.93652 2.80785C3.25559 2.7089 3.51485 2.47142 3.67438 2.17457L4.13306 1.26422C4.41225 0.729891 5.01052 0.452829 5.6088 0.59136L6.60592 0.828841C6.92499 0.908002 7.28396 0.868421 7.58309 0.69031L8.46056 0.175768C8.97906 -0.121084 9.63716 -0.0419239 10.0559 0.413249L10.7539 1.14548C10.9932 1.38296 11.3123 1.54129 11.6513 1.54129L12.6684 1.58087C13.2667 1.60066 13.7852 2.03604 13.8849 2.62974L14.0644 3.61925C14.1242 3.95568 14.3236 4.25253 14.6028 4.43064L15.4404 5.00456C15.939 5.43994 16.1384 6.07322 15.8991 6.62735Z" fill="#4A97CF"/>
<g opacity="0.15">
<path d="M4.71139 14.6819L4.25271 13.7715C4.09317 13.4747 3.83392 13.2372 3.51485 13.1383L2.55761 12.8216C1.97928 12.6237 1.62032 12.0696 1.68015 11.4759L1.77986 10.4666C1.81974 10.1302 1.72003 9.79373 1.50066 9.53646L0.862508 8.74485C0.483603 8.26989 0.483603 7.61681 0.862508 7.14185L1.50066 6.35025C1.72003 6.09298 1.81974 5.75654 1.77986 5.42011L1.68015 4.41082C1.62032 3.81711 1.97928 3.26299 2.55761 3.06509L3.51485 2.74845C3.83392 2.64949 4.09317 2.41201 4.25271 2.11516L4.71139 1.20482C4.87093 0.888174 5.15012 0.670483 5.44926 0.571532C4.91081 0.492372 4.37237 0.769433 4.13306 1.26419L3.67438 2.17453C3.51484 2.47138 3.25559 2.70886 2.93652 2.80782L1.97928 3.12446C1.40095 3.32236 1.04199 3.87648 1.10182 4.47019L1.20153 5.47948C1.24141 5.81591 1.1417 6.15235 0.922335 6.40962L0.284179 7.20122C-0.0947263 7.67619 -0.0947263 8.32926 0.284179 8.80422L0.922335 9.59583C1.1417 9.8531 1.24141 10.1895 1.20153 10.526L1.10182 11.5353C1.04199 12.129 1.40095 12.6831 1.97928 12.881L2.93652 13.1976C3.25559 13.2966 3.51484 13.5341 3.67438 13.8309L4.13306 14.7413C4.41225 15.2756 5.01052 15.5527 5.6088 15.4141L5.72845 15.3943C5.28972 15.3152 4.91081 15.0777 4.71139 14.6819ZM8.14148 0.630902L9.01894 0.116359C9.09871 0.0767788 9.17848 0.0371985 9.25825 0.0174084C8.97906 -0.0221718 8.67992 0.0371988 8.44061 0.17573L7.56315 0.690272C7.48338 0.729853 7.40361 0.769433 7.32384 0.789223C7.60303 0.828803 7.88223 0.789223 8.14148 0.630902ZM12.2097 14.385C12.11 14.385 12.0103 14.4048 11.9305 14.4246L12.6485 14.385C12.7482 14.385 12.8279 14.3652 12.9276 14.3455L12.2097 14.385ZM9.01894 15.7506L8.14148 15.236C7.84234 15.0579 7.50332 15.0183 7.1643 15.0975L7.04465 15.1173C7.22413 15.1371 7.38367 15.1964 7.54321 15.2756L8.42067 15.7901C8.75969 15.988 9.1386 16.0078 9.49756 15.8891C9.33802 15.8891 9.17848 15.8495 9.01894 15.7506Z" fill="black"/>
</g>
<path d="M4.83102 6.78584L7.32382 9.61583L12.4291 5.53906" fill="#4A97CF"/>
<path d="M6.72555 11.0798C6.44636 11.0798 6.16717 10.961 5.96774 10.7433L3.47494 7.91333C3.11598 7.49774 3.15587 6.88425 3.55471 6.50824C3.9735 6.15201 4.59172 6.19159 4.97062 6.5874L6.84521 8.70494L11.2126 5.22188C11.6314 4.88545 12.2695 4.94482 12.6086 5.3802C12.9476 5.81558 12.8877 6.42908 12.449 6.76551L7.34377 10.8621C7.16429 11.0006 6.94492 11.0798 6.72555 11.0798Z" fill="white"/>
</g>
<defs>
<clipPath id="clip0_2181_2137">
<rect width="16" height="16" fill="white"/>
</clipPath>
</defs>
</svg>
