<svg width="16" height="16" viewBox="0 0 16 16" fill="none" xmlns="http://www.w3.org/2000/svg">
<g clip-path="url(#clip0_95_480)">
<path d="M5.82947 8.82716C5.82947 8.62673 5.6669 8.46436 5.46631 8.46436H4.199C3.99863 8.46436 3.83603 8.62673 3.83603 8.82716V10.0943C3.83603 10.295 3.99863 10.4574 4.199 10.4574H5.46631C5.6669 10.4574 5.82947 10.295 5.82947 10.0943V8.82716ZM8.99665 8.82716C8.99665 8.62673 8.83405 8.46436 8.63385 8.46436H7.36637C7.16601 8.46436 7.0034 8.62673 7.0034 8.82716V10.0943C7.0034 10.295 7.16601 10.4574 7.36637 10.4574H8.63385C8.83405 10.4574 8.99665 10.295 8.99665 10.0943V8.82716ZM12.164 8.82716C12.164 8.62673 12.0014 8.46436 11.801 8.46436H10.5337C10.3331 8.46436 10.1705 8.62673 10.1705 8.82716V10.0943C10.1705 10.295 10.3331 10.4574 10.5337 10.4574H11.801C12.0014 10.4574 12.164 10.295 12.164 10.0943V8.82716ZM5.82947 11.9947C5.82947 11.7939 5.6669 11.6317 5.46631 11.6317H4.199C3.99863 11.6317 3.83603 11.7939 3.83603 11.9947V13.2616C3.83603 13.4621 3.99863 13.6246 4.199 13.6246H5.46631C5.6669 13.6246 5.82947 13.4621 5.82947 13.2616V11.9947ZM8.99665 11.9947C8.99665 11.7939 8.83405 11.6317 8.63385 11.6317H7.36637C7.16601 11.6317 7.0034 11.7939 7.0034 11.9947V13.2616C7.0034 13.4621 7.16601 13.6246 7.36637 13.6246H8.63385C8.83405 13.6246 8.99665 13.4621 8.99665 13.2616V11.9947ZM12.164 11.9947C12.164 11.7939 12.0014 11.6317 11.8012 11.6317H10.5337C10.3331 11.6317 10.1705 11.7939 10.1705 11.9947V13.2616C10.1705 13.4621 10.3331 13.6246 10.5337 13.6246H11.8012C12.0014 13.6246 12.164 13.4621 12.164 13.2616V11.9947Z" fill="#B6A15E"/>
<path d="M14.4301 1.78136V3.71683C14.4301 4.59163 13.7204 5.2966 12.8457 5.2966H11.8463C10.9715 5.2966 10.2524 4.59163 10.2524 3.71683V1.77441H5.7476V3.71683C5.7476 4.59163 5.02855 5.2966 4.15393 5.2966H3.15428C2.27963 5.2966 1.56998 4.59163 1.56998 3.71683V1.78136C0.805533 1.8044 0.177368 2.43696 0.177368 3.21446V14.5572C0.177368 15.3493 0.819398 15.9999 1.61151 15.9999H14.3885C15.1794 15.9999 15.8227 15.348 15.8227 14.5572V3.21446C15.8227 2.43696 15.1945 1.8044 14.4301 1.78136ZM13.9659 13.8509C13.9659 14.1932 13.6883 14.4709 13.3459 14.4709H2.62687C2.28442 14.4709 2.00686 14.1932 2.00686 13.8509V7.99192C2.00686 7.64947 2.28438 7.37175 2.62687 7.37175H13.3458C13.6883 7.37175 13.9658 7.64947 13.9658 7.99192L13.9659 13.8509Z" fill="#B6A15E"/>
<path d="M3.15076 4.25917H4.13937C4.43944 4.25917 4.68274 4.01622 4.68274 3.71615V0.543208C4.68274 0.243105 4.43944 0 4.13937 0H3.15076C2.85066 0 2.60739 0.243105 2.60739 0.543208V3.71615C2.60739 4.01622 2.85066 4.25917 3.15076 4.25917ZM11.8335 4.25917H12.8221C13.122 4.25917 13.3653 4.01622 13.3653 3.71615V0.543208C13.3654 0.243105 13.1221 0 12.8221 0H11.8335C11.5335 0 11.2902 0.243105 11.2902 0.543208V3.71615C11.2902 4.01622 11.5335 4.25917 11.8335 4.25917Z" fill="#B6A15E"/>
</g>
<defs>
<clipPath id="clip0_95_480">
<rect width="16" height="16" fill="white"/>
</clipPath>
</defs>
</svg>
