<svg width="24" height="24" viewBox="0 0 24 24" fill="none" xmlns="http://www.w3.org/2000/svg">
<path d="M23.8486 9.94102L23.2802 11.3362C23.1008 11.8112 23.1008 12.3158 23.2802 12.7908L23.8486 14.186C24.1776 15.0172 23.9084 15.9671 23.1606 16.5014L21.9042 17.3623C21.4854 17.6592 21.2162 18.1044 21.0966 18.5794L20.8273 20.0637C20.6478 20.9542 19.9 21.6073 19.0026 21.637L17.477 21.6963C16.9685 21.726 16.4899 21.9338 16.1309 22.2901L15.0839 23.3884C14.4557 24.0415 13.4686 24.1899 12.6908 23.7446L11.3746 22.9728C10.9259 22.7056 10.4174 22.6463 9.90887 22.765L8.41319 23.1212C7.5457 23.329 6.61838 22.9134 6.19959 22.1119L5.51158 20.7464C5.27227 20.3011 4.88339 19.9449 4.40477 19.7965L2.96892 19.3215C2.10143 19.0247 1.56298 18.1935 1.65272 17.3029L1.80229 15.789C1.86212 15.2843 1.71255 14.7797 1.3835 14.3938L0.426268 13.2064C-0.14209 12.4939 -0.14209 11.5143 0.426268 10.8019L1.3835 9.61448C1.71255 9.22857 1.86212 8.72393 1.80229 8.21928L1.65272 6.70533C1.56298 5.81478 2.10143 4.98359 2.96892 4.68674L4.40477 4.21178C4.88339 4.06335 5.27227 3.70713 5.51158 3.26185L6.19959 1.89634C6.61838 1.09484 7.51579 0.679243 8.41319 0.88704L9.90887 1.24326C10.3875 1.362 10.9259 1.30263 11.3746 1.03547L12.6908 0.263651C13.4686 -0.181626 14.4557 -0.0628859 15.0839 0.619873L16.1309 1.71822C16.4899 2.07445 16.9685 2.31193 17.477 2.31193L19.0026 2.3713C19.9 2.40098 20.6778 3.05406 20.8273 3.94461L21.0966 5.42887C21.1863 5.93352 21.4854 6.3788 21.9042 6.64596L23.1606 7.50683C23.9084 8.15991 24.2076 9.10983 23.8486 9.94102Z" fill="#00D566"/>
<g opacity="0.15">
<path d="M7.06708 22.0226L6.37907 20.6571C6.13976 20.2118 5.75088 19.8556 5.27227 19.7071L3.83642 19.2322C2.96892 18.9353 2.43048 18.1041 2.52022 17.2136L2.66979 15.6996C2.72961 15.195 2.58005 14.6903 2.251 14.3044L1.29376 13.117C0.725404 12.4046 0.725404 11.425 1.29376 10.7125L2.251 9.52513C2.58005 9.13922 2.72961 8.63457 2.66979 8.12992L2.52022 6.61598C2.43048 5.72542 2.96892 4.89424 3.83642 4.59739L5.27227 4.12242C5.75088 3.974 6.13976 3.61778 6.37907 3.1725L7.06708 1.80698C7.30639 1.33202 7.72518 1.00548 8.17388 0.857054C7.36622 0.738313 6.55855 1.15391 6.19959 1.89604L5.51158 3.26155C5.27227 3.70683 4.88339 4.06305 4.40477 4.21148L2.96892 4.68644C2.10143 4.98329 1.56298 5.81448 1.65272 6.70503L1.80229 8.21898C1.86212 8.72363 1.71255 9.22827 1.3835 9.61418L0.426268 10.8016C-0.142089 11.514 -0.142089 12.4936 0.426268 13.2061L1.3835 14.3935C1.71255 14.7794 1.86212 15.284 1.80229 15.7887L1.65272 17.3026C1.56298 18.1932 2.10143 19.0244 2.96892 19.3212L4.40477 19.7962C4.88339 19.9446 5.27227 20.3008 5.51158 20.7461L6.19959 22.1116C6.61838 22.9131 7.51579 23.3287 8.41319 23.1209L8.59267 23.0913C7.93458 22.9725 7.36622 22.6163 7.06708 22.0226ZM12.2122 0.946109L13.5284 0.174294C13.6481 0.114924 13.7677 0.0555537 13.8874 0.0258685C13.4686 -0.0335019 13.0199 0.055554 12.6609 0.26335L11.3447 1.03516C11.2251 1.09453 11.1054 1.15391 10.9858 1.18359C11.4045 1.24296 11.8233 1.18359 12.2122 0.946109ZM18.3146 21.5773C18.165 21.5773 18.0154 21.607 17.8958 21.6367L18.9727 21.5773C19.1223 21.5773 19.2419 21.5476 19.3915 21.5179L18.3146 21.5773ZM13.5284 23.6256L12.2122 22.8538C11.7635 22.5866 11.255 22.5272 10.7465 22.646L10.567 22.6757C10.8362 22.7053 11.0755 22.7944 11.3148 22.9131L12.631 23.685C13.1395 23.9818 13.7079 24.0115 14.2463 23.8334C14.007 23.8334 13.7677 23.774 13.5284 23.6256Z" fill="black"/>
</g>
<path d="M7.24655 10.1788L10.9857 14.4237L18.6436 8.30859" fill="#00D566"/>
<path d="M10.0883 16.6196C9.66953 16.6196 9.25074 16.4415 8.95161 16.115L5.21241 11.87C4.67397 11.2466 4.73379 10.3264 5.33206 9.76235C5.96025 9.22802 6.88757 9.28739 7.45593 9.88109L10.2678 13.0574L16.8189 7.83282C17.4471 7.32817 18.4043 7.41723 18.9128 8.0703C19.4214 8.72337 19.3316 9.64361 18.6735 10.1483L11.0156 16.2931C10.7464 16.5009 10.4174 16.6196 10.0883 16.6196Z" fill="white"/>
</svg>
