<svg width="24" height="24" viewBox="0 0 24 24" fill="none" xmlns="http://www.w3.org/2000/svg">
<g clip-path="url(#clip0_243_1784)">
<path d="M12 0C5.37281 0 0 5.37281 0 12C0 18.6272 5.37281 24 12 24C18.6272 24 24 18.6272 24 12C24 5.37281 18.6272 0 12 0ZM17.4788 16.5164C17.3977 16.8404 17.24 17.1402 17.0189 17.3906L16.6378 17.8125C16.4976 17.9678 16.3337 18.0999 16.1522 18.2039C16.0704 18.2535 15.9854 18.2975 15.8977 18.3356C15.5472 18.4884 15.1685 18.5657 14.7863 18.5625C14.6925 18.5625 14.5988 18.5581 14.505 18.5494C10.3514 18.1744 6.82359 15.2213 5.72578 11.19C5.65594 10.9336 5.59969 10.6922 5.55375 10.4531C5.35875 9.44766 5.69016 8.63297 6.10828 8.26453C6.15422 8.19889 6.20433 8.13626 6.25828 8.07703L6.63844 7.65516C6.69379 7.59517 6.75265 7.53851 6.81469 7.48547C7.0888 7.24966 7.42169 7.09253 7.77797 7.03078C7.88981 7.01051 8.00321 7 8.11687 6.99938C8.61065 6.99926 9.08676 7.18309 9.45234 7.515L10.095 8.09625C10.4477 8.41515 10.6745 8.84984 10.7344 9.32156C10.7405 9.37219 10.7466 9.42328 10.7489 9.47484C10.7629 9.73621 10.7248 9.99774 10.6369 10.2443C10.5491 10.4908 10.4131 10.7175 10.237 10.9111L9.85594 11.333C9.65016 11.5609 9.39443 11.7382 9.10875 11.8509C9.88256 13.3244 11.1465 14.4815 12.6825 15.1223C12.7695 14.9159 12.8909 14.7257 13.0416 14.5598L13.4227 14.138C13.7775 13.7473 14.2727 13.5131 14.7999 13.4867C15.327 13.4604 15.8431 13.644 16.2352 13.9973L16.8783 14.5781C17.1426 14.8179 17.3378 15.1243 17.4434 15.4652C17.549 15.8061 17.5612 16.1692 17.4788 16.5164ZM11.4788 8.11547C11.4789 7.93545 11.5504 7.76283 11.6777 7.63549C11.8049 7.50815 11.9775 7.4365 12.1575 7.43625C13.31 7.43749 14.4149 7.89583 15.2299 8.71072C16.0449 9.5256 16.5033 10.6305 16.5047 11.783C16.5047 11.9632 16.4331 12.1361 16.3056 12.2636C16.1781 12.391 16.0053 12.4627 15.825 12.4627C15.6447 12.4627 15.4719 12.391 15.3444 12.2636C15.2169 12.1361 15.1453 11.9632 15.1453 11.783C15.1444 10.9905 14.8292 10.2307 14.2688 9.6704C13.7084 9.11007 12.9486 8.79496 12.1561 8.79422C11.9766 8.79335 11.8047 8.72149 11.6779 8.59432C11.5512 8.46715 11.4799 8.295 11.4797 8.11547H11.4788ZM17.8247 12.3961C17.6451 12.3957 17.4729 12.3243 17.3458 12.1974C17.2187 12.0704 17.147 11.8984 17.1464 11.7188C17.1449 10.4138 16.6259 9.16281 15.7032 8.2401C14.7805 7.31739 13.5294 6.79836 12.2245 6.79688C12.0443 6.79688 11.8714 6.72527 11.7439 6.5978C11.6165 6.47033 11.5448 6.29745 11.5448 6.11719C11.5448 5.93692 11.6165 5.76404 11.7439 5.63658C11.8714 5.50911 12.0443 5.4375 12.2245 5.4375C15.6877 5.4375 18.5058 8.25469 18.5058 11.7188C18.5052 11.8987 18.4332 12.071 18.3057 12.198C18.1782 12.325 18.0056 12.3962 17.8256 12.3961H17.8247Z" fill="#104C5B"/>
</g>
<defs>
<clipPath id="clip0_243_1784">
<rect width="24" height="24" fill="white"/>
</clipPath>
</defs>
</svg>
