<svg width="24" height="24" viewBox="0 0 24 24" fill="none" xmlns="http://www.w3.org/2000/svg">
<g clip-path="url(#clip0_1583_1773)">
<g filter="url(#filter0_b_1583_1773)">
<rect x="0.15" y="0.15" width="23.7" height="23.7" rx="1.85" stroke="#B6A15E" stroke-width="0.3"/>
</g>
<path d="M16.6667 8.66699C16.4899 8.66699 16.3203 8.73723 16.1953 8.86225C16.0702 8.98728 16 9.15685 16 9.33366V16.7943C15.9809 17.1314 15.8293 17.4474 15.5783 17.6732C15.3273 17.8991 14.9973 18.0167 14.66 18.0003H9.34C9.00273 18.0167 8.67266 17.8991 8.42167 17.6732C8.17069 17.4474 8.01912 17.1314 8 16.7943V9.33366C8 9.15685 7.92976 8.98728 7.80474 8.86225C7.67971 8.73723 7.51014 8.66699 7.33333 8.66699C7.15652 8.66699 6.98695 8.73723 6.86193 8.86225C6.7369 8.98728 6.66667 9.15685 6.66667 9.33366V16.7943C6.6857 17.4851 6.97772 18.1403 7.47879 18.6162C7.97985 19.0922 8.64912 19.3501 9.34 19.3337H14.66C15.3509 19.3501 16.0201 19.0922 16.5212 18.6162C17.0223 18.1403 17.3143 17.4851 17.3333 16.7943V9.33366C17.3333 9.15685 17.2631 8.98728 17.1381 8.86225C17.013 8.73723 16.8435 8.66699 16.6667 8.66699ZM17.3333 6.66699H14.6667V5.33366C14.6667 5.15685 14.5964 4.98728 14.4714 4.86225C14.3464 4.73723 14.1768 4.66699 14 4.66699H10C9.82319 4.66699 9.65362 4.73723 9.5286 4.86225C9.40357 4.98728 9.33333 5.15685 9.33333 5.33366V6.66699H6.66667C6.48986 6.66699 6.32029 6.73723 6.19526 6.86225C6.07024 6.98728 6 7.15685 6 7.33366C6 7.51047 6.07024 7.68004 6.19526 7.80506C6.32029 7.93009 6.48986 8.00033 6.66667 8.00033H17.3333C17.5101 8.00033 17.6797 7.93009 17.8047 7.80506C17.9298 7.68004 18 7.51047 18 7.33366C18 7.15685 17.9298 6.98728 17.8047 6.86225C17.6797 6.73723 17.5101 6.66699 17.3333 6.66699ZM10.6667 6.66699V6.00033H13.3333V6.66699H10.6667Z" fill="#B6A15E"/>
<path d="M11.3333 15.3333V10.6667C11.3333 10.4899 11.2631 10.3203 11.1381 10.1953C11.013 10.0702 10.8435 10 10.6667 10C10.4899 10 10.3203 10.0702 10.1953 10.1953C10.0702 10.3203 10 10.4899 10 10.6667V15.3333C10 15.5101 10.0702 15.6797 10.1953 15.8047C10.3203 15.9298 10.4899 16 10.6667 16C10.8435 16 11.013 15.9298 11.1381 15.8047C11.2631 15.6797 11.3333 15.5101 11.3333 15.3333ZM14 15.3333V10.6667C14 10.4899 13.9298 10.3203 13.8047 10.1953C13.6797 10.0702 13.5101 10 13.3333 10C13.1565 10 12.987 10.0702 12.8619 10.1953C12.7369 10.3203 12.6667 10.4899 12.6667 10.6667V15.3333C12.6667 15.5101 12.7369 15.6797 12.8619 15.8047C12.987 15.9298 13.1565 16 13.3333 16C13.5101 16 13.6797 15.9298 13.8047 15.8047C13.9298 15.6797 14 15.5101 14 15.3333Z" fill="#B6A15E"/>
</g>
<defs>
<filter id="filter0_b_1583_1773" x="-15" y="-15" width="54" height="54" filterUnits="userSpaceOnUse" color-interpolation-filters="sRGB">
<feFlood flood-opacity="0" result="BackgroundImageFix"/>
<feGaussianBlur in="BackgroundImageFix" stdDeviation="7.5"/>
<feComposite in2="SourceAlpha" operator="in" result="effect1_backgroundBlur_1583_1773"/>
<feBlend mode="normal" in="SourceGraphic" in2="effect1_backgroundBlur_1583_1773" result="shape"/>
</filter>
<clipPath id="clip0_1583_1773">
<rect width="24" height="24" fill="white"/>
</clipPath>
</defs>
</svg>
