<svg id="ic_delete_payment" xmlns="http://www.w3.org/2000/svg" width="265.413" height="148.55" viewBox="0 0 265.413 148.55">
  <path id="Path_1" data-name="Path 1" d="M233.346,655.6H192.8s-.822-12.055,4.041-12.192,4.315,5.343,10.411-2.192,13.493-7.123,14.452-2.671-1.849,8.014,3.288,6.918S237.524,647.248,233.346,655.6Z" transform="translate(-177.49 -507.621)" fill="#e6e6e6"/>
  <path id="Path_2" data-name="Path 2" d="M260.516,655.434l-.137-.005c.319-7.937,1.981-13.036,3.32-15.917a14.442,14.442,0,0,1,2.867-4.406l.091.1a14.352,14.352,0,0,0-2.839,4.372C262.487,642.448,260.834,647.527,260.516,655.434Z" transform="translate(-225.618 -507.447)" fill="#fff"/>
  <path id="Path_3" data-name="Path 3" d="M311.416,683.591l-.132-.038a21.25,21.25,0,0,1,5.35-8.9l.092.1A21.106,21.106,0,0,0,311.416,683.591Z" transform="translate(-261.842 -535.588)" fill="#fff"/>
  <path id="Path_4" data-name="Path 4" d="M206.2,676.182l-.136-.019a14.919,14.919,0,0,0-1.342-8.721,12.007,12.007,0,0,0-2.117-3.091l.095-.1a12.157,12.157,0,0,1,2.146,3.129A15.056,15.056,0,0,1,206.2,676.182Z" transform="translate(-184.509 -528.188)" fill="#fff"/>
  <path id="Path_5" data-name="Path 5" d="M227.986,643.531H177.561l-.012-.171c-.029-.425-.672-10.448,2.575-14.024a3.557,3.557,0,0,1,2.6-1.247,7.738,7.738,0,0,1,4.52,1.369c2.023,1.2,3.358,1.992,8.216-4.012,5.262-6.5,10.941-7.9,14.2-7.126a5.066,5.066,0,0,1,3.988,3.9,17.265,17.265,0,0,1,.171,5.04c-.11,1.511-.2,2.7.423,3.245.519.451,1.552.492,3.253.129,3.461-.738,8.291-.107,10.715,3.026,1.3,1.685,2.332,4.748-.18,9.771Zm-50.081-.367h49.854c1.871-3.8,1.93-7,.168-9.281-2.224-2.873-6.889-3.629-10.349-2.891-1.849.395-2.95.329-3.571-.211-.759-.661-.666-1.935-.548-3.547a17,17,0,0,0-.164-4.936,4.712,4.712,0,0,0-3.715-3.62c-3.16-.754-8.681.628-13.835,7-5.057,6.25-6.58,5.347-8.688,4.1a7.348,7.348,0,0,0-4.323-1.318,3.2,3.2,0,0,0-2.338,1.127c-2.918,3.215-2.562,12.228-2.491,13.583Z" transform="translate(-166.626 -495.364)" fill="#2f2e41"/>
  <path id="Path_8" data-name="Path 8" d="M795.484,538.882H745.817l-.009-.278-2.372-67.825h54.428Zm-49.109-.577h48.552l2.341-66.95H744.033Z" transform="translate(-569.363 -390.511)" fill="#3f3d56"/>
  <g id="Group_1" data-name="Group 1" transform="translate(184.524 92.834)">
    <rect id="Rectangle_17" data-name="Rectangle 17" width="3.778" height="46.748" fill="#3f3d56"/>
    <rect id="Rectangle_18" data-name="Rectangle 18" width="3.778" height="46.748" transform="translate(14.874)" fill="#3f3d56"/>
    <rect id="Rectangle_19" data-name="Rectangle 19" width="3.778" height="46.748" transform="translate(29.749)" fill="#3f3d56"/>
  </g>
  <path id="Path_1316" data-name="Path 1316" d="M888.775,422.368l-.244-.154-61.693-38.986,5.351-8.468.244.154L894.125,413.9Zm-61.14-39.32L888.6,421.573l4.735-7.492-60.96-38.524Z" transform="translate(-628.712 -322.184)" fill="#3f3d56"/>
  <path id="Path_10" data-name="Path 10" d="M947.946,388.984a11.091,11.091,0,0,0-16.906,10.979l2.942,1.859a8.751,8.751,0,1,1,8.358,5.284l2.942,1.859a11.091,11.091,0,0,0,2.667-19.981Z" transform="translate(-702.779 -331.083)" fill="#3f3d56"/>
  <rect id="Rectangle_21" data-name="Rectangle 21" width="262.153" height="0.577" transform="translate(0 147.973)" fill="#3f3d56"/>
  <g id="Group_6" data-name="Group 6" transform="translate(83.274 0)">
    <path id="Path_111" data-name="Path 111" d="M521.588,651.922h-4.2l-2-16.2h6.2Z" transform="translate(-490.358 -507.886)" fill="#feb8b8"/>
    <path id="Path_112" data-name="Path 112" d="M494.234,692.834h13.2v-5.1h-8.171a5.029,5.029,0,0,0-5.029,5.029h0Z" transform="translate(-475.304 -544.897)" fill="#2f2e41"/>
    <path id="Path_113" data-name="Path 113" d="M531.766,577.28l2.9,3.041,13.108-9.727-4.276-4.488Z" transform="translate(-502.012 -458.347)" fill="#feb8b8"/>
    <path id="Path_114" data-name="Path 114" d="M529.139,605.63l-5.638-5.916-3.692,3.519,9.108,9.557.051-.049A5.03,5.03,0,0,0,529.139,605.63Z" transform="translate(-493.503 -482.263)" fill="#2f2e41"/>
    <path id="Path_115" data-name="Path 115" d="M429.115,334.871a3.445,3.445,0,0,1,1.648-5.018l16.49-42.027,6.428,3.849-18.318,40.318a3.464,3.464,0,0,1-6.248,2.879Z" transform="translate(-428.596 -260.322)" fill="#feb8b8"/>
    <path id="Path_116" data-name="Path 116" d="M579.768,349.734a3.445,3.445,0,0,1-3.094-4.283l-24.327-38.031,6.89-2.942,21.871,38.508a3.464,3.464,0,0,1-1.34,6.748Z" transform="translate(-516.658 -272.172)" fill="#feb8b8"/>
    <path id="Path_117" data-name="Path 117" d="M493.853,428.893l4.306,64,10.291-.908,2.119-47.217,5.751,20.278,12.409.908-4.912-40.087Z" transform="translate(-475.033 -358.551)" fill="#2f2e41"/>
    <path id="Path_118" data-name="Path 118" d="M542.2,551.224l-1.817,3.027-12.711,8.777,9.08,4.843s17.554-9.685,16.041-12.712Z" transform="translate(-499.102 -447.756)" fill="#2f2e41"/>
    <path id="Path_119" data-name="Path 119" d="M462.607,292.366l3.582-10.094a18.023,18.023,0,0,1,9.324-10.287h0a25.791,25.791,0,0,1,15.136-.829l1.3.324a25.2,25.2,0,0,1,9.554,4.614c2.207,1.74,4.193,3.944,4.37,6.314a.072.072,0,0,0,0,.015c.611,2.68.914,16.6.914,16.6H501.4l.853,18.765-.069-.136s-31.105,5.887-31.105,2.86V301.144l-.638-7.014Z" transform="translate(-452.798 -247.918)" fill="#ccc"/>
    <circle id="Ellipse_12" data-name="Ellipse 12" cx="8.62" cy="8.62" r="8.62" transform="translate(30.223 3.375)" fill="#feb8b8"/>
    <path id="Path_120" data-name="Path 120" d="M543.2,200.586l6.693.268a3.654,3.654,0,0,0,2.4-.577c.966-.822.8-2.372.287-3.53-1.442-3.225-4.659-4.38-8.19-4.285s-7.233,1.292-9.135,4.268a13.871,13.871,0,0,0-1.7,10.193,11.113,11.113,0,0,1,9.087-6.336Z" transform="translate(-503.07 -192.456)" fill="#2f2e41"/>
  </g>
  <g id="Group_4" data-name="Group 4" transform="translate(138.485 46.447)">
    <path id="Path_81" data-name="Path 81" d="M644.705,399.506l-24.226-16.979a1.04,1.04,0,0,1-.254-1.446l19.015-27.13a1.04,1.04,0,0,1,1.446-.254l24.226,16.979a1.04,1.04,0,0,1,.254,1.446l-19.014,27.13A1.04,1.04,0,0,1,644.705,399.506Z" transform="translate(-620.038 -353.509)" fill="#a71222"/>
    <path id="Path_82" data-name="Path 82" d="M687.779,417.676l-14.215-9.963a1.529,1.529,0,0,1,1.755-2.5l14.215,9.963a1.529,1.529,0,1,1-1.755,2.5Z" transform="translate(-657.664 -390.102)" fill="#fff"/>
    <path id="Path_83" data-name="Path 83" d="M676.467,433.817l-14.215-9.963a1.529,1.529,0,0,1,1.755-2.5l14.215,9.963a1.529,1.529,0,0,1-1.755,2.5Z" transform="translate(-649.614 -401.588)" fill="#fff"/>
    <path id="Path_84" data-name="Path 84" d="M665.033,450.132l-14.215-9.963a1.529,1.529,0,0,1,1.755-2.5l14.215,9.963a1.529,1.529,0,1,1-1.755,2.5Z" transform="translate(-641.477 -413.198)" fill="#fff"/>
    <path id="Path_85" data-name="Path 85" d="M709.131,400.807l-5.506-3.859a1.529,1.529,0,0,1,1.755-2.5l5.506,3.859a1.529,1.529,0,1,1-1.755,2.5Z" transform="translate(-679.055 -382.442)" fill="#fff"/>
  </g>
</svg>
