<svg width="144" height="112" viewBox="0 0 144 112" fill="none" xmlns="http://www.w3.org/2000/svg">
<path d="M73.2923 89.3928C94.5761 89.3928 111.831 72.1377 111.831 50.778C111.831 29.4182 94.5 12.1631 73.2923 12.1631C52.0085 12.1631 34.7534 29.4182 34.7534 50.778C34.7534 72.1377 52.0085 89.3928 73.2923 89.3928Z" fill="#EAEEF9"/>
<path d="M109.019 25.5407C110.74 25.5407 112.135 24.1454 112.135 22.4242C112.135 20.7029 110.74 19.3076 109.019 19.3076C107.297 19.3076 105.902 20.7029 105.902 22.4242C105.902 24.1454 107.297 25.5407 109.019 25.5407Z" fill="#F1F3F9"/>
<path d="M113.579 13.3788C114.755 13.3788 115.708 12.4259 115.708 11.2504C115.708 10.075 114.755 9.12207 113.579 9.12207C112.404 9.12207 111.451 10.075 111.451 11.2504C111.451 12.4259 112.404 13.3788 113.579 13.3788Z" fill="#EAEEF9"/>
<path d="M31.5608 30.8622C32.7363 30.8622 33.6892 29.9093 33.6892 28.7338C33.6892 27.5584 32.7363 26.6055 31.5608 26.6055C30.3854 26.6055 29.4325 27.5584 29.4325 28.7338C29.4325 29.9093 30.3854 30.8622 31.5608 30.8622Z" fill="#EAEEF9"/>
<path d="M43.2669 90.0001C45.4499 90.0001 47.2196 88.2305 47.2196 86.0474C47.2196 83.8644 45.4499 82.0947 43.2669 82.0947C41.0839 82.0947 39.3142 83.8644 39.3142 86.0474C39.3142 88.2305 41.0839 90.0001 43.2669 90.0001Z" fill="#EAEEF9"/>
<g filter="url(#filter0_d_243_5967)">
<path d="M121.409 61.1179C121.409 70.9398 113.466 78.8828 103.558 78.8828C103.388 78.8828 101.936 78.8828 91.2595 78.8828C83.829 78.8828 71.9572 78.8828 52.9966 78.8828H43.9433C32.0715 79.139 22.5912 69.6587 22.5912 58.214C22.5912 46.6838 32.157 37.1181 44.1995 37.716C54.5339 5.4316 101.85 9.95825 105.864 43.3529C114.747 44.4632 121.409 51.9792 121.409 61.1179Z" fill="url(#paint0_linear_243_5967)"/>
</g>
<path d="M103.558 78.8824C113.38 78.8824 121.409 70.9394 121.409 61.1175C121.409 51.2955 113.38 43.3525 103.558 43.3525C93.7365 43.3525 85.7081 51.2955 85.7081 61.1175C85.7081 70.9394 93.7365 78.8824 103.558 78.8824Z" fill="url(#paint1_linear_243_5967)"/>
<path d="M74.4341 79.0537C91.9428 79.0537 106.206 64.8759 106.206 47.3672C106.206 29.8585 91.9428 15.6807 74.4341 15.6807C56.9254 15.6807 42.6622 29.8585 42.6622 47.3672C42.6622 64.8759 56.84 79.0537 74.4341 79.0537Z" fill="url(#paint2_linear_243_5967)"/>
<path d="M65.6283 48.276L67.1141 46.7868C67.5475 46.3524 67.5475 45.6078 67.1141 45.1734C66.6808 44.7391 65.9378 44.7391 65.5044 45.1734L64.0186 46.6627L62.5327 45.1734C62.0993 44.7391 61.3564 44.7391 60.923 45.1734C60.4896 45.6078 60.4896 46.3524 60.923 46.7868L62.4089 48.276L60.923 49.7653C60.4896 50.1996 60.4896 50.9443 60.923 51.3786C61.1706 51.6268 61.4183 51.6889 61.7278 51.6889C62.0374 51.6889 62.285 51.5648 62.5327 51.3786L64.0186 49.8894L65.5044 51.3786C65.7521 51.6268 65.9997 51.6889 66.3093 51.6889C66.6189 51.6889 66.8665 51.5648 67.1141 51.3786C67.5475 50.9443 67.5475 50.1996 67.1141 49.7653L65.6283 48.276Z" fill="#989FB0"/>
<path d="M81.3899 48.276L83.0409 46.7868C83.5224 46.3524 83.5224 45.6078 83.0409 45.1734C82.5594 44.7391 81.7339 44.7391 81.2523 45.1734L79.6014 46.6627L77.9504 45.1734C77.4689 44.7391 76.6434 44.7391 76.1618 45.1734C75.6803 45.6078 75.6803 46.3524 76.1618 46.7868L77.8128 48.276L76.1618 49.7653C75.6803 50.1996 75.6803 50.9443 76.1618 51.3786C76.437 51.6268 76.7122 51.6889 77.0561 51.6889C77.4001 51.6889 77.6752 51.5648 77.9504 51.3786L79.6014 49.8894L81.2523 51.3786C81.5275 51.6268 81.8027 51.6889 82.1466 51.6889C82.4906 51.6889 82.7657 51.5648 83.0409 51.3786C83.5224 50.9443 83.5224 50.1996 83.0409 49.7653L81.3899 48.276Z" fill="#989FB0"/>
<path fill-rule="evenodd" clip-rule="evenodd" d="M38.3536 18.2827C38.5318 17.5818 39.2444 17.158 39.9454 17.3362L44.9016 18.596C45.6025 18.7742 46.0263 19.4868 45.8481 20.1878C45.6699 20.8887 44.9573 21.3125 44.2564 21.1343L39.3001 19.8745C38.5992 19.6963 38.1754 18.9837 38.3536 18.2827Z" fill="#989FB0"/>
<path fill-rule="evenodd" clip-rule="evenodd" d="M42.5649 4.34477C43.1633 3.9386 43.9776 4.09442 44.3838 4.69281L50.3086 13.4215C50.7148 14.0198 50.559 14.8342 49.9606 15.2404C49.3622 15.6466 48.5478 15.4907 48.1417 14.8923L42.2168 6.16371C41.8107 5.56531 41.9665 4.75095 42.5649 4.34477Z" fill="#989FB0"/>
<path fill-rule="evenodd" clip-rule="evenodd" d="M53.5554 0.407648C54.2649 0.267223 54.9538 0.728517 55.0943 1.43798L57.1426 11.7867C57.283 12.4962 56.8218 13.1852 56.1123 13.3256C55.4028 13.466 54.7139 13.0047 54.5734 12.2953L52.5251 1.9465C52.3847 1.23704 52.8459 0.548074 53.5554 0.407648Z" fill="#989FB0"/>
<rect x="63.6385" y="58.5303" width="17.4831" height="2.28041" fill="#989FB0"/>
<path d="M74.2804 59.291H77.3209V63.0917C77.3209 63.9313 76.6403 64.612 75.8007 64.612C74.961 64.612 74.2804 63.9313 74.2804 63.0917V59.291Z" fill="#989FB0"/>
<path d="M114.259 25.894C113.935 27.2597 113.449 28.5729 112.855 29.781C111.288 32.6175 108.965 34.9286 106.049 36.3469C103.024 37.8702 99.4585 38.3954 95.8394 37.7126C87.4128 35.9792 81.9572 27.9951 83.7397 19.7484C85.5223 11.5016 93.6787 6.19643 102.159 7.92981C105.184 8.56014 107.831 9.97836 110.046 12.0269C113.719 15.7038 115.285 20.904 114.259 25.894Z" fill="url(#paint3_linear_243_5967)"/>
<path d="M96.5909 15.3196L96.5909 15.3196L96.5915 15.3276L97.2089 22.986C97.2646 23.9469 98.0076 24.8239 98.9848 24.8239C99.9621 24.8239 100.705 23.9469 100.761 22.986L101.378 15.3276L101.378 15.3276L101.379 15.3185C101.474 13.7797 100.454 12.4219 98.9848 12.4219C97.5097 12.4219 96.4951 13.8336 96.5909 15.3196Z" fill="white" stroke="white"/>
<path d="M98.9848 27.625C97.6529 27.625 96.5845 28.6935 96.5845 30.0253C96.5845 31.3572 97.6529 32.4257 98.9848 32.4257C100.317 32.4257 101.385 31.3572 101.385 30.0253C101.385 28.6935 100.317 27.625 98.9848 27.625Z" fill="white" stroke="white"/>
<defs>
<filter id="filter0_d_243_5967" x="0.591217" y="4.75781" width="142.817" height="107.13" filterUnits="userSpaceOnUse" color-interpolation-filters="sRGB">
<feFlood flood-opacity="0" result="BackgroundImageFix"/>
<feColorMatrix in="SourceAlpha" type="matrix" values="0 0 0 0 0 0 0 0 0 0 0 0 0 0 0 0 0 0 127 0" result="hardAlpha"/>
<feOffset dy="11"/>
<feGaussianBlur stdDeviation="11"/>
<feColorMatrix type="matrix" values="0 0 0 0 0.397708 0 0 0 0 0.47749 0 0 0 0 0.575 0 0 0 0.27 0"/>
<feBlend mode="normal" in2="BackgroundImageFix" result="effect1_dropShadow_243_5967"/>
<feBlend mode="normal" in="SourceGraphic" in2="effect1_dropShadow_243_5967" result="shape"/>
</filter>
<linearGradient id="paint0_linear_243_5967" x1="72" y1="41.8456" x2="71.9677" y2="79.5685" gradientUnits="userSpaceOnUse">
<stop stop-color="white"/>
<stop offset="0.9964" stop-color="#ECF0F5"/>
</linearGradient>
<linearGradient id="paint1_linear_243_5967" x1="83.8085" y1="39.5278" x2="99.6327" y2="56.8347" gradientUnits="userSpaceOnUse">
<stop stop-color="#BCCBE1"/>
<stop offset="0.9942" stop-color="white" stop-opacity="0"/>
</linearGradient>
<linearGradient id="paint2_linear_243_5967" x1="39.6871" y1="32.8271" x2="64.6274" y2="42.587" gradientUnits="userSpaceOnUse">
<stop stop-color="#E2E8F0"/>
<stop offset="0.9942" stop-color="white" stop-opacity="0"/>
</linearGradient>
<linearGradient id="paint3_linear_243_5967" x1="83.3878" y1="22.8076" x2="114.573" y2="22.8076" gradientUnits="userSpaceOnUse">
<stop stop-color="#B0BACC"/>
<stop offset="1" stop-color="#969EAE"/>
</linearGradient>
</defs>
</svg>
