<svg width="24" height="25" viewBox="0 0 24 25" fill="none" xmlns="http://www.w3.org/2000/svg">
<path d="M21.5 18.0352L14.8571 12.0352M9.14286 12.0352L2.50003 18.0352M2 7.03516L10.1649 12.7506C10.8261 13.2134 11.1567 13.4448 11.5163 13.5345C11.8339 13.6136 12.1661 13.6136 12.4837 13.5345C12.8433 13.4448 13.1739 13.2134 13.8351 12.7506L22 7.03516M6.8 20.0352H17.2C18.8802 20.0352 19.7202 20.0352 20.362 19.7082C20.9265 19.4206 21.3854 18.9616 21.673 18.3971C22 17.7554 22 16.9153 22 15.2352V8.83516C22 7.155 22 6.31492 21.673 5.67318C21.3854 5.1087 20.9265 4.64976 20.362 4.36214C19.7202 4.03516 18.8802 4.03516 17.2 4.03516H6.8C5.11984 4.03516 4.27976 4.03516 3.63803 4.36214C3.07354 4.64976 2.6146 5.1087 2.32698 5.67318C2 6.31492 2 7.155 2 8.83516V15.2352C2 16.9153 2 17.7554 2.32698 18.3971C2.6146 18.9616 3.07354 19.4206 3.63803 19.7082C4.27976 20.0352 5.11984 20.0352 6.8 20.0352Z" stroke="#B3B3B3" stroke-width="2" stroke-linecap="round" stroke-linejoin="round"/>
</svg>
