<svg width="24" height="24" viewBox="0 0 24 24" fill="none" xmlns="http://www.w3.org/2000/svg">
<g clip-path="url(#clip0_1432_3561)">
<path fill-rule="evenodd" clip-rule="evenodd" d="M12 0C18.6274 0 24 5.37258 24 12C24 18.6274 18.6274 24 12 24C5.37258 24 0 18.6274 0 12C0 5.37258 5.37258 0 12 0ZM19.6172 16.6519V7.73334L15.1576 12.1926L19.6172 16.6519ZM5.3355 16.8336H18.6648L14.591 12.7598L13.0383 14.3122C12.963 14.3873 12.8611 14.4294 12.7547 14.4294H11.2454C11.1927 14.4294 11.1405 14.4191 11.0919 14.399C11.0432 14.3789 10.999 14.3494 10.9617 14.3122L9.40912 12.7598L5.33531 16.8336H5.3355ZM4.38281 7.73306V16.6522L8.84236 12.1926L4.38281 7.73306ZM19.0503 7.16639H4.95L11.4114 13.6278H12.5888L19.0503 7.16639Z" fill="#F44336"/>
</g>
<defs>
<clipPath id="clip0_1432_3561">
<rect width="24" height="24" fill="white"/>
</clipPath>
</defs>
</svg>
