<svg width="24" height="24" viewBox="0 0 24 24" fill="none" xmlns="http://www.w3.org/2000/svg">
<g filter="url(#filter0_b_1583_1779)">
<rect x="0.15" y="0.15" width="23.7" height="23.7" rx="1.85" stroke="#B6A15E" stroke-width="0.3"/>
</g>
<g clip-path="url(#clip0_1583_1779)">
<path d="M16.6666 12.0306C16.298 12.0306 16 12.3294 16 12.6973V18.0306C16 18.398 15.7013 18.6973 15.3334 18.6973H6C5.63197 18.6973 5.33337 18.398 5.33337 18.0306V8.69727C5.33337 8.32995 5.63197 8.03064 6 8.03064H11.3334C11.702 8.03064 12 7.73195 12 7.36402C12 6.99598 11.702 6.69727 11.3334 6.69727H6C4.89734 6.69727 4 7.59461 4 8.69727V18.0306C4 19.1333 4.89734 20.0306 6 20.0306H15.3334C16.436 20.0306 17.3334 19.1333 17.3334 18.0306V12.6973C17.3334 12.3286 17.0352 12.0306 16.6666 12.0306Z" fill="#B6A15E"/>
<path d="M10.2506 11.4234C10.2043 11.4699 10.1726 11.529 10.1593 11.5933L9.68801 13.9508C9.66604 14.06 9.70069 14.1727 9.77932 14.252C9.81035 14.283 9.84716 14.3075 9.88767 14.3242C9.92817 14.3409 9.97157 14.3494 10.0154 14.3493C10.0366 14.3493 10.0587 14.3474 10.0807 14.3427L12.4374 13.8714C12.5027 13.858 12.562 13.8267 12.608 13.78L17.8827 8.5053L15.526 6.14874L10.2506 11.4234ZM19.512 4.51877C18.8621 3.86874 17.8047 3.86874 17.1553 4.51877L16.2327 5.44137L18.5894 7.79805L19.512 6.87534C19.8267 6.56137 20 6.14265 20 5.69734C20 5.25202 19.8267 4.83334 19.512 4.51877Z" fill="#B6A15E"/>
</g>
<defs>
<filter id="filter0_b_1583_1779" x="-15" y="-15" width="54" height="54" filterUnits="userSpaceOnUse" color-interpolation-filters="sRGB">
<feFlood flood-opacity="0" result="BackgroundImageFix"/>
<feGaussianBlur in="BackgroundImageFix" stdDeviation="7.5"/>
<feComposite in2="SourceAlpha" operator="in" result="effect1_backgroundBlur_1583_1779"/>
<feBlend mode="normal" in="SourceGraphic" in2="effect1_backgroundBlur_1583_1779" result="shape"/>
</filter>
<clipPath id="clip0_1583_1779">
<rect width="16" height="16" fill="white" transform="translate(4 4)"/>
</clipPath>
</defs>
</svg>
