<svg width="61" height="60" viewBox="0 0 61 60" fill="none" xmlns="http://www.w3.org/2000/svg">
<path d="M60.5 30C60.5 26.0603 59.724 22.1593 58.2164 18.5195C56.7087 14.8797 54.499 11.5726 51.7132 8.7868C48.9274 6.00104 45.6203 3.79126 41.9805 2.28361C38.3407 0.775973 34.4397 0 30.5 0C26.5603 0 22.6593 0.775973 19.0195 2.28361C15.3797 3.79126 12.0726 6.00104 9.2868 8.7868C6.50104 11.5726 4.29125 14.8797 2.78361 18.5195C1.27597 22.1593 0.5 26.0603 0.5 30C0.5 37.9565 3.66071 45.5871 9.2868 51.2132C14.9129 56.8393 22.5435 60 30.5 60C38.4565 60 46.0871 56.8393 51.7132 51.2132C57.3393 45.5871 60.5 37.9565 60.5 30ZM5.5 30C5.5 23.3696 8.13392 17.0107 12.8223 12.3223C17.5107 7.63392 23.8696 5 30.5 5C37.1304 5 43.4893 7.63392 48.1777 12.3223C52.8661 17.0107 55.5 23.3696 55.5 30C55.5 36.6304 52.8661 42.9893 48.1777 47.6777C43.4893 52.3661 37.1304 55 30.5 55C23.8696 55 17.5107 52.3661 12.8223 47.6777C8.13392 42.9893 5.5 36.6304 5.5 30ZM25.5 23.75C25.5 24.2425 25.403 24.7301 25.2145 25.1851C25.0261 25.64 24.7499 26.0534 24.4017 26.4017C24.0534 26.7499 23.64 27.0261 23.1851 27.2146C22.7301 27.403 22.2425 27.5 21.75 27.5C21.2575 27.5 20.7699 27.403 20.3149 27.2146C19.86 27.0261 19.4466 26.7499 19.0984 26.4017C18.7501 26.0534 18.4739 25.64 18.2855 25.1851C18.097 24.7301 18 24.2425 18 23.75C18 22.7554 18.3951 21.8016 19.0984 21.0983C19.8016 20.3951 20.7554 20 21.75 20C22.7446 20 23.6984 20.3951 24.4017 21.0983C25.1049 21.8016 25.5 22.7554 25.5 23.75ZM43 23.75C43 24.7446 42.6049 25.6984 41.9017 26.4017C41.1984 27.1049 40.2446 27.5 39.25 27.5C38.2554 27.5 37.3016 27.1049 36.5984 26.4017C35.8951 25.6984 35.5 24.7446 35.5 23.75C35.5 22.7554 35.8951 21.8016 36.5984 21.0983C37.3016 20.3951 38.2554 20 39.25 20C40.2446 20 41.1984 20.3951 41.9017 21.0983C42.6049 21.8016 43 22.7554 43 23.75ZM21.16 44.11C25.785 38.63 35.21 38.63 39.84 44.11C40.0466 44.3758 40.3048 44.5971 40.599 44.7607C40.8932 44.9243 41.2174 45.0267 41.5522 45.062C41.887 45.0972 42.2255 45.0644 42.5473 44.9657C42.8691 44.8669 43.1677 44.7042 43.4251 44.4872C43.6825 44.2702 43.8934 44.0035 44.0452 43.703C44.197 43.4026 44.2865 43.0745 44.3085 42.7386C44.3304 42.4027 44.2843 42.0658 44.1729 41.7481C44.0614 41.4305 43.887 41.1386 43.66 40.89C37.035 33.04 23.96 33.04 17.34 40.89C17.113 41.1386 16.9386 41.4305 16.8271 41.7481C16.7157 42.0658 16.6696 42.4027 16.6915 42.7386C16.7135 43.0745 16.803 43.4026 16.9548 43.703C17.1066 44.0035 17.3175 44.2702 17.5749 44.4872C17.8323 44.7042 18.1309 44.8669 18.4527 44.9657C18.7745 45.0644 19.113 45.0972 19.4478 45.062C19.7826 45.0267 20.1068 44.9243 20.401 44.7607C20.6952 44.5971 20.9534 44.3758 21.16 44.11Z" fill="#ED3A3A"/>
</svg>
