<svg width="24" height="24" viewBox="0 0 24 24" fill="none" xmlns="http://www.w3.org/2000/svg">
<path d="M21.1429 6.85725H8.57143M6.28572 6.85725H2.85715M21.1429 18.2858H8.57143M6.28572 18.2858H2.85715M15.4286 12.5715H2.85715M21.1429 12.5715H17.7143M7.42858 4.57153C7.73168 4.57153 8.02237 4.69194 8.2367 4.90627C8.45103 5.1206 8.57143 5.41129 8.57143 5.71439V8.0001C8.57143 8.30321 8.45103 8.5939 8.2367 8.80823C8.02237 9.02255 7.73168 9.14296 7.42858 9.14296C7.12547 9.14296 6.83478 9.02255 6.62045 8.80823C6.40613 8.5939 6.28572 8.30321 6.28572 8.0001V5.71439C6.28572 5.41129 6.40613 5.1206 6.62045 4.90627C6.83478 4.69194 7.12547 4.57153 7.42858 4.57153V4.57153ZM7.42858 16.0001C7.73168 16.0001 8.02237 16.1205 8.2367 16.3348C8.45103 16.5492 8.57143 16.8399 8.57143 17.143V19.4287C8.57143 19.7318 8.45103 20.0225 8.2367 20.2368C8.02237 20.4511 7.73168 20.5715 7.42858 20.5715C7.12547 20.5715 6.83478 20.4511 6.62045 20.2368C6.40613 20.0225 6.28572 19.7318 6.28572 19.4287V17.143C6.28572 16.8399 6.40613 16.5492 6.62045 16.3348C6.83478 16.1205 7.12547 16.0001 7.42858 16.0001ZM16.5714 10.2858C16.8745 10.2858 17.1652 10.4062 17.3796 10.6206C17.5939 10.8349 17.7143 11.1256 17.7143 11.4287V13.7144C17.7143 14.0175 17.5939 14.3082 17.3796 14.5225C17.1652 14.7368 16.8745 14.8572 16.5714 14.8572C16.2683 14.8572 15.9776 14.7368 15.7633 14.5225C15.549 14.3082 15.4286 14.0175 15.4286 13.7144V11.4287C15.4286 11.1256 15.549 10.8349 15.7633 10.6206C15.9776 10.4062 16.2683 10.2858 16.5714 10.2858V10.2858Z" stroke="#B6A15E" stroke-linecap="round" stroke-linejoin="round"/>
</svg>
