<svg width="25" height="21" viewBox="0 0 25 21" fill="none" xmlns="http://www.w3.org/2000/svg">
<path d="M17.3958 0C16.4466 0.00110389 15.5077 0.196659 14.637 0.574604C13.7664 0.95255 12.9823 1.50487 12.3333 2.1975C11.3822 1.18242 10.1479 0.476692 8.79066 0.171945C7.43341 -0.132801 6.01589 -0.0224948 4.72213 0.488544C3.42836 0.999582 2.31809 1.88775 1.53547 3.03775C0.75284 4.18775 0.333998 5.54646 0.333313 6.9375C0.333313 13.845 11.4746 20.625 11.9583 20.8913C12.075 20.9613 12.2085 20.9984 12.3446 20.9984C12.4806 20.9984 12.6142 20.9613 12.7308 20.8913C13.1921 20.625 24.3333 13.845 24.3333 6.9375C24.3313 5.09817 23.5998 3.33474 22.2992 2.03414C20.9986 0.733536 19.2351 0.00198525 17.3958 0ZM12.3333 19.365C10.3946 18.1275 1.83331 12.345 1.83331 6.9375C1.83428 5.78248 2.20301 4.65777 2.88607 3.72637C3.56913 2.79498 4.53104 2.10528 5.63237 1.75725C6.73371 1.40922 7.91727 1.42093 9.0115 1.79068C10.1057 2.16043 11.0538 2.86902 11.7183 3.81375C11.7875 3.91202 11.8794 3.99221 11.9861 4.04756C12.0928 4.10291 12.2112 4.1318 12.3314 4.1318C12.4516 4.1318 12.5701 4.10291 12.6768 4.04756C12.7835 3.99221 12.8753 3.91202 12.9446 3.81375C13.6085 2.8674 14.5568 2.15728 15.6518 1.78648C16.7467 1.41569 17.9313 1.40352 19.0337 1.75174C20.136 2.09996 21.0987 2.79044 21.782 3.72295C22.4652 4.65546 22.8335 5.78147 22.8333 6.9375C22.8333 12.3412 14.2721 18.1238 12.3333 19.365Z" fill="#9E9E9E"/>
</svg>
