<svg width="24" height="25" viewBox="0 0 24 25" fill="none" xmlns="http://www.w3.org/2000/svg">
<path d="M20 21.0352C20 19.6396 20 18.9418 19.8278 18.374C19.44 17.0956 18.4395 16.0952 17.1611 15.7074C16.5933 15.5352 15.8956 15.5352 14.5 15.5352H9.5C8.10444 15.5352 7.40665 15.5352 6.83886 15.7074C5.56045 16.0952 4.56004 17.0956 4.17224 18.374C4 18.9418 4 19.6396 4 21.0352M16.5 7.53516C16.5 10.0204 14.4853 12.0352 12 12.0352C9.51472 12.0352 7.5 10.0204 7.5 7.53516C7.5 5.04987 9.51472 3.03516 12 3.03516C14.4853 3.03516 16.5 5.04987 16.5 7.53516Z" stroke="#B3B3B3" stroke-width="2" stroke-linecap="round" stroke-linejoin="round"/>
</svg>
