<svg width="25" height="23" viewBox="0 0 25 23" fill="none" xmlns="http://www.w3.org/2000/svg">
<path d="M20.6354 22.749H4.69794C3.509 22.749 2.54169 21.7817 2.54169 20.5927V9.24805C2.54169 8.83386 2.87745 8.49805 3.29169 8.49805C3.70592 8.49805 4.04169 8.83386 4.04169 9.24805V20.5927C4.04169 20.9546 4.33606 21.249 4.69794 21.249H20.6354C20.9973 21.249 21.2917 20.9546 21.2917 20.5927V9.24805C21.2917 8.83386 21.6275 8.49805 22.0417 8.49805C22.4559 8.49805 22.7917 8.83386 22.7917 9.24805V20.5927C22.7917 21.7817 21.8244 22.749 20.6354 22.749Z" fill="#9E9E9E"/>
<path d="M23.9167 11.8732C23.8182 11.8733 23.7206 11.854 23.6296 11.8163C23.5386 11.7786 23.4559 11.7233 23.3864 11.6535L14.0588 2.32599C13.2912 1.55837 12.0422 1.55837 11.2746 2.32599L1.94702 11.6536C1.65414 11.9465 1.17925 11.9465 0.886378 11.6536C0.593457 11.3607 0.593457 10.8858 0.886378 10.5929L10.2139 1.2653C11.5664 -0.0871328 13.767 -0.0871328 15.1194 1.2653L24.447 10.5929C24.7399 10.8858 24.7399 11.3606 24.447 11.6535C24.3774 11.7233 24.2948 11.7786 24.2038 11.8163C24.1128 11.854 24.0152 11.8733 23.9167 11.8732ZM15.6667 22.7494H9.66668C9.25244 22.7494 8.91668 22.4136 8.91668 21.9994V15.3431C8.91668 14.0508 9.96808 12.9994 11.2604 12.9994H14.0729C15.3653 12.9994 16.4167 14.0508 16.4167 15.3431V21.9994C16.4167 22.4136 16.0809 22.7494 15.6667 22.7494ZM10.4167 21.2494H14.9167V15.3431C14.9167 14.8779 14.5382 14.4994 14.0729 14.4994H11.2604C10.7952 14.4994 10.4167 14.8779 10.4167 15.3431V21.2494Z" fill="#9E9E9E"/>
</svg>
