<svg width="137" height="104" viewBox="0 0 137 104" fill="none" xmlns="http://www.w3.org/2000/svg">
<path d="M121.179 79.5125C123.443 79.5125 125.279 77.6769 125.279 75.4125C125.279 73.1481 123.443 71.3125 121.179 71.3125C118.915 71.3125 117.079 73.1481 117.079 75.4125C117.079 77.6769 118.915 79.5125 121.179 79.5125Z" fill="#F1F3F9"/>
<path d="M113.305 90.9516C114.852 90.9516 116.105 89.698 116.105 88.1516C116.105 86.6052 114.852 85.3516 113.305 85.3516C111.759 85.3516 110.505 86.6052 110.505 88.1516C110.505 89.698 111.759 90.9516 113.305 90.9516Z" fill="#F1F3F9"/>
<path d="M22.5789 22.5131C24.1253 22.5131 25.3789 21.2595 25.3789 19.7131C25.3789 18.1667 24.1253 16.9131 22.5789 16.9131C21.0325 16.9131 19.7789 18.1667 19.7789 19.7131C19.7789 21.2595 21.0325 22.5131 22.5789 22.5131Z" fill="#F1F3F9"/>
<path d="M5.47893 76.5123C8.35081 76.5123 10.6789 74.1842 10.6789 71.3123C10.6789 68.4404 8.35081 66.1123 5.47893 66.1123C2.60705 66.1123 0.278931 68.4404 0.278931 71.3123C0.278931 74.1842 2.60705 76.5123 5.47893 76.5123Z" fill="#F1F3F9"/>
<path d="M68.6289 102.613C96.6289 102.613 119.329 79.9127 119.329 51.8127C119.329 23.7127 96.6289 1.0127 68.6289 1.0127C40.6289 1.0127 17.9289 23.7127 17.9289 51.8127C17.9289 79.9127 40.6289 102.613 68.6289 102.613Z" fill="#F1F3F9" stroke="#D6DCE8" stroke-width="2" stroke-miterlimit="10"/>
<path d="M98.0727 8.64844C99.5808 8.64844 100.857 9.80277 100.857 11.4188V93.1453C100.857 94.6459 99.6968 95.9157 98.0727 95.9157H37.6345C36.1264 95.9157 34.8504 94.7614 34.8504 93.1453V11.4188C34.8504 9.9182 36.0104 8.64844 37.6345 8.64844H98.0727Z" fill="#F1F3F9" stroke="#D6DCE8" stroke-width="2" stroke-miterlimit="10"/>
<path opacity="0.3" d="M100.857 17.1899V93.0293C100.857 94.5299 99.6968 95.7997 98.0727 95.7997H42.8547L37.9825 90.9515L92.8525 15.8047L97.6087 14.0732L100.857 17.1899Z" fill="#BCC4CF"/>
<path d="M97.8407 14.9967C97.8407 14.535 97.4927 14.0732 96.9127 14.0732H38.9105C38.4465 14.0732 37.9825 14.4195 37.9825 14.9967V90.0281C37.9825 90.4898 38.3305 90.9515 38.9105 90.9515H96.7967C97.2607 90.9515 97.7247 90.6052 97.7247 90.0281L97.8407 14.9967Z" fill="#F1F3F9" stroke="#D6DCE8" stroke-width="2" stroke-miterlimit="10"/>
<path d="M97.8407 14.9967C97.8407 14.535 97.4927 14.0732 96.9127 14.0732H38.9105C38.4465 14.0732 37.9825 14.4195 37.9825 14.9967C38.6785 44.8938 38.9105 78.7157 35.6624 87.4886L91.2285 86.6805C94.5926 71.4434 97.1447 44.0858 97.8407 14.9967Z" fill="#F1F3F9" stroke="#D6DCE8" stroke-width="2" stroke-miterlimit="10"/>
<path d="M97.7243 14.1895C97.7243 14.1895 97.6083 18.6913 96.2163 47.4341C96.2163 47.665 96.2163 47.7804 96.2163 48.0113C94.4762 76.1769 69.4193 82.064 66.4032 82.4103C65.0111 82.5257 62.343 82.7566 57.5868 82.7566C51.6706 82.9874 42.6223 83.1029 28.4698 83.2183C28.0057 83.2183 27.6577 82.7566 27.8897 82.2948C37.6341 62.7867 37.7501 14.3049 37.7501 14.3049L97.7243 14.1895Z" fill="white" stroke="#D6DCE8" stroke-width="2" stroke-miterlimit="10"/>
<path d="M96.1007 47.8955C94.4766 76.0611 69.3037 81.9482 66.2875 82.2945C64.8955 82.4099 62.2274 82.6408 57.4712 82.6408C69.9997 76.8692 76.7279 66.4802 76.6119 58.3999C82.6442 58.8616 93.0845 58.3999 96.1007 47.8955Z" fill="#F1F3F9" stroke="#D6DCE8" stroke-width="2" stroke-miterlimit="10"/>
<path d="M81.9481 8.87942C81.9481 8.76398 81.9481 8.76398 81.9481 8.87942L81.3681 8.30225C81.3681 8.30225 81.0201 8.41768 80.9041 8.64855H71.8557C71.8557 8.41768 71.8557 8.30225 71.8557 8.07138C71.8557 6.22446 70.2317 4.6084 68.3756 4.6084C66.5195 4.6084 64.8955 6.22446 64.8955 8.07138C64.8955 8.30225 64.8955 8.41768 65.0115 8.53312H55.6151C55.1511 8.53312 54.6871 8.87942 54.6871 9.57201V12.5733C54.6871 14.8819 56.3112 16.2671 58.5152 16.2671H77.772C80.092 16.2671 82.0641 14.8819 82.0641 12.5733V9.45658C82.1801 9.22571 82.0641 8.99485 81.9481 8.87942Z" fill="#1C3754"/>
<path d="M81.6001 8.87865V11.8799C81.6001 12.1108 81.6001 12.2262 81.6001 12.4571C81.2521 14.4194 79.628 16.0355 77.54 16.0355H58.1672C56.0792 16.0355 54.4551 14.4194 54.1071 12.4571C54.1071 12.2262 54.1071 12.1108 54.1071 11.8799V8.87865C54.1071 8.41692 54.4551 7.83976 55.0351 7.83976H64.5475C64.5475 7.60889 64.5475 7.49346 64.5475 7.37803C64.5475 5.5311 66.1715 3.91504 68.0276 3.91504C69.8837 3.91504 71.5077 5.5311 71.5077 7.37803C71.5077 7.60889 71.5077 7.72432 71.5077 7.83976H81.0201C81.2521 7.95519 81.6001 8.30149 81.6001 8.87865Z" fill="#AAB2C5"/>
<path d="M67.7956 8.99482C68.7236 8.99482 69.4197 8.30222 69.4197 7.37876C69.4197 6.45529 68.7236 5.7627 67.7956 5.7627C66.8676 5.7627 66.1715 6.45529 66.1715 7.37876C66.1715 8.30222 66.9836 8.99482 67.7956 8.99482Z" fill="#F1F3F9"/>
<path d="M52.251 47.5492C54.1071 47.5492 55.4991 46.0486 55.4991 44.3171C55.4991 42.4702 53.9911 41.085 52.251 41.085C50.3949 41.085 49.0029 42.5856 49.0029 44.3171C48.8869 46.0486 50.3949 47.5492 52.251 47.5492Z" fill="#AAB2C5"/>
<path d="M78.004 47.434C79.86 47.434 81.2521 45.9333 81.2521 44.2018C81.2521 42.3549 79.744 40.9697 78.004 40.9697C76.2639 40.9697 74.7559 42.4704 74.7559 44.2018C74.7559 45.9333 76.1479 47.434 78.004 47.434Z" fill="#AAB2C5"/>
<path d="M68.2596 51.0117H61.9954V52.5123H68.2596V51.0117Z" fill="#AAB2C5"/>
<path d="M130.786 14.5352C133.338 26.5402 132.99 39.2378 129.51 51.0119C128.698 53.436 127.886 56.091 126.146 57.9379C123.71 60.8237 119.301 62.0935 115.705 61.17C111.993 60.2466 108.977 57.0145 108.281 53.0897C107.701 50.6656 108.513 47.7798 110.601 46.2792C112.805 44.894 115.937 45.2403 117.793 46.9718C119.882 48.7033 120.694 51.3582 120.578 53.8978C120.462 56.4373 119.533 58.9768 118.257 61.17C114.429 68.3269 107.469 73.9831 99.4648 76.5226C93.5485 78.3695 87.1683 78.3695 81.2521 76.7535" stroke="#D6DCE8" stroke-width="2" stroke-miterlimit="10" stroke-dasharray="4 4"/>
<path d="M135.658 11.0725C135.31 12.3423 133.918 12.804 132.526 11.996C131.018 11.3034 129.974 10.7262 130.206 9.57191C130.554 8.41758 131.946 8.30215 133.57 8.18671C135.542 7.95585 135.89 9.80277 135.658 11.0725Z" fill="#F1F3F9" stroke="#D6DCE8" stroke-width="2" stroke-miterlimit="10"/>
<path d="M124.406 12.2268C124.986 13.2657 126.61 13.9583 127.77 12.9194C129.046 11.7651 130.09 10.9571 129.51 9.80276C128.93 8.76386 128.002 9.11016 126.03 9.34102C124.406 9.68732 123.71 11.0725 124.406 12.2268Z" fill="#F1F3F9" stroke="#D6DCE8" stroke-width="2" stroke-miterlimit="10"/>
<path d="M129.51 7.95518C130.322 7.83974 131.134 8.30148 131.366 8.99407C131.482 9.22494 131.598 9.57124 131.598 9.8021C131.83 11.4182 131.25 12.8034 130.322 12.9188C129.278 13.1497 128.234 11.9953 128.118 10.4947C128.118 10.033 128.118 9.8021 128.118 9.45581C128.234 8.64778 128.698 8.07061 129.51 7.95518C129.626 7.95518 129.51 7.95518 129.51 7.95518Z" fill="#F1F3F9"/>
<path d="M129.51 7.95518C130.322 7.83974 131.134 8.30148 131.366 8.99407C131.482 9.22494 131.598 9.57124 131.598 9.8021C131.83 11.4182 131.25 12.8034 130.322 12.9188C129.278 13.1497 128.234 11.9953 128.118 10.4947C128.118 10.033 128.118 9.8021 128.118 9.45581C128.234 8.64778 128.698 8.07061 129.51 7.95518ZM129.51 7.95518C129.51 7.95518 129.626 7.95518 129.51 7.95518Z" stroke="#D6DCE8" stroke-width="2" stroke-miterlimit="10"/>
</svg>
