<svg xmlns="http://www.w3.org/2000/svg" width="165.152" height="165.646" viewBox="0 0 165.152 165.646">
  <g id="ic_login" transform="translate(0 -0.001)">
    <path id="Path_1" data-name="Path 1" d="M243.458,669.957,242,664.22a74.5,74.5,0,0,0-7.9-2.835l-.184,2.666-.745-2.937c-3.331-.952-5.6-1.371-5.6-1.371s3.06,11.638,9.48,20.536l7.48,1.314-5.811.838a30.137,30.137,0,0,0,2.6,2.754c9.338,8.668,19.739,12.645,23.231,8.882s-1.247-13.838-10.585-22.505a39.687,39.687,0,0,0-10.172-6.541Z" transform="translate(-227.576 -530.414)" fill="#f2f2f2"/>
    <path id="Path_2" data-name="Path 2" d="M323.1,618.2l1.72-5.662a74.479,74.479,0,0,0-5.3-6.512l-1.535,2.187.881-2.9c-2.359-2.536-4.082-4.065-4.082-4.065s-3.4,11.545-2.5,22.479l5.724,4.991-5.408-2.286a30.132,30.132,0,0,0,.8,3.7c3.513,12.247,10.361,21.027,15.3,19.612s6.085-12.491,2.572-24.738a39.682,39.682,0,0,0-5.327-10.857Z" transform="translate(-293.383 -484.891)" fill="#f2f2f2"/>
    <path id="Path_22" data-name="Path 22" d="M458.3,115.7H457.4V90.848A14.386,14.386,0,0,0,443.01,76.462H390.348a14.386,14.386,0,0,0-14.386,14.386V227.21A14.386,14.386,0,0,0,390.348,241.6H443.01A14.386,14.386,0,0,0,457.4,227.21V133.4h.907Z" transform="translate(-343.061 -76.461)" fill="#e6e6e6"/>
    <path id="Path_23" data-name="Path 23" d="M457.524,93.335H450.65a5.1,5.1,0,0,1-4.726,7.032H415.755a5.1,5.1,0,0,1-4.726-7.032h-6.42a10.744,10.744,0,0,0-10.743,10.744V240.242a10.744,10.744,0,0,0,10.743,10.744h52.915a10.743,10.743,0,0,0,10.743-10.743h0V104.078a10.743,10.743,0,0,0-10.743-10.743Z" transform="translate(-356.994 -89.593)" fill="#fff"/>
    <path id="Path_6" data-name="Path 6" d="M512.21,318.932a5.419,5.419,0,0,1,2.713-4.7,5.421,5.421,0,1,0,0,9.389A5.418,5.418,0,0,1,512.21,318.932Z" transform="translate(-444.881 -260.95)" fill="#ccc"/>
    <path id="Path_7" data-name="Path 7" d="M542.947,318.932a5.418,5.418,0,0,1,2.713-4.7,5.421,5.421,0,1,0,0,9.39A5.418,5.418,0,0,1,542.947,318.932Z" transform="translate(-468.803 -260.95)" fill="#ccc"/>
    <circle id="Ellipse_1" data-name="Ellipse 1" cx="5.421" cy="5.421" r="5.421" transform="translate(75.383 52.561)" fill="#a71222"/>
    <path id="Path_8" data-name="Path 8" d="M517.986,295.462h-31.6a1.136,1.136,0,0,1-1.135-1.135v-31.6a1.136,1.136,0,0,1,1.135-1.135h31.6a1.136,1.136,0,0,1,1.135,1.135v31.6A1.136,1.136,0,0,1,517.986,295.462Zm-31.6-33.411a.681.681,0,0,0-.681.681v31.6a.681.681,0,0,0,.681.681h31.6a.681.681,0,0,0,.681-.681v-31.6a.681.681,0,0,0-.681-.681Z" transform="translate(-428.121 -220.547)" fill="#ccc"/>
    <rect id="Rectangle_1" data-name="Rectangle 1" width="48.459" height="0.454" transform="translate(48.461 99.135)" fill="#ccc"/>
    <circle id="Ellipse_2" data-name="Ellipse 2" cx="1.53" cy="1.53" r="1.53" transform="translate(48.461 93.24)" fill="#a71222"/>
    <rect id="Rectangle_2" data-name="Rectangle 2" width="48.459" height="0.454" transform="translate(48.461 114.437)" fill="#ccc"/>
    <circle id="Ellipse_3" data-name="Ellipse 3" cx="1.53" cy="1.53" r="1.53" transform="translate(48.461 108.543)" fill="#a71222"/>
    <path id="Path_628" data-name="Path 628" d="M603.434,645.327H588.12a1,1,0,0,1-1-1v-5.368a1,1,0,0,1,1-1h15.314a1,1,0,0,1,1,1v5.368a1,1,0,0,1-1,1Z" transform="translate(-507.401 -513.464)" fill="#a71222"/>
    <circle id="Ellipse_7" data-name="Ellipse 7" cx="1.53" cy="1.53" r="1.53" transform="translate(53.453 93.24)" fill="#a71222"/>
    <circle id="Ellipse_8" data-name="Ellipse 8" cx="1.53" cy="1.53" r="1.53" transform="translate(58.445 93.24)" fill="#a71222"/>
    <circle id="Ellipse_9" data-name="Ellipse 9" cx="1.53" cy="1.53" r="1.53" transform="translate(53.453 108.543)" fill="#a71222"/>
    <circle id="Ellipse_10" data-name="Ellipse 10" cx="1.53" cy="1.53" r="1.53" transform="translate(58.445 108.543)" fill="#a71222"/>
    <path id="Path_88" data-name="Path 88" d="M408.687,821.642h-159.2c-.341,0-.617-.121-.617-.27s.276-.27.617-.27h159.2c.341,0,.617.121.617.27S409.028,821.642,408.687,821.642Z" transform="translate(-244.152 -655.995)" fill="#3f3d56"/>
    <path id="Path_629" data-name="Path 629" d="M781.026,542.356a2.237,2.237,0,0,1,.313.175l9.945-4.245.355-2.62,3.974-.024-.235,6.008-13.126,3.471a2.334,2.334,0,0,1-.1.268,2.269,2.269,0,1,1-1.126-3.034Z" transform="translate(-655.823 -433.829)" fill="#ffb8b8"/>
    <path id="Path_630" data-name="Path 630" d="M622.9,698.218h-2.718l-1.293-10.485H622.9Z" transform="translate(-481.664 -535.244)" fill="#ffb8b8"/>
    <path id="Path_631" data-name="Path 631" d="M604.377,731.518h5.242v3.3h-8.543A3.3,3.3,0,0,1,604.377,731.518Z" transform="translate(-467.802 -569.321)" fill="#2f2e41"/>
    <path id="Path_632" data-name="Path 632" d="M667.038,694.931l-2.705.266-2.315-10.308,3.993-.393Z" transform="translate(-515.231 -532.726)" fill="#ffb8b8"/>
    <path id="Path_633" data-name="Path 633" d="M3.3,0H8.543V3.3H0A3.3,3.3,0,0,1,3.3,0Z" transform="translate(143.807 162.213) rotate(-5.625)" fill="#2f2e41"/>
    <circle id="Ellipse_45" data-name="Ellipse 45" cx="5.446" cy="5.446" r="5.446" transform="translate(136.546 79.825)" fill="#ffb8b8"/>
    <path id="Path_634" data-name="Path 634" d="M824.64,667.4a.991.991,0,0,1-.979-.82c-1.407-7.81-6.006-33.349-6.116-34.056a.323.323,0,0,1,0-.049v-1.9a.33.33,0,0,1,.062-.193l.608-.851a.328.328,0,0,1,.254-.139c3.464-.162,14.808-.638,15.356.046h0c.55.688.356,2.773.311,3.184l0,.043,5.1,32.593a1,1,0,0,1-.824,1.138l-3.183.524a1,1,0,0,1-1.114-.686c-.985-3.146-4.286-13.729-5.43-17.824a.111.111,0,0,0-.217.031c.057,3.9.2,13.863.243,17.3l.005.37a1,1,0,0,1-.907,1.006l-3.07.279C824.7,667.4,824.671,667.4,824.64,667.4Z" transform="translate(-686.731 -506.543)" fill="#2f2e41"/>
    <path id="Path_99" data-name="Path 99" d="M825.906,493.475a4.553,4.553,0,0,0-1.845,2.66,25.205,25.205,0,0,0-1.083,6.022l-.345,6.12L818.363,524.5c3.7,3.131,5.835,2.419,10.816-.142s5.55.854,5.55.854l1-13.8,1.423-15.085a6.69,6.69,0,0,0-1.078-1.036,11.011,11.011,0,0,0-9.411-1.994Z" transform="translate(-687.37 -400.618)" fill="#a71222"/>
    <path id="Path_635" data-name="Path 635" d="M835.134,553.633a2.34,2.34,0,0,1,.333.156l9.833-4.922.163-2.666,4.056-.28.217,6.078L836.6,556.344a2.327,2.327,0,1,1-1.462-2.712Z" transform="translate(-697.985 -441.829)" fill="#ffb8b8"/>
    <path id="Path_101" data-name="Path 101" d="M884.51,507.38c2.419.854,2.846,10.1,2.846,10.1-2.846-1.565-6.262,1-6.262,1s-.712-2.419-1.565-5.55a5.439,5.439,0,0,1,1.138-5.123A3.875,3.875,0,0,1,884.51,507.38Z" transform="translate(-734.803 -411.606)" fill="#a71222"/>
    <path id="Path_102" data-name="Path 102" d="M853.744,435.794c-.679-.543-1.6.444-1.6.444l-.543-4.885a19.4,19.4,0,0,1-5.564-.136c-2.171-.542-2.51,1.968-2.51,1.968a17.427,17.427,0,0,1-.068-3.053c.136-1.221,1.9-2.443,5.021-3.257s4.75,2.714,4.75,2.714C855.4,430.674,854.422,436.337,853.744,435.794Z" transform="translate(-706.869 -349.083)" fill="#2f2e41"/>
  </g>
</svg>
