<svg width="147" height="144" viewBox="0 0 147 144" fill="none" xmlns="http://www.w3.org/2000/svg">
<path d="M33.1658 30.6781C33.1658 30.7954 33.2081 30.815 33.2927 30.7367C37.4325 26.937 42.1398 24.6265 47.4146 23.8053C57.0098 22.3193 66.6341 23.9226 73.2146 31.4309C73.3219 31.5547 73.439 31.5628 73.5658 31.4553C81.3577 24.928 90.1463 22.4203 99.9317 23.9324C105.624 24.8123 110.298 27.1439 114.127 31.2696C114.154 31.299 114.19 31.3195 114.229 31.3284C114.268 31.3373 114.309 31.3342 114.347 31.3194C114.384 31.3046 114.416 31.2789 114.439 31.2456C114.461 31.2123 114.473 31.173 114.473 31.1327C114.506 23.6081 114.502 16.0918 114.463 8.58352C114.457 7.04211 114.654 5.80377 115.054 4.8685C116.946 0.449587 122.517 -0.748016 126.102 2.2631C128.166 3.98863 128.512 6.01233 128.512 8.84259C128.512 31.1816 128.512 53.5189 128.512 75.8546C128.512 78.0315 128.281 79.625 127.819 80.6353C124.702 87.4885 115.259 84.7902 115 77.2478C114.999 77.2072 114.986 77.1679 114.963 77.135C114.939 77.102 114.906 77.077 114.868 77.0633C114.83 77.0495 114.789 77.0476 114.749 77.0579C114.71 77.0681 114.675 77.09 114.649 77.1207C107.361 85.235 95.5951 87.0046 85.4537 83.9446C70.7024 79.4914 64.2341 66.7431 64.6244 52.0248C64.8049 45.1862 62.2537 38.4063 55.0146 36.3435C51.9642 35.4766 48.8293 35.4229 45.6098 36.1822C36.561 38.3134 33.1756 45.5333 33.161 54.2244C33.1447 61.1298 33.1398 68.0368 33.1463 74.9454C33.1496 77.9826 32.9219 80.0275 32.4634 81.0801C30.1219 86.4571 21.8537 86.3202 19.5561 81.041C19.1008 79.9917 18.8732 78.3737 18.8732 76.187C18.8797 53.1833 18.8797 30.1795 18.8732 7.17572C18.8732 -0.718688 29.7073 -2.59575 32.561 4.46767C32.974 5.49093 33.1756 6.91013 33.1658 8.72527C33.1268 16.0608 33.1268 23.3784 33.1658 30.6781ZM113.888 48.4759C111.327 38.5041 101.19 33.4986 91.6927 36.1479C78.2049 39.9118 74.961 57.4849 83.3463 67.2954C89.9902 75.0725 103.005 75.1654 109.771 67.7745C114.439 62.6761 115.61 55.1874 113.888 48.4759Z" fill="#B6A15E"/>
<path d="M44.1512 108.005C44.1559 109.369 43.8798 110.721 43.3385 111.983C42.7972 113.245 42.0013 114.393 40.9964 115.361C39.9914 116.329 38.7971 117.099 37.4815 117.625C36.1659 118.152 34.7548 118.426 33.3289 118.431C31.9029 118.436 30.49 118.172 29.1708 117.654C27.8515 117.137 26.6518 116.376 25.6402 115.415C24.6285 114.454 23.8247 113.312 23.2746 112.053C22.7245 110.795 22.4389 109.445 22.4342 108.081C22.4294 106.717 22.7056 105.365 23.2469 104.103C23.7882 102.841 24.584 101.693 25.589 100.725C26.5939 99.7571 27.7883 98.9878 29.1039 98.4612C30.4195 97.9346 31.8305 97.6609 33.2565 97.656C34.6824 97.651 36.0954 97.9147 37.4146 98.4321C38.7338 98.9495 39.9335 99.7104 40.9452 100.671C41.9569 101.632 42.7607 102.775 43.3108 104.033C43.8609 105.291 44.1464 106.641 44.1512 108.005ZM40.3951 108.043C40.3951 106.157 39.6473 104.348 38.3163 103.014C36.9852 101.68 35.1799 100.931 33.2976 100.931C31.4152 100.931 29.6099 101.68 28.2788 103.014C26.9478 104.348 26.2 106.157 26.2 108.043C26.2 109.93 26.9478 111.739 28.2788 113.072C29.6099 114.406 31.4152 115.156 33.2976 115.156C35.1799 115.156 36.9852 114.406 38.3163 113.072C39.6473 111.739 40.3951 109.93 40.3951 108.043Z" fill="#B6A15E"/>
<path d="M123.171 108.062C123.168 109.426 122.885 110.777 122.337 112.036C121.789 113.295 120.988 114.439 119.978 115.402C118.968 116.365 117.769 117.128 116.451 117.647C115.133 118.167 113.72 118.433 112.294 118.431C110.868 118.428 109.457 118.157 108.14 117.633C106.824 117.108 105.628 116.341 104.621 115.375C103.615 114.409 102.817 113.262 102.273 112.001C101.73 110.74 101.451 109.388 101.454 108.024C101.456 106.66 101.739 105.31 102.287 104.051C102.835 102.791 103.637 101.648 104.647 100.685C105.657 99.7221 106.855 98.959 108.174 98.4393C109.492 97.9196 110.904 97.6534 112.33 97.6559C113.756 97.6584 115.168 97.9296 116.484 98.4539C117.801 98.9782 118.997 99.7454 120.003 100.712C121.01 101.678 121.808 102.825 122.351 104.086C122.895 105.347 123.173 106.698 123.171 108.062ZM119.405 108.043C119.405 106.158 118.658 104.35 117.327 103.018C115.997 101.685 114.193 100.936 112.312 100.936C110.431 100.936 108.627 101.685 107.297 103.018C105.967 104.35 105.219 106.158 105.219 108.043C105.219 109.928 105.967 111.736 107.297 113.069C108.627 114.402 110.431 115.151 112.312 115.151C114.193 115.151 115.997 114.402 117.327 113.069C118.658 111.736 119.405 109.928 119.405 108.043Z" fill="#B6A15E"/>
<path d="M14.7317 105.976V98.2816C14.7317 98.1999 14.7641 98.1216 14.8217 98.0638C14.8793 98.0061 14.9575 97.9736 15.039 97.9736H18.2049C18.2864 97.9736 18.3645 98.0061 18.4222 98.0638C18.4798 98.1216 18.5122 98.1999 18.5122 98.2816V117.829C18.5122 117.911 18.4798 117.989 18.4222 118.047C18.3645 118.105 18.2864 118.137 18.2049 118.137L15.039 118.132C14.9575 118.132 14.8793 118.1 14.8217 118.042C14.7641 117.985 14.7317 117.906 14.7317 117.825V109.769C14.7317 109.687 14.6993 109.609 14.6417 109.551C14.5841 109.493 14.5059 109.461 14.4244 109.461H4.67317C4.59166 109.461 4.51349 109.493 4.45586 109.551C4.39823 109.609 4.36585 109.687 4.36585 109.769V117.864C4.3659 117.905 4.35749 117.947 4.34114 117.985C4.32479 118.023 4.30083 118.058 4.27073 118.087C4.24062 118.116 4.20499 118.138 4.166 118.153C4.12701 118.167 4.08547 118.174 4.0439 118.172L0.999995 118.025C0.921053 118.021 0.846594 117.987 0.792089 117.93C0.737584 117.872 0.707223 117.796 0.707312 117.717V98.2816C0.707312 98.2412 0.715261 98.2011 0.730705 98.1637C0.746149 98.1264 0.768786 98.0924 0.797323 98.0638C0.82586 98.0352 0.859739 98.0126 0.897024 97.9971C0.93431 97.9816 0.974272 97.9736 1.01463 97.9736H4.05853C4.14004 97.9736 4.2182 98.0061 4.27584 98.0638C4.33347 98.1216 4.36585 98.1999 4.36585 98.2816V105.976C4.36585 106.057 4.39823 106.136 4.45586 106.193C4.51349 106.251 4.59166 106.284 4.67317 106.284H14.4244C14.5059 106.284 14.5841 106.251 14.6417 106.193C14.6993 106.136 14.7317 106.057 14.7317 105.976Z" fill="#B6A15E"/>
<path d="M48.0293 98.394C48.0293 98.289 48.0709 98.1883 48.145 98.1141C48.2191 98.0398 48.3196 97.9981 48.4244 97.9981H57.5463C60.2593 97.9981 62.8612 99.0224 64.7795 100.846C66.6979 102.669 67.7756 105.142 67.7756 107.721V108.376C67.7756 110.954 66.6979 113.427 64.7795 115.251C62.8612 117.074 60.2593 118.098 57.5463 118.098H48.4244C48.3196 118.098 48.2191 118.057 48.145 117.982C48.0709 117.908 48.0293 117.807 48.0293 117.702V98.394ZM51.8098 101.405L51.7902 114.672C51.7902 114.705 51.7968 114.738 51.8095 114.769C51.8223 114.8 51.841 114.828 51.8645 114.851C51.8881 114.875 51.916 114.894 51.9468 114.907C51.9776 114.919 52.0106 114.926 52.0439 114.926L57.2195 114.936C58.1093 114.937 58.9907 114.771 59.8133 114.446C60.6359 114.121 61.3836 113.644 62.0137 113.043C62.6438 112.441 63.1439 111.727 63.4856 110.941C63.8272 110.154 64.0037 109.311 64.0049 108.459V107.657C64.0073 105.937 63.2959 104.286 62.027 103.068C60.7582 101.849 59.0359 101.163 57.239 101.161L52.0634 101.151C52.0301 101.151 51.9971 101.158 51.9663 101.17C51.9356 101.183 51.9076 101.202 51.884 101.225C51.8605 101.249 51.8418 101.277 51.8291 101.308C51.8163 101.339 51.8098 101.372 51.8098 101.405Z" fill="#B6A15E"/>
<path d="M93.7561 105.985V98.2718C93.7561 98.2327 93.7638 98.1939 93.7787 98.1577C93.7937 98.1215 93.8156 98.0887 93.8432 98.061C93.8709 98.0333 93.9037 98.0113 93.9398 97.9963C93.9759 97.9814 94.0146 97.9736 94.0536 97.9736H97.239C97.2781 97.9736 97.3168 97.9814 97.3529 97.9963C97.389 98.0113 97.4218 98.0333 97.4494 98.061C97.4771 98.0887 97.499 98.1215 97.5139 98.1577C97.5289 98.1939 97.5366 98.2327 97.5366 98.2718V117.854C97.5366 117.893 97.5287 117.933 97.5135 117.969C97.4982 118.006 97.4759 118.039 97.4477 118.066C97.4196 118.094 97.3862 118.116 97.3495 118.131C97.3128 118.145 97.2736 118.153 97.2341 118.152L94.0488 118.088C93.9707 118.087 93.8963 118.055 93.8415 117.999C93.7868 117.944 93.7561 117.869 93.7561 117.79V109.759C93.7561 109.68 93.7247 109.604 93.6689 109.548C93.6131 109.492 93.5374 109.461 93.4585 109.461H83.6878C83.6089 109.461 83.5332 109.492 83.4774 109.548C83.4216 109.604 83.3902 109.68 83.3902 109.759V117.815C83.3902 117.893 83.3596 117.968 83.3048 118.024C83.2501 118.08 83.1756 118.112 83.0975 118.113L80.0341 118.147C79.9947 118.148 79.9554 118.141 79.9188 118.126C79.8821 118.111 79.8487 118.089 79.8206 118.062C79.7924 118.034 79.7701 118.001 79.7548 117.964C79.7396 117.928 79.7317 117.889 79.7317 117.849V98.2718C79.7317 98.2327 79.7394 98.1939 79.7543 98.1577C79.7693 98.1215 79.7912 98.0887 79.8189 98.061C79.8465 98.0333 79.8793 98.0113 79.9154 97.9963C79.9515 97.9814 79.9902 97.9736 80.0293 97.9736H83.0927C83.1318 97.9736 83.1704 97.9814 83.2066 97.9963C83.2427 98.0113 83.2755 98.0333 83.3031 98.061C83.3307 98.0887 83.3526 98.1215 83.3676 98.1577C83.3825 98.1939 83.3902 98.2327 83.3902 98.2718V105.985C83.3902 106.064 83.4216 106.14 83.4774 106.196C83.5332 106.252 83.6089 106.284 83.6878 106.284H93.4585C93.5374 106.284 93.6131 106.252 93.6689 106.196C93.7247 106.14 93.7561 106.064 93.7561 105.985Z" fill="#B6A15E"/>
<path d="M127.059 98.3403C127.059 98.2908 127.07 98.242 127.089 98.1966C127.108 98.1512 127.137 98.11 127.172 98.0755C127.207 98.041 127.249 98.0138 127.295 97.9955C127.341 97.9772 127.39 97.9681 127.439 97.9688L136.478 97.9834C139.221 97.9889 141.849 99.0167 143.784 100.841C145.72 102.665 146.805 105.136 146.8 107.711V108.434C146.798 109.709 146.528 110.971 146.006 112.148C145.484 113.325 144.72 114.394 143.758 115.294C142.796 116.193 141.654 116.906 140.398 117.392C139.143 117.877 137.797 118.125 136.439 118.123L127.4 118.108C127.351 118.107 127.302 118.097 127.257 118.078C127.211 118.058 127.17 118.03 127.136 117.994C127.101 117.959 127.074 117.917 127.056 117.871C127.038 117.825 127.029 117.776 127.029 117.727L127.059 98.3403ZM130.815 101.439L130.834 114.667C130.834 114.742 130.864 114.814 130.917 114.867C130.97 114.92 131.042 114.95 131.117 114.95L136.171 114.941C137.992 114.938 139.738 114.253 141.024 113.036C142.31 111.82 143.032 110.172 143.029 108.454V107.613C143.028 106.763 142.849 105.92 142.503 105.135C142.157 104.35 141.65 103.636 141.011 103.036C140.372 102.435 139.614 101.959 138.781 101.635C137.947 101.311 137.053 101.145 136.151 101.146L131.098 101.156C131.06 101.156 131.024 101.163 130.989 101.177C130.955 101.192 130.924 101.213 130.898 101.239C130.871 101.265 130.85 101.296 130.836 101.331C130.822 101.365 130.815 101.402 130.815 101.439Z" fill="#B6A15E"/>
<path d="M51.6634 135.906C47.7171 125.553 65.1902 125.411 61.2683 135.945C61.1967 136.131 61.2602 136.224 61.4585 136.224H64.5122C64.7041 136.224 64.8016 136.126 64.8049 135.93C64.8471 130.993 62.6553 127.611 58.2293 125.782C58.0927 125.724 58.0341 125.623 58.0537 125.479L58.361 123.255C58.3665 123.215 58.3804 123.177 58.402 123.143C58.4235 123.108 58.4521 123.079 58.4858 123.057C58.5196 123.035 58.5577 123.02 58.5975 123.014C58.6374 123.007 58.6782 123.01 58.7171 123.021C65.9805 125.01 68.678 132.137 67.561 139.049C67.535 139.202 67.4439 139.279 67.2878 139.279H28.1415C27.9561 139.279 27.8423 139.37 27.8 139.552C27.1106 142.456 25.213 143.88 22.1073 143.825C21.9024 143.818 21.8 143.714 21.8 143.512L21.8097 141.786C21.813 141.555 21.9301 141.433 22.161 141.42C23.3154 141.361 24.1593 140.832 24.6927 139.831C24.7228 139.776 24.7383 139.714 24.7376 139.651C24.7369 139.588 24.7201 139.526 24.6887 139.472C24.6574 139.417 24.6125 139.372 24.5586 139.34C24.5046 139.308 24.4432 139.29 24.3805 139.289C22.9366 139.245 21.3024 139.484 20 138.937C17.561 137.91 16.2488 136.144 16.0634 133.638C15.5024 126.169 25.439 124.218 27.5366 131.218C27.7772 132.02 27.8488 133.594 27.7512 135.94C27.7415 136.129 27.8309 136.224 28.0195 136.224H51.4439C51.4818 136.224 51.5192 136.215 51.5529 136.197C51.5865 136.179 51.6154 136.154 51.637 136.123C51.6586 136.091 51.6722 136.055 51.6769 136.018C51.6815 135.98 51.6768 135.941 51.6634 135.906ZM20.678 135.764C21.8 136.321 23.078 136.437 24.5122 136.111C24.652 136.082 24.7236 135.996 24.7268 135.852C24.7512 134.298 24.9512 132.264 24.2585 131.018C23.3415 129.375 21.1415 129.307 19.9024 130.607C18.6 131.976 18.9024 134.884 20.678 135.764ZM56.4732 136.268C57.1407 136.268 57.781 135.961 58.253 135.416C58.725 134.87 58.9902 134.131 58.9902 133.359C58.9902 132.588 58.725 131.848 58.253 131.303C57.781 130.757 57.1407 130.451 56.4732 130.451C55.8056 130.451 55.1654 130.757 54.6933 131.303C54.2213 131.848 53.9561 132.588 53.9561 133.359C53.9561 134.131 54.2213 134.87 54.6933 135.416C55.1654 135.961 55.8056 136.268 56.4732 136.268Z" fill="#B6A15E"/>
<path d="M106.941 139.655C106.174 142.542 104.239 143.931 101.137 143.82C101.088 143.819 101.042 143.799 101.009 143.765C100.975 143.731 100.956 143.686 100.956 143.639L100.946 141.738C100.946 141.542 101.042 141.443 101.234 141.439C102.376 141.417 103.231 140.923 103.8 139.958C103.85 139.874 103.875 139.776 103.871 139.678C103.867 139.58 103.834 139.485 103.777 139.405C103.721 139.324 103.642 139.263 103.551 139.226C103.459 139.19 103.36 139.181 103.263 139.201C93.2829 141.141 92.3073 126.369 101.62 126.97C106.839 127.303 106.863 131.761 106.932 135.896C106.935 136.114 107.047 136.224 107.268 136.224H130.595C130.78 136.224 130.852 136.132 130.81 135.95C130.605 135.016 130.088 133.926 130.224 133.012C130.927 128.305 135.878 126.423 139.312 129.326C141.429 131.12 141.044 133.364 140.498 135.965C140.462 136.137 140.532 136.224 140.707 136.224H143.615C143.813 136.224 143.914 136.126 143.917 135.93C144.024 131.042 141.876 127.673 137.473 125.822C137.298 125.75 137.221 125.62 137.244 125.431L137.537 123.28C137.566 123.061 137.686 122.982 137.898 123.04C145.083 124.956 147.888 132.152 146.683 139.069C146.657 139.209 146.572 139.279 146.429 139.279H107.429C107.172 139.279 107.01 139.404 106.941 139.655ZM98.3219 132.22C97.8439 135.53 100.702 136.835 103.663 136.062C103.79 136.03 103.855 135.948 103.859 135.818C103.911 133.934 103.906 132.738 103.844 132.23C103.434 128.882 98.8098 128.857 98.3219 132.22ZM135.589 136.267C135.919 136.272 136.248 136.203 136.555 136.061C136.863 135.92 137.144 135.711 137.382 135.445C137.62 135.179 137.81 134.862 137.942 134.512C138.074 134.161 138.145 133.785 138.151 133.404C138.157 133.022 138.098 132.644 137.977 132.29C137.856 131.935 137.675 131.612 137.446 131.339C137.216 131.066 136.942 130.848 136.639 130.697C136.336 130.546 136.01 130.466 135.68 130.461C135.349 130.456 135.021 130.526 134.713 130.667C134.405 130.808 134.125 131.017 133.887 131.283C133.649 131.549 133.458 131.866 133.326 132.216C133.194 132.567 133.123 132.943 133.117 133.324C133.111 133.706 133.171 134.084 133.292 134.438C133.412 134.793 133.593 135.116 133.822 135.389C134.052 135.662 134.326 135.88 134.629 136.031C134.932 136.182 135.258 136.262 135.589 136.267Z" fill="#B6A15E"/>
<path d="M3.66829 126.995C11.4829 125.949 14.0293 132.543 13.2927 139.069C13.2764 139.215 13.1951 139.289 13.0488 139.289H0.76097C0.562596 139.289 0.463409 139.191 0.463409 138.995V136.532C0.463409 136.326 0.565849 136.224 0.770727 136.224H9.97073C10.1528 136.224 10.2455 136.132 10.2488 135.95C10.3236 132.382 8.69431 130.325 5.36097 129.781C4.92195 129.708 4.22926 129.805 3.67317 129.722C3.59432 129.71 3.52257 129.669 3.47074 129.608C3.41891 129.547 3.39038 129.47 3.39024 129.39V127.312C3.39024 127.127 3.48292 127.021 3.66829 126.995Z" fill="#B6A15E"/>
<path d="M89.4146 135.94C89.561 131.399 86.9415 129.854 82.8829 129.742C82.7902 129.739 82.7021 129.701 82.6374 129.634C82.5727 129.567 82.5365 129.478 82.5366 129.385V127.195C82.5366 127.052 82.6081 126.975 82.7512 126.965C91.3512 126.423 92.678 132.215 92.5219 139.103C92.5219 139.151 92.5024 139.197 92.4677 139.231C92.4329 139.265 92.3857 139.284 92.3366 139.284L79.9756 139.313C79.8781 139.313 79.7846 139.275 79.7152 139.206C79.6458 139.137 79.6062 139.044 79.6049 138.946L79.5805 136.668C79.5798 136.61 79.5907 136.553 79.6125 136.499C79.6343 136.445 79.6665 136.396 79.7073 136.354C79.7482 136.313 79.7968 136.28 79.8504 136.258C79.904 136.235 79.9614 136.224 80.0195 136.224H89.1268C89.3154 136.224 89.4114 136.129 89.4146 135.94Z" fill="#B6A15E"/>
</svg>
