<svg width="16" height="16" viewBox="0 0 16 16" fill="none" xmlns="http://www.w3.org/2000/svg">
<path d="M8.00001 0C4.80485 0 2.20541 2.59944 2.20541 5.79456C2.20541 9.75981 7.39101 15.581 7.61179 15.8269C7.81916 16.0579 8.18123 16.0575 8.38823 15.8269C8.60901 15.581 13.7946 9.75981 13.7946 5.79456C13.7945 2.59944 11.1951 0 8.00001 0ZM8.00001 8.70997C6.39245 8.70997 5.08463 7.40213 5.08463 5.79456C5.08463 4.187 6.39248 2.87919 8.00001 2.87919C9.60754 2.87919 10.9154 4.18703 10.9154 5.79459C10.9154 7.40216 9.60754 8.70997 8.00001 8.70997Z" fill="#B6A15E"/>
</svg>
