<svg width="133" height="119" viewBox="0 0 133 119" fill="none" xmlns="http://www.w3.org/2000/svg">
<path d="M68.59 117.9C96.59 117.9 119.29 95.1998 119.29 67.0998C119.29 38.9998 96.49 16.2998 68.59 16.2998C40.59 16.2998 17.89 38.9998 17.89 67.0998C17.89 95.1998 40.59 117.9 68.59 117.9Z" fill="#F1F3F9" stroke="#D6DCE8" stroke-width="2" stroke-miterlimit="10"/>
<path d="M115.59 33.9002C117.854 33.9002 119.69 32.0646 119.69 29.8002C119.69 27.5358 117.854 25.7002 115.59 25.7002C113.326 25.7002 111.49 27.5358 111.49 29.8002C111.49 32.0646 113.326 33.9002 115.59 33.9002Z" fill="#F1F3F9"/>
<path d="M121.59 17.8998C123.136 17.8998 124.39 16.6462 124.39 15.0998C124.39 13.5534 123.136 12.2998 121.59 12.2998C120.044 12.2998 118.79 13.5534 118.79 15.0998C118.79 16.6462 120.044 17.8998 121.59 17.8998Z" fill="#F1F3F9"/>
<path d="M13.69 40.8998C15.2364 40.8998 16.49 39.6462 16.49 38.0998C16.49 36.5534 15.2364 35.2998 13.69 35.2998C12.1436 35.2998 10.89 36.5534 10.89 38.0998C10.89 39.6462 12.1436 40.8998 13.69 40.8998Z" fill="#F1F3F9"/>
<path d="M29.09 118.7C31.9619 118.7 34.29 116.372 34.29 113.5C34.29 110.628 31.9619 108.3 29.09 108.3C26.2181 108.3 23.89 110.628 23.89 113.5C23.89 116.372 26.2181 118.7 29.09 118.7Z" fill="#F1F3F9"/>
<path d="M131.11 80.8508C131.11 93.6946 120.723 104.081 107.768 104.081C107.544 104.081 105.646 104.081 91.6851 104.081C81.9684 104.081 66.4442 104.081 41.65 104.081H29.8114C14.2871 104.416 1.89001 92.0193 1.89001 77.0535C1.89001 61.976 14.3988 49.4672 30.1464 50.249C43.6603 8.03195 105.534 13.9513 110.783 57.6203C122.399 59.0722 131.11 68.9005 131.11 80.8508Z" fill="white" stroke="#D6DCE8" stroke-width="2" stroke-miterlimit="10"/>
<path d="M110.448 57.7318C109.555 57.6201 108.661 57.6201 107.768 57.6201C103.189 57.6201 98.833 58.9603 95.1473 61.3057" fill="white"/>
<path d="M110.448 57.7318C109.555 57.6201 108.661 57.6201 107.768 57.6201C103.189 57.6201 98.833 58.9603 95.1473 61.3057" stroke="#D6DCE8" stroke-width="2" stroke-miterlimit="10" stroke-linecap="round"/>
<path d="M30.1464 50.249C28.8062 54.2697 28.1361 58.5137 28.1361 62.9812C28.1361 64.7681 28.2478 66.4434 28.4712 68.1187" fill="white"/>
<path d="M30.1464 50.249C28.8062 54.2697 28.1361 58.5137 28.1361 62.9812C28.1361 64.7681 28.2478 66.4434 28.4712 68.1187" stroke="#D6DCE8" stroke-width="2" stroke-miterlimit="10" stroke-linecap="round" stroke-linejoin="round"/>
<path d="M58.5077 63.81L60.4624 61.8508C61.0325 61.2794 61.0325 60.2998 60.4624 59.7284C59.8923 59.1569 58.9149 59.1569 58.3448 59.7284L56.39 61.6876L54.4353 59.7284C53.8651 59.1569 52.8878 59.1569 52.3176 59.7284C51.7475 60.2998 51.7475 61.2794 52.3176 61.8508L54.2724 63.81L52.3176 65.7692C51.7475 66.3406 51.7475 67.3202 52.3176 67.8916C52.6434 68.2182 52.9692 68.2998 53.3764 68.2998C53.7837 68.2998 54.1095 68.1365 54.4353 67.8916L56.39 65.9325L58.3448 67.8916C58.6706 68.2182 58.9963 68.2998 59.4036 68.2998C59.8108 68.2998 60.1366 68.1365 60.4624 67.8916C61.0325 67.3202 61.0325 66.3406 60.4624 65.7692L58.5077 63.81Z" fill="#AAB2C5"/>
<path d="M79.243 63.81L81.4149 61.8508C82.0484 61.2794 82.0484 60.2998 81.4149 59.7284C80.7814 59.1569 79.6954 59.1569 79.062 59.7284L76.89 61.6876L74.7181 59.7284C74.0846 59.1569 72.9986 59.1569 72.3651 59.7284C71.7316 60.2998 71.7316 61.2794 72.3651 61.8508L74.5371 63.81L72.3651 65.7692C71.7316 66.3406 71.7316 67.3202 72.3651 67.8916C72.7271 68.2182 73.0891 68.2998 73.5416 68.2998C73.9941 68.2998 74.3561 68.1365 74.7181 67.8916L76.89 65.9325L79.062 67.8916C79.4239 68.2182 79.7859 68.2998 80.2384 68.2998C80.6909 68.2998 81.0529 68.1365 81.4149 67.8916C82.0484 67.3202 82.0484 66.3406 81.4149 65.7692L79.243 63.81Z" fill="#AAB2C5"/>
<path fill-rule="evenodd" clip-rule="evenodd" d="M22.6263 24.3521C22.8607 23.43 23.7982 22.8725 24.7204 23.1069L31.2405 24.7642C32.1626 24.9986 32.7202 25.9362 32.4858 26.8583C32.2514 27.7804 31.3138 28.3379 30.3917 28.1035L23.8715 26.4462C22.9494 26.2118 22.3919 25.2743 22.6263 24.3521Z" fill="#A2ABBE"/>
<path fill-rule="evenodd" clip-rule="evenodd" d="M28.1665 6.01508C28.9538 5.48073 30.0251 5.68572 30.5595 6.47294L38.3539 17.956C38.8882 18.7432 38.6832 19.8145 37.896 20.3489C37.1088 20.8832 36.0375 20.6782 35.5031 19.891L27.7087 8.40799C27.1743 7.62077 27.3793 6.54943 28.1665 6.01508Z" fill="#A2ABBE"/>
<path fill-rule="evenodd" clip-rule="evenodd" d="M42.6251 0.836089C43.5584 0.651351 44.4648 1.25821 44.6496 2.19154L47.3443 15.8059C47.529 16.7392 46.9222 17.6456 45.9888 17.8304C45.0555 18.0151 44.1491 17.4082 43.9644 16.4749L41.2697 2.86054C41.0849 1.9272 41.6918 1.02083 42.6251 0.836089Z" fill="#A2ABBE"/>
<rect x="55.89" y="77.2998" width="23" height="3" rx="1.5" fill="#AAB2C5"/>
<path d="M69.89 78.2998H73.89V83.2998C73.89 84.4044 72.9946 85.2998 71.89 85.2998C70.7854 85.2998 69.89 84.4044 69.89 83.2998V78.2998Z" fill="#AAB2C5"/>
<path d="M122.484 34.3645C122.058 36.1612 121.418 37.8888 120.636 39.4781C118.576 43.2096 115.52 46.2501 111.683 48.1159C107.703 50.1198 103.013 50.8108 98.2521 49.9125C87.1664 47.6321 79.9892 37.1286 82.3342 26.2796C84.6793 15.4306 95.4096 8.45127 106.566 10.7316C110.546 11.5609 114.028 13.4266 116.941 16.1216C121.773 20.9587 123.834 27.7998 122.484 34.3645Z" fill="#D6DCE8" stroke="#AAB2C5" stroke-width="2" stroke-miterlimit="10"/>
<path d="M98.8992 20.4762L98.8998 20.4842L98.9004 20.4922L99.7123 30.5635C99.7956 31.9674 100.887 33.2998 102.39 33.2998C103.893 33.2998 104.984 31.9674 105.068 30.5635L105.88 20.4922L105.88 20.4831L105.881 20.4739C106.016 18.303 104.568 16.2998 102.39 16.2998C100.201 16.2998 98.7639 18.3785 98.8992 20.4762Z" fill="white" stroke="#AAB2C5" stroke-width="2"/>
<path d="M102.39 36.2998C100.449 36.2998 98.89 37.8586 98.89 39.7998C98.89 41.741 100.449 43.2998 102.39 43.2998C104.331 43.2998 105.89 41.741 105.89 39.7998C105.89 37.8586 104.331 36.2998 102.39 36.2998Z" fill="white" stroke="#AAB2C5" stroke-width="2"/>
</svg>
