<svg width="155" height="155" viewBox="0 0 155 155" fill="none" xmlns="http://www.w3.org/2000/svg">
<path d="M80.9487 130.977C106.195 130.977 126.662 110.51 126.662 85.1735C126.662 59.8374 106.105 39.3701 80.9487 39.3701C55.7028 39.3701 35.2355 59.8374 35.2355 85.1735C35.2355 110.51 55.7028 130.977 80.9487 130.977Z" fill="#EAEEF9"/>
<path d="M129.502 114.726C131.544 114.726 133.199 113.071 133.199 111.03C133.199 108.988 131.544 107.333 129.502 107.333C127.461 107.333 125.805 108.988 125.805 111.03C125.805 113.071 127.461 114.726 129.502 114.726Z" fill="#EAEEF9"/>
<path d="M134.912 100.3C136.306 100.3 137.437 99.1699 137.437 97.7756C137.437 96.3813 136.306 95.251 134.912 95.251C133.518 95.251 132.387 96.3813 132.387 97.7756C132.387 99.1699 133.518 100.3 134.912 100.3Z" fill="#EAEEF9"/>
<path d="M37.67 55.059C39.0643 55.059 40.1946 53.9287 40.1946 52.5344C40.1946 51.1401 39.0643 50.0098 37.67 50.0098C36.2757 50.0098 35.1454 51.1401 35.1454 52.5344C35.1454 53.9287 36.2757 55.059 37.67 55.059Z" fill="#EAEEF9"/>
<path d="M22.2519 103.747C24.8413 103.747 26.9404 101.648 26.9404 99.0587C26.9404 96.4692 24.8413 94.3701 22.2519 94.3701C19.6625 94.3701 17.5634 96.4692 17.5634 99.0587C17.5634 101.648 19.6625 103.747 22.2519 103.747Z" fill="#EAEEF9"/>
<path d="M86.6844 101.78H76.5254C74.1715 101.78 72.1893 103.952 72.1893 106.53V112.095C72.1893 117.795 76.4015 122.409 81.6049 122.409C86.8083 122.409 91.0205 117.795 91.0205 112.095V106.53C91.0205 103.816 89.0383 101.78 86.6844 101.78Z" fill="white"/>
<g filter="url(#filter0_d_395_2961)">
<path fill-rule="evenodd" clip-rule="evenodd" d="M75.6238 48.462V47.5135C75.6238 44.6649 77.8538 42.4355 80.7032 42.4355C83.5527 42.4355 85.7827 44.6649 85.7827 47.5135V48.462C95.723 50.7613 103.127 59.6636 103.127 70.3022V73.1508C103.127 97.178 121.215 112.907 121.215 112.907H40.0674C40.0674 112.907 58.2792 97.178 58.2792 73.1508V70.3022C58.2792 59.6636 65.6834 50.7613 75.6238 48.462Z" fill="url(#paint0_linear_395_2961)"/>
</g>
<path d="M71.2876 82.935C68.1903 82.935 65.5887 80.9534 64.5975 78.1048C64.3498 77.4856 64.7214 76.8663 65.3409 76.6186C65.9603 76.3709 66.5798 76.7425 66.8276 77.3617C67.447 79.2195 69.3053 80.5819 71.2876 80.5819C73.2698 80.5819 75.1282 79.3433 75.7476 77.3617C75.9954 76.7425 76.6148 76.3709 77.2343 76.6186C77.8537 76.8663 78.2254 77.4856 77.9776 78.1048C76.9865 81.0773 74.3848 82.935 71.2876 82.935Z" fill="#ADB6C8"/>
<path d="M89.9949 82.935C86.8976 82.935 84.2959 80.9534 83.3048 78.1048C83.057 77.4856 83.4287 76.8663 84.0482 76.6186C84.6676 76.3709 85.287 76.7425 85.5348 77.3617C86.1543 79.2195 88.0126 80.5819 89.9949 80.5819C91.9771 80.5819 93.8354 79.3433 94.4549 77.3617C94.7027 76.7425 95.3221 76.3709 95.9416 76.6186C96.561 76.8663 96.9327 77.4856 96.6849 78.1048C95.6938 81.0773 93.0921 82.935 89.9949 82.935Z" fill="#ADB6C8"/>
<path d="M80.7033 98.0995C82.277 98.0995 83.5528 96.8242 83.5528 95.2509C83.5528 93.6777 82.277 92.4023 80.7033 92.4023C79.1296 92.4023 77.8539 93.6777 77.8539 95.2509C77.8539 96.8242 79.1296 98.0995 80.7033 98.0995Z" fill="#ADB6C8"/>
<path d="M95.9718 28.2158V24.0234H112.174V28.2158L101.118 41.555H112.365V45.7474H95.3999V41.555L106.456 28.2158H95.9718Z" fill="url(#paint1_linear_395_2961)"/>
<path d="M109.315 59.6581V56.9902H119.799V59.6581L112.746 68.2333H119.99V70.9012H108.934V68.2333L115.987 59.6581H109.315Z" fill="url(#paint2_linear_395_2961)"/>
<defs>
<filter id="filter0_d_395_2961" x="20.2313" y="32.5175" width="120.82" height="110.144" filterUnits="userSpaceOnUse" color-interpolation-filters="sRGB">
<feFlood flood-opacity="0" result="BackgroundImageFix"/>
<feColorMatrix in="SourceAlpha" type="matrix" values="0 0 0 0 0 0 0 0 0 0 0 0 0 0 0 0 0 0 127 0" result="hardAlpha"/>
<feOffset dy="9.91806"/>
<feGaussianBlur stdDeviation="9.91806"/>
<feColorMatrix type="matrix" values="0 0 0 0 0.397708 0 0 0 0 0.47749 0 0 0 0 0.575 0 0 0 0.27 0"/>
<feBlend mode="normal" in2="BackgroundImageFix" result="effect1_dropShadow_395_2961"/>
<feBlend mode="normal" in="SourceGraphic" in2="effect1_dropShadow_395_2961" result="shape"/>
</filter>
<linearGradient id="paint0_linear_395_2961" x1="80.6148" y1="40.8055" x2="80.6148" y2="113.667" gradientUnits="userSpaceOnUse">
<stop stop-color="#FDFEFF"/>
<stop offset="0.9964" stop-color="#ECF0F5"/>
</linearGradient>
<linearGradient id="paint1_linear_395_2961" x1="103.884" y1="24.7781" x2="103.884" y2="36.9715" gradientUnits="userSpaceOnUse">
<stop stop-color="#B0BACC"/>
<stop offset="1" stop-color="#969EAE"/>
</linearGradient>
<linearGradient id="paint2_linear_395_2961" x1="114.463" y1="57.4735" x2="114.463" y2="65.2815" gradientUnits="userSpaceOnUse">
<stop stop-color="#B0BACC"/>
<stop offset="1" stop-color="#969EAE"/>
</linearGradient>
</defs>
</svg>
