<svg width="127" height="122" viewBox="0 0 127 122" fill="none" xmlns="http://www.w3.org/2000/svg">
<path d="M122.35 69.5002C122.35 83.7002 116.55 96.5002 107.25 105.7C98.15 114.8 85.55 120.3 71.65 120.3C57.85 120.3 45.25 114.7 36.05 105.7C26.75 96.5002 20.95 83.7002 20.95 69.5002C20.95 41.4002 43.65 18.7002 71.65 18.7002C99.65 18.7002 122.35 41.5002 122.35 69.5002Z" fill="#F1F3F9" stroke="#D6DCE8" stroke-width="2" stroke-miterlimit="10"/>
<path d="M64.6191 23.9111L60.8583 37.1763L69.8607 43.4155L69.2277 58.6571L80.5905 37.8034L75.3126 33.5867L81.3488 23.9111H88.125L108.625 46.2111L109.425 110.611C109.425 112.811 107.625 114.511 105.425 114.511H42.625C40.4249 114.511 38.6249 112.711 38.6249 110.611V27.8112C38.6249 25.6111 40.4249 23.9111 42.625 23.9111H64.6191Z" fill="white" stroke="#D6DCE8" stroke-width="2" stroke-miterlimit="10" stroke-linejoin="round"/>
<path d="M117.95 36.2C120.214 36.2 122.05 34.3644 122.05 32.1C122.05 29.8356 120.214 28 117.95 28C115.686 28 113.85 29.8356 113.85 32.1C113.85 34.3644 115.686 36.2 117.95 36.2Z" fill="#F1F3F9"/>
<path d="M123.95 20.2001C125.496 20.2001 126.75 18.9465 126.75 17.4001C126.75 15.8537 125.496 14.6001 123.95 14.6001C122.404 14.6001 121.15 15.8537 121.15 17.4001C121.15 18.9465 122.404 20.2001 123.95 20.2001Z" fill="#F1F3F9"/>
<path d="M22.55 36.1C24.0964 36.1 25.35 34.8464 25.35 33.3C25.35 31.7536 24.0964 30.5 22.55 30.5C21.0036 30.5 19.75 31.7536 19.75 33.3C19.75 34.8464 21.0036 36.1 22.55 36.1Z" fill="#F1F3F9"/>
<path d="M5.45 90.1002C8.32188 90.1002 10.65 87.7721 10.65 84.9002C10.65 82.0283 8.32188 79.7002 5.45 79.7002C2.57812 79.7002 0.25 82.0283 0.25 84.9002C0.25 87.7721 2.57812 90.1002 5.45 90.1002Z" fill="#F1F3F9"/>
<path d="M60.4792 37.411H48.3792C47.6792 37.411 47.0792 36.811 47.0792 36.111C47.0792 35.411 47.6792 34.811 48.3792 34.811H60.4792C61.1792 34.811 61.7792 35.411 61.7792 36.111C61.7792 36.811 61.1792 37.411 60.4792 37.411Z" fill="#D6DCE8"/>
<path d="M59.9792 44.6107H48.3792C47.6792 44.6107 47.0792 44.0107 47.0792 43.3107C47.0792 42.6107 47.6792 42.0107 48.3792 42.0107H59.8792C60.5792 42.0107 61.1792 42.6107 61.1792 43.3107C61.1792 44.0107 60.5792 44.6107 59.9792 44.6107Z" fill="#D6DCE8"/>
<path d="M87.2793 23.9109V41.7109C87.2793 44.2109 89.4793 46.2109 91.9793 46.2109H107.779" fill="#D6DCE8"/>
<path d="M61.23 17.9659L57.4484 12.2734" stroke="#A2ABBE" stroke-width="2"/>
<path d="M71.315 15.1195L71.7593 0.699951" stroke="#A2ABBE" stroke-width="2"/>
<path d="M80.3569 18.0999L86.3936 4.99731" stroke="#A2ABBE" stroke-width="2"/>
<path d="M59.8212 90.079C59.4011 90.079 59.0651 89.911 58.729 89.659C58.1409 89.0709 58.1409 88.0627 58.729 87.4746C62.5936 83.6941 67.7184 81.5938 73.1792 81.5938C78.6401 81.5938 83.7648 83.6941 87.6294 87.4746C88.2175 88.0627 88.2175 89.0709 87.6294 89.659C87.0413 90.2471 86.0332 90.2471 85.4451 89.659C82.1686 86.3825 77.7999 84.6182 73.1792 84.6182C68.5585 84.6182 64.1899 86.3825 60.9134 89.659C60.5773 89.911 60.2413 90.079 59.8212 90.079Z" fill="#AAB2C5"/>
<path d="M65.114 67.5636L67.1303 65.5473C67.7184 64.9592 67.7184 63.951 67.1303 63.3629C66.5422 62.7749 65.5341 62.7749 64.946 63.3629L62.9297 65.3792L60.9134 63.3629C60.3253 62.7749 59.3171 62.7749 58.729 63.3629C58.1409 63.951 58.1409 64.9592 58.729 65.5473L60.7453 67.5636L58.729 69.5799C58.1409 70.168 58.1409 71.1761 58.729 71.7642C59.0651 72.1003 59.4011 72.1843 59.8212 72.1843C60.2413 72.1843 60.5773 72.0163 60.9134 71.7642L62.9297 69.7479L64.946 71.7642C65.282 72.1003 65.6181 72.1843 66.0381 72.1843C66.4582 72.1843 66.7943 72.0163 67.1303 71.7642C67.7184 71.1761 67.7184 70.168 67.1303 69.5799L65.114 67.5636Z" fill="#AAB2C5"/>
<path d="M85.5292 67.5636L87.5455 65.5473C88.1336 64.9592 88.1336 63.951 87.5455 63.3629C86.9574 62.7749 85.9492 62.7749 85.3611 63.3629L83.3448 65.3792L81.3285 63.3629C80.7404 62.7749 79.7323 62.7749 79.1442 63.3629C78.5561 63.951 78.5561 64.9592 79.1442 65.5473L81.1605 67.5636L79.1442 69.5799C78.5561 70.168 78.5561 71.1761 79.1442 71.7642C79.4802 72.1003 79.8163 72.1843 80.2364 72.1843C80.6564 72.1843 80.9925 72.0163 81.3285 71.7642L83.3448 69.7479L85.3611 71.7642C85.6972 72.1003 86.0332 72.1843 86.4533 72.1843C86.8734 72.1843 87.2094 72.0163 87.5455 71.7642C88.1336 71.1761 88.1336 70.168 87.5455 69.5799L85.5292 67.5636Z" fill="#AAB2C5"/>
</svg>
