<svg width="119" height="125" viewBox="0 0 119 125" fill="none" xmlns="http://www.w3.org/2000/svg">
<path d="M104.36 46.6038C106.472 46.6038 108.184 44.8899 108.184 42.7758C108.184 40.6616 106.472 38.9478 104.36 38.9478C102.247 38.9478 100.535 40.6616 100.535 42.7758C100.535 44.8899 102.247 46.6038 104.36 46.6038Z" fill="#EAEEF9"/>
<path d="M2.76618 67.3049C4.15582 67.3049 5.28235 66.1774 5.28235 64.7865C5.28235 63.3956 4.15582 62.2681 2.76618 62.2681C1.37653 62.2681 0.25 63.3956 0.25 64.7865C0.25 66.1774 1.37653 67.3049 2.76618 67.3049Z" fill="#EAEEF9"/>
<path d="M14.3326 112.581C15.7222 112.581 16.8488 111.454 16.8488 110.063C16.8488 108.672 15.7222 107.544 14.3326 107.544C12.9429 107.544 11.8164 108.672 11.8164 110.063C11.8164 111.454 12.9429 112.581 14.3326 112.581Z" fill="#EAEEF9"/>
<path d="M27.7822 112.582L63.0912 101.518V56.1562L27.7822 67.135V112.582Z" fill="#F1F3F9" stroke="#D6DCE8" stroke-width="2" stroke-miterlimit="10" stroke-linejoin="round"/>
<path d="M98.4003 112.582L63.0913 101.518V56.1562L98.4003 67.135V112.582Z" fill="#F1F3F9" stroke="#D6DCE8" stroke-width="2" stroke-miterlimit="10" stroke-linejoin="round"/>
<path d="M63.0912 123.73L27.7822 112.666V67.3047L63.0912 78.3685V123.73Z" fill="white" stroke="#D6DCE8" stroke-width="2" stroke-miterlimit="10" stroke-linejoin="round"/>
<path d="M63.0913 123.73L98.4003 112.666V67.3047L63.0913 78.3685V123.73Z" fill="white" stroke="#D6DCE8" stroke-width="2" stroke-miterlimit="10" stroke-linejoin="round"/>
<path d="M63.0913 56.156L46.4902 43.7305L10.5913 55.8156L27.7823 67.1347L63.0913 56.156Z" fill="#F1F3F9" stroke="#D6DCE8" stroke-width="2" stroke-miterlimit="10" stroke-linejoin="round"/>
<path d="M63.0913 56.156L79.6924 43.7305L115.591 55.8156L98.4003 67.1347L63.0913 56.156Z" fill="#F1F3F9" stroke="#D6DCE8" stroke-width="2" stroke-miterlimit="10" stroke-linejoin="round"/>
<path d="M27.7823 67.3047L63.0913 78.3685L45.479 89.6026L10.5913 78.0281L27.7823 67.3047Z" fill="#F1F3F9" stroke="#D6DCE8" stroke-width="2" stroke-miterlimit="10" stroke-linejoin="round"/>
<path d="M98.4003 67.3047L63.0913 78.3685L80.7037 89.6026L115.591 78.0281L98.4003 67.3047Z" fill="#F1F3F9" stroke="#D6DCE8" stroke-width="2" stroke-miterlimit="10" stroke-linejoin="round"/>
<path d="M72.9428 12.607C77.8894 26.0315 79.3638 29.0143 79.8477 42.2422C79.6616 45.2617 79.5462 48.545 78.1227 51.1889C76.2215 55.2334 71.5715 58.0343 67.1782 58.0797C62.6522 58.1606 58.2151 55.3895 56.218 51.1163C54.8129 48.523 54.8576 44.9758 56.785 42.6212C58.8803 40.3631 62.5665 39.8 65.2182 41.211C68.1351 42.5509 69.8761 45.3371 70.521 48.2755C71.1658 51.2138 70.8825 54.4007 70.0954 57.2984C68.4491 64.3459 67.0856 64.6868 63.0483 76.6186" stroke="#C9D4E2" stroke-width="2" stroke-miterlimit="10" stroke-dasharray="4 4"/>
<path d="M78.9632 5.50156C78.9517 7.47553 77.1148 8.68423 74.7852 8.05393C72.3325 7.63582 70.5965 7.2049 70.4848 5.4431C70.541 3.63631 72.5123 2.92916 74.8197 2.13201C77.5863 1.03269 78.8067 3.57258 78.9632 5.50156Z" fill="#F1F3F9" stroke="#D6DCE8" stroke-width="2" stroke-miterlimit="10" stroke-linejoin="round"/>
<path d="M63.1139 11.5379C64.357 12.8176 66.9777 13.1907 68.2548 11.2361C69.6551 9.0693 70.8538 7.49406 69.566 6.04725C68.3229 4.76761 67.1132 5.62913 64.3466 6.72845C62.1289 7.85996 61.6581 10.1361 63.1139 11.5379Z" fill="#F1F3F9" stroke="#D6DCE8" stroke-width="2" stroke-miterlimit="10" stroke-linejoin="round"/>
<path d="M68.8496 3.37235C69.9809 2.89019 71.336 3.24392 71.9407 4.15701C72.1983 4.44637 72.5006 4.90292 72.5902 5.23728C73.553 7.48781 73.2503 9.71896 71.951 10.2461C70.5285 10.9855 68.5687 9.71863 67.8186 7.59029C67.6395 6.92157 67.5499 6.58721 67.4156 6.08567C67.2702 4.87041 67.7183 3.85452 68.8496 3.37235C69.0176 3.32735 68.8496 3.37235 68.8496 3.37235Z" fill="#F1F3F9"/>
<path d="M68.8496 3.37235C69.9809 2.89019 71.336 3.24392 71.9407 4.15701C72.1983 4.44637 72.5006 4.90292 72.5902 5.23728C73.553 7.48781 73.2503 9.71896 71.951 10.2461C70.5285 10.9855 68.5687 9.71863 67.8186 7.59029C67.6395 6.92157 67.5499 6.58721 67.4156 6.08567C67.2702 4.87041 67.7183 3.85452 68.8496 3.37235ZM68.8496 3.37235C68.8496 3.37235 69.0176 3.32735 68.8496 3.37235Z" stroke="#D6DCE8" stroke-width="2" stroke-miterlimit="10" stroke-linejoin="round"/>
<path d="M16.8486 39.6007H14.6585V37.4106H12.7814V39.6007H10.5913V41.5404H12.7814V43.7305H14.6585V41.5404H16.8486V39.6007Z" fill="#AAB2C5"/>
<path d="M21.6594 94.5475H19.4693V92.3574H17.5921V94.5475H15.4021V96.4872H17.5921V98.6773H19.4693V96.4872H21.6594V94.5475Z" fill="#AAB2C5"/>
<path d="M117.397 94.6718L114.718 93.319L116.071 90.6394L113.774 89.4798L112.421 92.1594L109.741 90.8065L108.543 93.1798L111.223 94.5327L109.87 97.2122L112.167 98.3718L113.519 95.6923L116.199 97.0452L117.397 94.6718Z" fill="#AAB2C5"/>
</svg>
