<svg width="129" height="147" viewBox="0 0 129 147" fill="none" xmlns="http://www.w3.org/2000/svg">
<path d="M64.35 116.25C94.05 116.25 118.25 92.15 118.25 62.55C118.15 32.85 94.05 8.75 64.35 8.75C34.55 8.75 10.45 32.85 10.45 62.45C10.45 92.15 34.55 116.25 64.35 116.25Z" fill="#EAEEF9"/>
<path d="M119.55 43.7498C121.814 43.7498 123.65 41.9142 123.65 39.6498C123.65 37.3854 121.814 35.5498 119.55 35.5498C117.286 35.5498 115.45 37.3854 115.45 39.6498C115.45 41.9142 117.286 43.7498 119.55 43.7498Z" fill="#EAEEF9"/>
<path d="M125.55 27.7504C127.096 27.7504 128.35 26.4968 128.35 24.9504C128.35 23.404 127.096 22.1504 125.55 22.1504C124.004 22.1504 122.75 23.404 122.75 24.9504C122.75 26.4968 124.004 27.7504 125.55 27.7504Z" fill="#EAEEF9"/>
<path d="M5.8499 98.5504C8.72178 98.5504 11.0499 96.2223 11.0499 93.3504C11.0499 90.4785 8.72178 88.1504 5.8499 88.1504C2.97802 88.1504 0.649902 90.4785 0.649902 93.3504C0.649902 96.2223 2.97802 98.5504 5.8499 98.5504Z" fill="#EAEEF9"/>
<g filter="url(#filter0_d_1544_2572)">
<path d="M102.161 39.9193V105.051C102.161 109.796 98.3976 113.56 93.6518 113.56H35.0665C30.3207 113.56 26.5569 109.796 26.5569 105.051V19.7909C26.5569 15.0451 30.3207 11.2812 35.0665 11.2812H73.687C75.8144 11.2812 77.7782 12.0995 79.251 13.5723L99.8704 34.1917C101.343 35.8282 102.161 37.7919 102.161 39.9193Z" fill="url(#paint0_linear_1544_2572)"/>
</g>
<g filter="url(#filter1_d_1544_2572)">
<path d="M77.5681 12.29V30.2299C77.5681 33.7007 80.5072 36.4773 83.8471 36.4773H101.397C101.019 35.6633 100.505 34.897 99.8704 34.1915L79.251 13.572C78.7438 13.0649 78.1784 12.6353 77.5681 12.29Z" fill="#D5DDEA"/>
</g>
<path d="M51.8368 95.8239H38.1902C37.681 95.8239 37.2737 95.2826 37.2737 94.6331C37.2737 93.9836 37.681 93.4424 38.1902 93.4424H51.8368C52.346 93.4424 52.7533 93.9836 52.7533 94.6331C52.7533 95.3909 52.346 95.8239 51.8368 95.8239Z" fill="#D5DDEA"/>
<path d="M69.289 29.1422H38.5992C37.8854 29.1422 37.2737 28.5927 37.2737 27.9515C37.2737 27.3103 37.8854 26.7607 38.5992 26.7607H69.289C70.0027 26.7607 70.6145 27.3103 70.6145 27.9515C70.6145 28.5927 70.0027 29.1422 69.289 29.1422Z" fill="#D6DCE8"/>
<path d="M50.3465 36.2868H38.5911C37.8817 36.2868 37.2737 35.7372 37.2737 35.096C37.2737 34.4548 37.8817 33.9053 38.5911 33.9053H50.2452C50.9545 33.9053 51.5626 34.4548 51.5626 35.096C51.5626 35.7372 50.9545 36.2868 50.3465 36.2868Z" fill="#D6DCE8"/>
<path d="M91.0857 77.9629H55.2994H51.3552H39.4264C38.9454 77.9629 38.4644 78.459 38.4644 79.1536C38.4644 79.749 38.8492 80.3444 39.4264 80.3444H51.3552H55.2994H91.0857C91.5667 80.3444 92.0477 79.8482 92.0477 79.1536C91.9515 78.459 91.5667 77.9629 91.0857 77.9629Z" fill="#D6DCE8"/>
<path d="M91.084 69.627H77.7845H73.255H39.4281C38.9462 69.627 38.4644 70.1231 38.4644 70.8177C38.4644 71.4131 38.8498 72.0084 39.4281 72.0084H73.255H77.7845H91.084C91.5659 72.0084 92.0477 71.5123 92.0477 70.8177C91.9514 70.1231 91.5659 69.627 91.084 69.627Z" fill="#D6DCE8"/>
<path d="M91.1713 61.292H87.7151H84.2589H39.4244C38.9444 61.292 38.4644 61.7881 38.4644 62.4827C38.4644 63.0781 38.8484 63.6735 39.4244 63.6735H84.2589H88.0992H91.0753C91.5554 63.6735 92.0354 63.1773 92.0354 62.4827C92.1314 61.8874 91.6514 61.292 91.1713 61.292Z" fill="#D6DCE8"/>
<path d="M91.096 52.957H79.9605H77.2005H39.4161C38.9402 52.957 38.4644 53.4532 38.4644 54.1478C38.4644 54.7431 38.8451 55.3385 39.4161 55.3385H77.2005H79.9605H91.0008C91.667 55.3385 92.0477 54.8424 92.0477 54.1478C92.0477 53.5524 91.667 52.957 91.096 52.957Z" fill="#D6DCE8"/>
<path d="M91.6975 113.75C103.321 113.75 112.743 104.328 112.743 92.7046C112.743 81.0815 103.321 71.6592 91.6975 71.6592C80.0744 71.6592 70.6521 81.0815 70.6521 92.7046C70.6521 104.328 80.0744 113.75 91.6975 113.75Z" fill="url(#paint1_linear_1544_2572)"/>
<path d="M92.9765 84.2607L98.2475 89.8573C98.8677 90.5157 98.8677 91.668 98.2475 92.3264C97.6274 92.9848 96.5422 92.9848 95.8446 92.3264L93.4416 89.8573V98.9106C93.4416 99.8983 92.6664 100.721 91.7363 100.721C90.8061 100.721 90.0309 99.8983 90.0309 98.9106V89.8573L87.628 92.3264C87.0078 92.9848 85.9226 92.9848 85.225 92.3264C84.8374 91.9149 84.6824 91.5034 84.6824 91.0919C84.6824 90.6803 84.8374 90.1042 85.225 89.8573L90.496 84.2607C90.7286 84.0138 91.2712 83.6846 91.6587 83.6846C92.0463 83.6846 92.744 83.8492 92.9765 84.2607Z" fill="white"/>
<defs>
<filter id="filter0_d_1544_2572" x="4.55688" y="0.28125" width="119.604" height="146.279" filterUnits="userSpaceOnUse" color-interpolation-filters="sRGB">
<feFlood flood-opacity="0" result="BackgroundImageFix"/>
<feColorMatrix in="SourceAlpha" type="matrix" values="0 0 0 0 0 0 0 0 0 0 0 0 0 0 0 0 0 0 127 0" result="hardAlpha"/>
<feOffset dy="11"/>
<feGaussianBlur stdDeviation="11"/>
<feColorMatrix type="matrix" values="0 0 0 0 0.397708 0 0 0 0 0.47749 0 0 0 0 0.575 0 0 0 0.27 0"/>
<feBlend mode="normal" in2="BackgroundImageFix" result="effect1_dropShadow_1544_2572"/>
<feBlend mode="normal" in="SourceGraphic" in2="effect1_dropShadow_1544_2572" result="shape"/>
</filter>
<filter id="filter1_d_1544_2572" x="55.5681" y="1.29004" width="67.8291" height="68.1875" filterUnits="userSpaceOnUse" color-interpolation-filters="sRGB">
<feFlood flood-opacity="0" result="BackgroundImageFix"/>
<feColorMatrix in="SourceAlpha" type="matrix" values="0 0 0 0 0 0 0 0 0 0 0 0 0 0 0 0 0 0 127 0" result="hardAlpha"/>
<feOffset dy="11"/>
<feGaussianBlur stdDeviation="11"/>
<feColorMatrix type="matrix" values="0 0 0 0 0.397708 0 0 0 0 0.47749 0 0 0 0 0.575 0 0 0 0.27 0"/>
<feBlend mode="normal" in2="BackgroundImageFix" result="effect1_dropShadow_1544_2572"/>
<feBlend mode="normal" in="SourceGraphic" in2="effect1_dropShadow_1544_2572" result="shape"/>
</filter>
<linearGradient id="paint0_linear_1544_2572" x1="64.3345" y1="8.91544" x2="64.3345" y2="114.663" gradientUnits="userSpaceOnUse">
<stop stop-color="#FDFEFF"/>
<stop offset="0.9964" stop-color="#ECF0F5"/>
</linearGradient>
<linearGradient id="paint1_linear_1544_2572" x1="70.6328" y1="92.7091" x2="112.751" y2="92.7091" gradientUnits="userSpaceOnUse">
<stop stop-color="#B0BACC"/>
<stop offset="1" stop-color="#969EAE"/>
</linearGradient>
</defs>
</svg>
