<svg width="24" height="25" viewBox="0 0 24 25" fill="none" xmlns="http://www.w3.org/2000/svg">
<path d="M14.0497 6.03516C15.0264 6.22572 15.924 6.70341 16.6277 7.40709C17.3314 8.11077 17.8091 9.00842 17.9997 9.98516M14.0497 2.03516C16.0789 2.26059 17.9713 3.16933 19.4159 4.61216C20.8606 6.055 21.7717 7.94617 21.9997 9.97516M10.2266 13.8982C9.02506 12.6966 8.07627 11.338 7.38028 9.88839C7.32041 9.7637 7.29048 9.70135 7.26748 9.62246C7.18576 9.34211 7.24446 8.99785 7.41447 8.76042C7.46231 8.69361 7.51947 8.63645 7.63378 8.52214C7.98338 8.17253 8.15819 7.99773 8.27247 7.82195C8.70347 7.15906 8.70347 6.30448 8.27247 5.64159C8.15819 5.46581 7.98338 5.29101 7.63378 4.9414L7.43891 4.74653C6.90747 4.21509 6.64174 3.94937 6.35636 3.80502C5.7888 3.51795 5.11854 3.51795 4.55098 3.80502C4.2656 3.94937 3.99987 4.21509 3.46843 4.74653L3.3108 4.90417C2.78117 5.43379 2.51636 5.6986 2.31411 6.05863C2.08969 6.45814 1.92833 7.07863 1.9297 7.53685C1.93092 7.9498 2.01103 8.23202 2.17124 8.79647C3.03221 11.8299 4.65668 14.6922 7.04466 17.0802C9.43264 19.4682 12.295 21.0927 15.3284 21.9536C15.8928 22.1138 16.1751 22.1939 16.588 22.1952C17.0462 22.1965 17.6667 22.0352 18.0662 21.8108C18.4263 21.6085 18.6911 21.3437 19.2207 20.8141L19.3783 20.6564C19.9098 20.125 20.1755 19.8593 20.3198 19.5739C20.6069 19.0063 20.6069 18.3361 20.3198 17.7685C20.1755 17.4831 19.9098 17.2174 19.3783 16.686L19.1835 16.4911C18.8339 16.1415 18.6591 15.9667 18.4833 15.8524C17.8204 15.4214 16.9658 15.4214 16.3029 15.8524C16.1271 15.9667 15.9523 16.1415 15.6027 16.4911C15.4884 16.6054 15.4313 16.6626 15.3644 16.7104C15.127 16.8804 14.7828 16.9391 14.5024 16.8574C14.4235 16.8344 14.3612 16.8045 14.2365 16.7446C12.7869 16.0486 11.4282 15.0998 10.2266 13.8982Z" stroke="#B3B3B3" stroke-width="2" stroke-linecap="round" stroke-linejoin="round"/>
</svg>
