<svg width="24" height="24" viewBox="0 0 24 24" fill="none" xmlns="http://www.w3.org/2000/svg">
<g filter="url(#filter0_b_243_1741)">
<rect width="24" height="24" rx="2" fill="white" fill-opacity="0.3"/>
<rect x="0.25" y="0.25" width="23.5" height="23.5" rx="1.75" stroke="#B6A15E" stroke-width="0.5"/>
</g>
<g clip-path="url(#clip0_243_1741)">
<g clip-path="url(#clip1_243_1741)">
<path d="M12.7467 15.3485L9.94733 13.8218C9.58186 14.2125 9.10732 14.4843 8.58538 14.6017C8.06344 14.7192 7.51823 14.677 7.02061 14.4805C6.52299 14.284 6.09597 13.9424 5.79504 13.5001C5.49411 13.0578 5.33319 12.5351 5.33319 12.0001C5.33319 11.4651 5.49411 10.9425 5.79504 10.5002C6.09597 10.0578 6.52299 9.71624 7.02061 9.51978C7.51823 9.32332 8.06344 9.28108 8.58538 9.39855C9.10732 9.51602 9.58186 9.78777 9.94733 10.1785L12.7473 8.65181C12.5884 8.02253 12.6644 7.35687 12.9611 6.77961C13.2578 6.20235 13.7549 5.75313 14.3591 5.51614C14.9633 5.27916 15.6333 5.27068 16.2433 5.4923C16.8534 5.71392 17.3616 6.15042 17.6729 6.71998C17.9841 7.28955 18.0769 7.95307 17.9339 8.58617C17.7909 9.21928 17.422 9.7785 16.8962 10.159C16.3703 10.5395 15.7238 10.7152 15.0777 10.6531C14.4317 10.5911 13.8304 10.2955 13.3867 9.82181L10.5867 11.3485C10.6941 11.776 10.6941 12.2236 10.5867 12.6511L13.386 14.1778C13.8297 13.7041 14.431 13.4086 15.0771 13.3465C15.7231 13.2844 16.3697 13.4601 16.8955 13.8406C17.4213 14.2211 17.7903 14.7803 17.9333 15.4134C18.0763 16.0466 17.9834 16.7101 17.6722 17.2796C17.361 17.8492 16.8527 18.2857 16.2427 18.5073C15.6326 18.7289 14.9627 18.7205 14.3584 18.4835C13.7542 18.2465 13.2571 17.7973 12.9604 17.22C12.6637 16.6428 12.5877 15.9771 12.7467 15.3478V15.3485ZM7.99999 13.3331C8.35362 13.3331 8.69276 13.1927 8.9428 12.9426C9.19285 12.6926 9.33333 12.3534 9.33333 11.9998C9.33333 11.6462 9.19285 11.307 8.9428 11.057C8.69276 10.807 8.35362 10.6665 7.99999 10.6665C7.64637 10.6665 7.30723 10.807 7.05719 11.057C6.80714 11.307 6.66666 11.6462 6.66666 11.9998C6.66666 12.3534 6.80714 12.6926 7.05719 12.9426C7.30723 13.1927 7.64637 13.3331 7.99999 13.3331ZM15.3333 9.33314C15.687 9.33314 16.0261 9.19267 16.2761 8.94262C16.5262 8.69257 16.6667 8.35343 16.6667 7.99981C16.6667 7.64619 16.5262 7.30705 16.2761 7.057C16.0261 6.80695 15.687 6.66648 15.3333 6.66648C14.9797 6.66648 14.6406 6.80695 14.3905 7.057C14.1405 7.30705 14 7.64619 14 7.99981C14 8.35343 14.1405 8.69257 14.3905 8.94262C14.6406 9.19267 14.9797 9.33314 15.3333 9.33314ZM15.3333 17.3331C15.687 17.3331 16.0261 17.1927 16.2761 16.9426C16.5262 16.6926 16.6667 16.3534 16.6667 15.9998C16.6667 15.6462 16.5262 15.307 16.2761 15.057C16.0261 14.807 15.687 14.6665 15.3333 14.6665C14.9797 14.6665 14.6406 14.807 14.3905 15.057C14.1405 15.307 14 15.6462 14 15.9998C14 16.3534 14.1405 16.6926 14.3905 16.9426C14.6406 17.1927 14.9797 17.3331 15.3333 17.3331Z" fill="#B6A15E"/>
</g>
</g>
<defs>
<filter id="filter0_b_243_1741" x="-15" y="-15" width="54" height="54" filterUnits="userSpaceOnUse" color-interpolation-filters="sRGB">
<feFlood flood-opacity="0" result="BackgroundImageFix"/>
<feGaussianBlur in="BackgroundImageFix" stdDeviation="7.5"/>
<feComposite in2="SourceAlpha" operator="in" result="effect1_backgroundBlur_243_1741"/>
<feBlend mode="normal" in="SourceGraphic" in2="effect1_backgroundBlur_243_1741" result="shape"/>
</filter>
<clipPath id="clip0_243_1741">
<rect width="16" height="16" fill="white" transform="translate(4 4)"/>
</clipPath>
<clipPath id="clip1_243_1741">
<rect width="16" height="16" fill="white" transform="translate(4 4)"/>
</clipPath>
</defs>
</svg>
