<svg width="25" height="25" viewBox="0 0 25 25" fill="none" xmlns="http://www.w3.org/2000/svg">
<path d="M9.89513 19.8711L10.4796 21.1856C10.6533 21.5768 10.9369 21.9093 11.2958 22.1426C11.6548 22.3759 12.0737 22.5001 12.5018 22.5C12.9299 22.5001 13.3488 22.3759 13.7078 22.1426C14.0667 21.9093 14.3503 21.5768 14.524 21.1856L15.1085 19.8711C15.3165 19.4047 15.6665 19.0159 16.1085 18.76C16.5533 18.5034 17.0678 18.3941 17.5785 18.4478L19.0085 18.6C19.4341 18.645 19.8637 18.5656 20.2452 18.3713C20.6266 18.1771 20.9435 17.8763 21.1574 17.5056C21.3715 17.135 21.4736 16.7103 21.4511 16.2829C21.4286 15.8555 21.2826 15.4438 21.0307 15.0978L20.184 13.9344C19.8825 13.5171 19.7215 13.0148 19.724 12.5C19.7239 11.9866 19.8865 11.4864 20.1885 11.0711L21.0351 9.90778C21.287 9.56175 21.433 9.15007 21.4555 8.72267C21.478 8.29528 21.376 7.87054 21.1618 7.5C20.9479 7.12923 20.631 6.82849 20.2496 6.63423C19.8682 6.43997 19.4386 6.36053 19.0129 6.40556L17.5829 6.55778C17.0722 6.61141 16.5577 6.50212 16.1129 6.24556C15.67 5.98825 15.32 5.59736 15.1129 5.12889L14.524 3.81444C14.3503 3.42317 14.0667 3.09072 13.7078 2.8574C13.3488 2.62408 12.9299 2.49993 12.5018 2.5C12.0737 2.49993 11.6548 2.62408 11.2958 2.8574C10.9369 3.09072 10.6533 3.42317 10.4796 3.81444L9.89513 5.12889C9.68806 5.59736 9.33801 5.98825 8.89513 6.24556C8.45035 6.50212 7.9358 6.61141 7.42513 6.55778L5.99069 6.40556C5.56502 6.36053 5.13543 6.43997 4.754 6.63423C4.37258 6.82849 4.05571 7.12923 3.8418 7.5C3.62762 7.87054 3.52558 8.29528 3.54807 8.72267C3.57055 9.15007 3.71659 9.56175 3.96847 9.90778L4.81513 11.0711C5.11707 11.4864 5.27967 11.9866 5.27958 12.5C5.27967 13.0134 5.11707 13.5137 4.81513 13.9289L3.96847 15.0922C3.71659 15.4382 3.57055 15.8499 3.54807 16.2773C3.52558 16.7047 3.62762 17.1295 3.8418 17.5C4.05592 17.8706 4.37283 18.1712 4.7542 18.3654C5.13557 18.5596 5.56505 18.6392 5.99069 18.5944L7.42069 18.4422C7.93136 18.3886 8.4459 18.4979 8.89069 18.7544C9.33522 19.011 9.6869 19.402 9.89513 19.8711Z" stroke="#9E9E9E" stroke-width="2" stroke-linecap="round" stroke-linejoin="round"/>
<path d="M12.5 15.5C14.1569 15.5 15.5 14.1569 15.5 12.5C15.5 10.8431 14.1569 9.5 12.5 9.5C10.8432 9.5 9.50001 10.8431 9.50001 12.5C9.50001 14.1569 10.8432 15.5 12.5 15.5Z" stroke="#9E9E9E" stroke-width="2" stroke-linecap="round" stroke-linejoin="round"/>
</svg>
