<svg width="60" height="53" viewBox="0 0 60 53" fill="none" xmlns="http://www.w3.org/2000/svg">
<path d="M57.0702 9.66654L56.9637 9.81049C56.9431 9.83786 56.9152 9.85935 56.8829 9.87269C56.8507 9.88602 56.8152 9.8907 56.7804 9.88623C56.7456 9.88176 56.7127 9.8683 56.6852 9.84729C56.6577 9.82628 56.6366 9.79849 56.6241 9.76687L56.1917 8.65452C56.176 8.61174 56.145 8.57578 56.1042 8.55314C56.0634 8.53051 56.0155 8.52271 55.9692 8.53115C55.923 8.53958 55.8814 8.56371 55.852 8.59914C55.8226 8.63458 55.8074 8.67899 55.809 8.72432C55.8241 9.41353 55.8128 10.1355 55.7751 10.8901C55.2905 20.5973 54.7841 30.3031 54.2558 40.0074C54.1773 41.4266 54.0717 42.4633 53.9388 43.1176" stroke="#B6A15E" stroke-width="2"/>
<path d="M53.9389 43.1176C53.4045 45.1663 52.2838 46.8755 50.5766 48.2453" stroke="#B6A15E" stroke-width="2"/>
<path d="M50.5766 48.2453C47.5336 50.5049 45.12 50.265 40.8543 50.0927C30.0302 49.6535 19.203 49.197 8.3728 48.723" stroke="#5F4C65" stroke-width="2"/>
<path d="M55.6347 43.8329C55.2558 43.878 54.8951 43.721 54.5524 43.3618C54.5041 43.3109 54.446 43.2746 54.3781 43.2528L53.9388 43.1176" stroke="#B6A15E" stroke-width="2"/>
<path d="M52.5215 49.0828C51.8083 48.7818 51.3079 48.459 50.5766 48.2453" stroke="#2A1B2B" stroke-width="2"/>
<path d="M8.18038 6.62177C6.90566 7.76246 6.84226 9.52695 6.70641 11.0624C5.85811 20.6068 5.01132 30.1504 4.16604 39.6933C3.96906 41.9355 5.00151 43.5037 6.73811 44.8952C6.76414 44.9158 6.79699 44.9267 6.83065 44.9258C6.86432 44.925 6.89657 44.9126 6.92151 44.8908C6.94868 44.8676 6.96755 44.8356 6.97812 44.7949" stroke="#B6A15E" stroke-width="2"/>
<path d="M6.97809 44.7948C7.6196 45.3968 8.20375 45.7101 8.73054 45.7348C12.9253 45.9239 17.1962 46.0889 21.5434 46.2299" stroke="#B6A15E" stroke-width="2"/>
<path d="M21.5434 46.23L34.8589 46.7513" stroke="#B6A15E" stroke-width="2"/>
<path d="M34.8589 46.7513C36.9283 46.8589 38.9434 46.9446 40.9042 47.0086C43.5502 47.0959 45.0581 47.1177 45.4279 47.0741C48.72 46.6945 50.8393 44.2627 51.0204 41.0194C51.6196 30.2769 52.2008 19.594 52.7638 8.97076" stroke="#B6A15E" stroke-width="2"/>
<path d="M52.7638 8.97076L52.0755 6.93146" stroke="#B6A15E" stroke-width="2"/>
<path d="M52.0755 6.93147L51.6906 6.42328" stroke="#B6A15E" stroke-width="2"/>
<path d="M51.6905 6.42326C50.16 4.61951 48.5683 4.25091 46.0506 4.25091C35.4483 4.24801 24.8475 4.27127 14.2483 4.32071C11.5336 4.33379 9.73357 4.60643 8.18036 6.62174" stroke="#5F4C65" stroke-width="2"/>
<path d="M51.6906 6.42324C51.6619 6.42906 51.6347 6.43269 51.6091 6.43415C51.5487 6.43851 51.4981 6.41888 51.4574 6.37526C50.5638 5.42722 49.5434 4.95538 48.3962 4.95975C37.0619 5.00918 27.2838 5.02663 19.0619 5.01209C17.6759 5.01088 16.0981 5.0343 14.3593 5.08189C11.5834 5.15822 8.75549 6.65007 7.76605 9.28263" stroke="#454445" stroke-width="2"/>
<path d="M7.76602 9.28267L7.47394 9.30012C7.37734 9.30593 7.33432 9.26231 7.34489 9.16925C7.443 8.32736 7.72149 7.4782 8.18036 6.62177" stroke="#2A1B2B" stroke-width="2"/>
<path d="M52.0754 6.93148C52.0256 7.04198 51.9147 6.99618 51.7426 6.79407C51.6324 6.66611 51.5237 6.60214 51.4166 6.60214C51.3441 6.60068 51.2762 6.58396 51.2128 6.55197C50.5087 6.18337 49.9177 5.68827 49.0709 5.67082C46.0098 5.60975 42.2219 5.66427 39.8921 5.65991C31.3079 5.63956 22.7237 5.64174 14.1396 5.66646C13.5894 5.66864 13.1864 5.91073 12.6679 6.06123C11.803 6.30769 11.2687 6.71555 10.5804 7.1932C10.2634 7.41349 10.1139 7.75592 9.76526 7.9893C9.7079 8.02856 9.67394 8.0809 9.66337 8.14633C9.63016 8.34408 9.52979 8.49021 9.36224 8.58473C9.29583 8.62108 9.25205 8.67561 9.23092 8.74831C9.07847 9.26304 8.83696 9.73488 8.50639 10.1638C8.11696 10.6698 8.38639 11.4027 8.30941 11.9697C8.30035 12.0381 8.26715 12.0926 8.20979 12.1333C8.07998 12.2293 8.03922 12.3667 8.08752 12.5456C8.11168 12.6372 8.09809 12.7091 8.04677 12.7615C7.99847 12.8109 7.97281 12.8698 7.96979 12.9381C7.92903 14.2926 7.96299 15.6863 7.69356 17.0189C7.53507 17.7997 7.52828 18.8118 7.483 19.3701C7.4362 19.9372 7.39696 20.505 7.36526 21.0735C7.36224 21.1404 7.33507 21.1957 7.28375 21.2393C7.1313 21.3731 7.06639 21.5272 7.08903 21.7017C7.18186 22.3865 6.94413 22.9951 6.93281 23.5098C6.92224 24.0143 6.93507 24.5196 6.9713 25.0256C6.97582 25.0896 6.95243 25.142 6.90111 25.1827C6.86186 25.2132 6.84149 25.251 6.83998 25.2961C6.83696 25.3717 6.86186 25.4262 6.91469 25.4597C6.9645 25.4917 6.99394 25.4786 7.00299 25.4204L7.05281 25.0693C7.0543 25.0632 7.05779 25.0579 7.06275 25.054C7.0677 25.05 7.07385 25.0478 7.08025 25.0475C7.08666 25.0473 7.09297 25.0491 7.09824 25.0526C7.1035 25.0561 7.10742 25.0612 7.10941 25.0671C7.17884 25.3971 7.1562 25.7105 7.04149 26.0071C7.01734 26.0696 7.02941 26.1249 7.07771 26.1729C7.13054 26.2267 7.13054 26.2856 7.07771 26.3495C7.0279 26.4106 7.00073 26.4026 6.9962 26.3256L6.94866 25.6232C6.94715 25.5927 6.93205 25.5847 6.90337 25.5993C6.8762 25.6152 6.86186 25.6429 6.86035 25.6821C6.81205 26.9021 6.73205 28.1198 6.62036 29.3354C6.61432 29.3863 6.59243 29.4401 6.55469 29.4968C6.51243 29.5564 6.49205 29.6233 6.49356 29.6975C6.51016 30.426 6.45809 31.1501 6.33734 31.8698C6.19243 32.7444 6.17884 33.558 6.05884 34.4086C6.0113 34.7445 6.07243 35.0695 6.00224 35.4446C5.9162 35.9026 5.87092 36.1578 5.86639 36.2102C5.68073 38.4232 5.54715 40.6414 5.46564 42.8646" stroke="#B0ADAF" stroke-width="2"/>
<path d="M5.46568 42.8646C5.07323 42.0096 4.917 41.2128 4.997 40.4741C5.33663 37.2927 5.61738 34.1069 5.83927 30.9167C6.10417 27.0758 6.55474 23.2633 6.83323 19.3985C6.99172 17.2116 7.30266 13.8396 7.76606 9.28265" stroke="#6F5F70" stroke-width="2"/>
<path d="M52.7638 8.97078C51.8944 8.02129 51.1555 7.41131 50.5472 7.14086C49.714 6.77226 48.4166 6.47781 47.3457 6.48436C43.9162 6.50471 40.4876 6.49454 37.0596 6.45382C36.6679 6.44946 36.2513 6.54325 35.8302 6.54325C30.2257 6.55052 24.6219 6.53961 19.0189 6.51053C16.6113 6.4989 14.8498 6.52289 13.7344 6.5825C13.3879 6.60213 13.071 6.76353 12.7178 6.84205C11.7872 7.04489 10.9789 7.65123 10.3381 8.30991C10.1525 8.50185 10.0891 8.77884 9.8287 8.96424C9.77134 9.00495 9.72681 9.05657 9.69511 9.11909C9.1804 10.1631 8.87247 11.2514 8.77134 12.3842C8.65662 13.6666 8.59776 14.3209 8.59474 14.3471C8.3887 15.9895 8.40681 17.706 8.21209 19.2742C7.96908 21.2284 7.81511 23.1899 7.75021 25.1587C7.7487 25.2052 7.73436 25.2474 7.70719 25.2852C7.66643 25.3462 7.637 25.403 7.63247 25.4793C7.54191 26.993 7.60077 28.6571 7.28379 30.1381C7.05738 31.2046 7.09813 32.2886 6.93738 33.3682C6.83323 34.0691 6.74492 34.9059 6.67247 35.8786C6.66794 35.9281 6.64379 35.963 6.60002 35.9833C6.54568 36.008 6.51775 36.0495 6.51624 36.1076C6.50568 36.5264 6.48983 36.9452 6.4687 37.3639C6.46719 37.4105 6.44908 37.4417 6.41436 37.4577C6.37058 37.4795 6.34719 37.5144 6.34417 37.5624C6.25134 38.7358 6.20832 39.9049 6.1019 41.0783C5.99775 42.2154 6.28153 43.3001 6.95323 44.3325C7.01511 44.4255 6.97134 44.5397 6.82191 44.6749" stroke="#EBE9EA" stroke-width="2"/>
<path d="M6.82186 44.6748C6.19847 44.179 5.74639 43.5756 5.46564 42.8646" stroke="#B6A15E" stroke-width="2"/>
<path d="M34.8589 46.7512C35.274 45.9341 35.4861 45.1198 35.4951 44.3084C35.5019 43.8504 35.2642 43.5451 35.0627 43.1394C35.0482 43.1097 35.0453 43.076 35.0545 43.0444C35.0636 43.0128 35.0842 42.9854 35.1125 42.9671C35.3479 42.8144 35.6068 42.7541 35.8891 42.7861C37.483 42.9606 40.277 43.3946 41.5608 42.544C41.9698 42.2735 42.2559 41.9202 42.4189 41.484C42.7827 40.5141 42.5547 39.7449 41.7351 39.1764" stroke="#EBE9EA" stroke-width="2"/>
<path d="M41.7351 39.1764C41.4559 38.9205 41.123 38.7293 40.7366 38.6028" stroke="#B6A15E" stroke-width="2"/>
<path d="M40.7366 38.6028C40.4151 38.2785 39.9872 38.1084 39.4528 38.0924C32.1834 37.8743 24.9139 37.6533 17.6445 37.4293C16.6634 37.3988 15.6755 37.393 14.6807 37.4119C14.6105 37.4132 14.5424 37.4387 14.4883 37.4839C13.5539 38.2342 13.6294 38.919 14.7147 39.5384" stroke="#FFDEBE" stroke-width="2"/>
<path d="M14.7147 39.5385C14.7374 39.5559 14.7608 39.5733 14.7849 39.5908" stroke="#808080" stroke-width="2"/>
<path d="M14.7849 39.5908C14.7064 39.8845 14.7932 40.1382 15.0453 40.352C15.0981 40.397 15.1336 40.4523 15.1517 40.5177C15.4777 41.641 17.16 41.979 18.1449 42.0685C18.9238 42.1404 19.8068 41.8307 20.4679 42.4043" stroke="#EBE9EA" stroke-width="2"/>
<path d="M20.4679 42.4044C20.1887 42.9991 20.3125 43.5007 20.8392 43.9093" stroke="#FFDEBE" stroke-width="2"/>
<path d="M20.8392 43.9093C20.7471 44.6727 20.9819 45.4462 21.5434 46.23" stroke="#EBE9EA" stroke-width="2"/>
<path d="M6.97813 44.7948L6.8219 44.6749" stroke="#B6A15E" stroke-width="2"/>
<path d="M40.7366 38.6028C40.8755 39.0608 40.8196 39.4941 40.569 39.9027" stroke="#C4A283" stroke-width="2"/>
<path d="M40.5691 39.9027C40.2687 40.2095 39.8966 40.3556 39.4528 40.3411C31.2566 40.0605 23.0106 39.7929 14.7147 39.5385" stroke="#805E3E" stroke-width="2"/>
<path d="M20.8392 43.9093C21.034 44.0227 21.1977 44.0649 21.3306 44.0358" stroke="#EBC7A8" stroke-width="2"/>
<path d="M21.3306 44.0358C21.4075 44.1769 21.5826 44.2852 21.8558 44.3608" stroke="#6B696A" stroke-width="2"/>
<path d="M21.8558 44.3608C21.8679 44.544 21.9736 44.6414 22.1728 44.653C22.2438 44.6574 22.3056 44.6828 22.3585 44.7294C22.7841 45.1045 23.1758 44.9911 23.6332 45.0456C25.7117 45.2957 27.7955 45.3997 29.8845 45.3575C30.8536 45.3379 32.3343 45.4229 33.5547 45.2899C33.6302 45.2826 33.6936 45.2528 33.7449 45.2005C34.3487 44.584 34.4241 43.9311 33.9713 43.2419" stroke="#B0ADAF" stroke-width="2"/>
<path d="M33.9713 43.2419C33.8264 42.9685 33.634 42.7635 33.394 42.6268" stroke="#6B696A" stroke-width="2"/>
<path d="M33.3939 42.6268C33.0936 42.3724 32.7358 42.2379 32.3207 42.2233C28.8294 42.0997 25.3388 41.9667 21.849 41.8242C21.209 41.798 20.7487 41.9914 20.4679 42.4043" stroke="#EBC7A8" stroke-width="2"/>
<path d="M14.7849 39.5908C14.9268 39.5792 15.0408 39.6322 15.1268 39.75" stroke="#6B696A" stroke-width="2"/>
<path d="M41.7351 39.1764C42.0491 39.7551 42.1985 40.3345 42.1834 40.9147C42.1819 40.929 42.1752 40.9423 42.1645 40.9523C42.1538 40.9623 42.1398 40.9683 42.1249 40.9694C42.1101 40.9704 42.0953 40.9664 42.0832 40.958C42.0711 40.9496 42.0625 40.9373 42.0589 40.9234C41.9819 40.4719 42.1585 40.2866 41.8936 39.8024C41.8864 39.7908 41.8753 39.7819 41.8622 39.7773C41.8491 39.7726 41.8347 39.7724 41.8214 39.7768C41.8082 39.7811 41.7969 39.7897 41.7894 39.8011C41.7819 39.8125 41.7787 39.826 41.7804 39.8394C41.8634 40.3135 41.7849 40.754 41.5449 41.1612C41.5057 41.2295 41.4468 41.276 41.3683 41.3008C40.6377 41.5247 40.1313 41.6337 39.8491 41.6279C35.6634 41.5203 31.4777 41.4229 27.2921 41.3356C26.5109 41.3182 25.7728 41.1459 24.9736 41.1699C23.2664 41.2201 21.4913 41.0041 19.9019 41.0107C18.9962 41.015 18.0906 41.0019 17.1849 40.9714C16.6823 40.954 16.2521 40.7337 15.7789 40.581C15.7473 40.5707 15.7182 40.5542 15.6933 40.5324C15.6684 40.5107 15.6482 40.4842 15.634 40.4545C15.5449 40.2684 15.3962 40.1542 15.1879 40.1121C15.12 40.099 15.0906 40.0597 15.0996 39.9943L15.1268 39.75" stroke="#B0ADAF" stroke-width="2"/>
<path d="M15.1268 39.75C15.4936 39.9041 15.8905 39.9877 16.3177 40.0008C17.6098 40.0401 18.9011 40.0815 20.1917 40.1251C20.2521 40.1266 20.3117 40.1404 20.3705 40.1666C20.4182 40.1881 20.4708 40.1993 20.5245 40.1993C22.8415 40.2095 25.1577 40.2647 27.4732 40.365C31.6596 40.5439 35.9298 40.6464 40.0528 40.7642C40.8611 40.7882 41.3909 40.4457 41.2188 39.6148C41.1977 39.5086 41.157 39.5013 41.0966 39.5929C40.9396 39.8314 40.7638 39.9347 40.569 39.9027" stroke="#454445" stroke-width="2"/>
<path d="M33.394 42.6268C33.8264 44.2408 32.8347 44.4633 31.4649 44.4109C28.0943 44.2874 24.7162 44.1623 21.3306 44.0358" stroke="#805E3E" stroke-width="2"/>
<path d="M33.9713 43.2419C33.8717 43.6999 34.0913 44.2604 33.6724 44.7163C33.6241 44.7701 33.563 44.7984 33.489 44.8013C31.4739 44.8973 29.3185 44.6618 27.4958 44.6465C25.6045 44.6305 23.7245 44.5353 21.8558 44.3608" stroke="#454445" stroke-width="2"/>
<path d="M22.8204 22.886C23.1147 23.5556 23.7555 23.7322 24.0045 24.2055C24.0377 24.271 24.0883 24.3197 24.1562 24.3517C24.9441 24.729 25.5623 25.1696 26.4566 25.3528C27.0928 25.4836 27.6928 25.7497 28.3291 25.7476C29.2634 25.7417 30.1955 25.6581 31.1253 25.4967" stroke="#B6A15E" stroke-width="2"/>
<path d="M31.1253 25.4967L30.6068 25.7737C30.5056 25.829 30.5132 25.8551 30.6294 25.8522C31.0075 25.8457 31.32 25.6865 31.68 25.669C32.88 25.6123 33.8173 25.0365 34.8679 24.5545C34.9283 24.5269 34.9653 24.4811 34.9788 24.4171C35.0105 24.2702 35.0981 24.175 35.2415 24.1314C35.3124 24.1096 35.3751 24.0754 35.4294 24.0289C36.2294 23.3382 36.9464 22.5777 37.5804 21.7475C38.0649 21.1128 38.357 20.3996 38.6853 19.6689C39.0022 18.9637 39.1675 18.4053 39.1811 17.9938C39.2128 16.9578 39.4755 15.0603 38.9411 14.1595C38.4022 13.25 38.1487 12.3165 37.5215 11.3481C37.366 11.1097 37.1804 11.0231 36.9645 11.0886" stroke="#EBE9EA" stroke-width="2"/>
<path d="M36.9645 11.0885C33.3826 6.54319 26.8392 6.28147 22.8294 10.432C19.3879 13.9915 19.2181 19.3701 22.8204 22.886" stroke="#B6A15E" stroke-width="2"/>
<path d="M36.9645 11.0886C37.0053 11.1278 37.0249 11.1744 37.0234 11.2282" stroke="#B6A15E" stroke-width="2"/>
<path d="M37.0234 11.2281C37.0475 11.4332 37.1275 11.6527 37.2634 11.8868C39.6951 16.0374 37.4785 21.4705 33.4143 23.741C30.5389 25.3477 27.5517 25.4531 24.4528 24.0572" stroke="#5F4C65" stroke-width="2"/>
<path d="M24.4528 24.0572C23.8626 23.906 23.3185 23.5156 22.8204 22.886" stroke="#B6A15E" stroke-width="2"/>
<path d="M38.5223 16.7375C37.7774 23.3266 30.7924 27.7083 24.4528 24.0572" stroke="#454445" stroke-width="2"/>
<path d="M31.1253 25.4967C32.4385 25.2059 33.6279 24.6686 34.6936 23.8849C34.7298 23.8587 34.7646 23.8464 34.7978 23.8478C34.8461 23.8493 34.8898 23.8355 34.9291 23.8064C36.3238 22.742 37.3593 21.4181 38.0355 19.8347C38.2015 19.4435 38.3668 19.0546 38.5313 18.6678C38.5585 18.6024 38.5713 18.534 38.5698 18.4628L38.5223 16.7375" stroke="#B0ADAF" stroke-width="2"/>
<path d="M38.5223 16.7375C38.6626 14.6917 38.163 12.8552 37.0234 11.2281" stroke="#6B696A" stroke-width="2"/>
<path d="M15.9011 33.9418C15.9087 34.0305 15.9358 34.0552 15.9826 34.016" stroke="#808080" stroke-width="2"/>
<path d="M15.9827 34.016C15.9917 34.2661 16.0408 34.4188 16.1298 34.474" stroke="#B6A15E" stroke-width="2"/>
<path d="M16.1298 34.474C16.1434 34.7866 16.2725 34.932 16.517 34.9102C16.6076 34.9015 16.683 34.9305 16.7434 34.9974L16.8679 35.137C16.9253 35.201 16.997 35.2374 17.083 35.2461C17.7336 35.3115 18.3842 35.3362 19.0347 35.3202C21.8151 35.2526 24.4868 35.2962 27.3577 35.4576C30.2853 35.6234 33.2626 35.5536 36.1245 35.6845C38.6219 35.8001 40.4264 36.0727 42.2174 34.751C43.2521 33.9854 43.1751 32.5263 43.1389 31.427C43.1162 30.7749 42.6294 29.4619 41.8415 29.3746" stroke="#EBE9EA" stroke-width="2"/>
<path d="M41.8415 29.3747C41.0626 28.7051 40.2792 28.3299 39.1653 28.3059C32.3064 28.1547 25.4483 28.0086 18.5909 27.8675C16.6981 27.8283 15.0588 28.0813 14.3864 29.8283C13.76 31.454 14.1751 32.812 15.6317 33.9026C15.6981 33.952 15.7879 33.9651 15.9011 33.9418" stroke="#B6A15E" stroke-width="2"/>
<path d="M41.8415 29.3746C41.8687 29.4837 41.9207 29.5767 41.9977 29.6538" stroke="#B6A15E" stroke-width="2"/>
<path d="M41.9977 29.6538C42.1034 29.9941 42.1985 30.3358 42.283 30.6789C42.6838 32.2951 41.7894 33.872 40.2815 34.4216C39.7306 34.6223 38.7894 34.7023 37.4581 34.6615C31.274 34.4711 25.0898 34.3126 18.9057 34.1861C18.0589 34.1701 17.0573 34.0887 15.9011 33.9418" stroke="#5F4C65" stroke-width="2"/>
<path d="M42.6204 31.5339C42.36 33.052 42.24 34.197 40.5895 34.7968C40.1472 34.9568 39.3789 35.0229 38.2846 34.9953C33.4015 34.8732 28.5185 34.7365 23.6355 34.5853C21.403 34.5155 17.9434 34.7445 15.9827 34.016" stroke="#454445" stroke-width="2"/>
<path d="M16.1298 34.474C16.8996 34.6899 17.5902 34.8928 18.4143 34.9081C21.3396 34.9626 24.2491 34.9582 27.1743 35.0738C29.0694 35.148 31.046 35.1044 32.9932 35.2941C33.6377 35.3566 34.2483 35.3792 34.8249 35.3617C36.4642 35.3137 39.6951 35.7718 41.0626 34.9669C41.683 34.6005 42.1977 34.1243 42.6068 33.5383C43.08 32.8622 42.9623 32.2166 42.6204 31.5339" stroke="#B0ADAF" stroke-width="2"/>
<path d="M42.6204 31.5339C42.5691 30.7923 42.3615 30.1656 41.9977 29.6538" stroke="#6B696A" stroke-width="2"/>
<path d="M27.3487 15.8586C27.314 15.9458 27.3766 16.0178 27.5366 16.0745" stroke="#5F4C65" stroke-width="2"/>
<path d="M27.5366 16.0745L27.5796 16.3842C27.5887 16.4555 27.6287 16.5013 27.6996 16.5216C27.9623 16.5943 28.1849 16.723 28.3676 16.9077C28.4204 16.9615 28.4853 16.992 28.5623 16.9993C29.794 17.1149 30.4076 16.9012 31.3766 16.1988C31.8679 15.8412 32.151 15.2959 32.6061 14.8553C32.6559 14.8059 32.6853 14.747 32.6944 14.6786C32.7374 14.3297 33.0702 13.2609 32.7238 12.9512" stroke="#B6A15E" stroke-width="2"/>
<path d="M32.7238 12.9512C32.6377 12.2707 32.4551 11.7524 32.1758 11.3961" stroke="#5F4C65" stroke-width="2"/>
<path d="M32.1759 11.3961C30.231 8.2292 25.4581 9.83228 25.68 13.3591C25.748 14.4176 26.3042 15.2508 27.3487 15.8586" stroke="#DFAAA3" stroke-width="2"/>
<path d="M32.1759 11.3961C33.2106 14.3624 30.4234 17.0756 27.3487 15.8586" stroke="#805E3E" stroke-width="2"/>
<path d="M32.7238 12.9512C32.7193 13.6477 32.5366 14.3159 32.1759 14.9556C31.2113 16.6678 29.031 16.8728 27.5366 16.0745" stroke="#452E45" stroke-width="2"/>
<path d="M23.0966 21.6537C23.3985 22.135 23.88 22.5268 24.5411 22.8293" stroke="#5F4C65" stroke-width="2"/>
<path d="M24.5411 22.8293C24.3736 23.4247 24.6928 23.4312 25.0913 23.6057C26.56 24.2513 28.077 24.5218 29.6423 24.4171C30.4694 24.3618 31.3125 24.1459 32.1713 23.7693C32.9759 23.4145 33.7419 22.9928 34.4694 22.5043C34.5268 22.465 34.5683 22.4141 34.594 22.3516C34.9109 21.586 33.9125 20.1683 33.2966 19.2414" stroke="#B6A15E" stroke-width="2"/>
<path d="M33.2966 19.2414C32.7532 18.3617 32.08 17.6289 31.277 17.0429C31.2324 17.0106 31.1771 16.9954 31.1222 17.0002C31.0672 17.0051 31.0166 17.0297 30.9804 17.0691C29.6196 18.5216 27.806 18.8706 26.4996 17.0429C26.4833 17.0201 26.4625 17.0007 26.4383 16.9859C26.4142 16.971 26.3871 16.9609 26.3589 16.9562C26.3306 16.9516 26.3017 16.9524 26.2737 16.9586C26.2458 16.9649 26.2194 16.9765 26.1962 16.9927C24.6687 18.0629 23.56 19.4486 22.8702 21.1498C22.8415 21.2182 22.8483 21.2836 22.8906 21.3461L23.0966 21.6537" stroke="#DFAAA3" stroke-width="2"/>
<path d="M33.2966 19.2414L34.0551 21.4421" stroke="#C48C83" stroke-width="2"/>
<path d="M34.0551 21.4421C30.9283 24.2579 26.2778 24.5872 23.0966 21.6537" stroke="#805E3E" stroke-width="2"/>
<path d="M24.5411 22.8293C27.4189 24.5196 30.8128 24.5327 33.5366 22.5479C33.7359 22.4018 34.1909 22.1663 34.3313 21.8762C34.4294 21.6741 34.3374 21.5294 34.0551 21.4421" stroke="#452E45" stroke-width="2"/>
<path d="M17.4589 32.4194L17.8936 32.679" stroke="#5F4C65" stroke-width="2"/>
<path d="M17.8936 32.679C17.8287 33.0381 18.0468 33.1806 18.5479 33.1065C18.9585 33.0469 19.1676 33.0185 19.1751 33.0214C19.4347 33.0927 19.831 32.9909 20.3638 32.7161C20.4181 32.687 20.4461 32.6419 20.4476 32.5809L20.4657 31.7433C20.4657 31.7025 20.481 31.663 20.5087 31.6321C20.6491 31.4707 20.7193 31.3064 20.7193 31.1392" stroke="#B6A15E" stroke-width="2"/>
<path d="M20.7193 31.1391C20.7313 31.049 20.7668 30.9632 20.8257 30.8818C20.8694 30.8207 20.8657 30.7625 20.8144 30.7073C20.7344 30.623 20.6294 30.5663 20.4996 30.5372" stroke="#5F4C65" stroke-width="2"/>
<path d="M20.4996 30.5372L19.7864 30.3147" stroke="#DFAAA3" stroke-width="2"/>
<path d="M19.7864 30.3147C19.6475 29.8872 19.3773 29.5325 18.9758 29.2504" stroke="#B6A15E" stroke-width="2"/>
<path d="M18.9758 29.2503C18.9336 29.2242 18.8853 29.2183 18.8309 29.2329C18.7917 29.2431 18.7555 29.27 18.7223 29.3136C18.5411 29.5477 18.3894 29.8021 18.2672 30.077C18.2512 30.1124 18.2263 30.1433 18.1946 30.167C18.163 30.1906 18.1256 30.2062 18.086 30.2122L17.2007 30.3365C17.1733 30.3404 17.1476 30.3516 17.1264 30.3687C17.1052 30.3859 17.0894 30.4084 17.0807 30.4338C17.072 30.4591 17.0708 30.4863 17.0772 30.5122C17.0836 30.5382 17.0974 30.5619 17.117 30.5808L17.6604 31.113C17.6888 31.1404 17.7095 31.1743 17.7206 31.2117C17.7316 31.2491 17.7327 31.2887 17.7238 31.3267L17.4589 32.4194" stroke="#DFAAA3" stroke-width="2"/>
<path d="M18.9758 29.2504C19.0739 29.9585 19.3441 30.3133 19.7864 30.3147" stroke="#C4A283" stroke-width="2"/>
<path d="M20.4997 30.5372C19.6076 30.876 19.3336 31.4896 19.6778 32.378" stroke="#805E3E" stroke-width="2"/>
<path d="M19.6778 32.3786L19.3585 32.3583" stroke="#C48C83" stroke-width="2"/>
<path d="M19.3585 32.3583L18.6611 31.9723C18.5902 31.933 18.5177 31.9301 18.4438 31.9636L17.4589 32.4194" stroke="#805E3E" stroke-width="2"/>
<path d="M17.8936 32.679C18.203 32.7153 18.4883 32.6302 18.7495 32.4238C18.8098 32.3758 18.8778 32.3591 18.9532 32.3736C19.1027 32.4027 19.2378 32.3976 19.3585 32.3583" stroke="#452E45" stroke-width="2"/>
<path d="M20.7193 31.1392C20.3872 31.3253 20.1178 31.5703 19.911 31.8742C19.8747 31.9265 19.8634 31.984 19.877 32.0465L19.9879 32.5416C19.992 32.5602 19.9904 32.5796 19.9832 32.5974C19.9761 32.6152 19.9637 32.6306 19.9476 32.6417C19.9315 32.6528 19.9124 32.6591 19.8926 32.6599C19.8729 32.6608 19.8533 32.656 19.8362 32.6463C19.711 32.5721 19.6581 32.4827 19.6778 32.378" stroke="#452E45" stroke-width="2"/>
<path d="M21.9894 32.5306C22.6121 33.0606 23.0853 32.5764 23.7894 32.4325" stroke="#5F4C65" stroke-width="2"/>
<path d="M23.7894 32.4325C23.9389 32.5168 24.0558 32.5212 24.1404 32.4456" stroke="#DFAAA3" stroke-width="2"/>
<path d="M24.1404 32.4456C24.1509 32.5721 24.194 32.6688 24.2694 32.7357C24.2875 32.7523 24.3105 32.763 24.3352 32.7664C24.3599 32.7698 24.3851 32.7657 24.4073 32.7547C24.4295 32.7436 24.4475 32.7262 24.4589 32.7048C24.4703 32.6834 24.4745 32.6592 24.4709 32.6354L24.3849 31.9723C24.3728 31.8836 24.4023 31.8109 24.4732 31.7542L25.2996 31.0824C25.3181 31.0673 25.3331 31.0485 25.3434 31.0274C25.3537 31.0063 25.3592 30.9833 25.3594 30.96C25.3596 30.9368 25.3546 30.9139 25.3447 30.8928C25.3347 30.8718 25.3201 30.8531 25.3019 30.8382L25.1728 30.7269" stroke="#5F4C65" stroke-width="2"/>
<path d="M25.1728 30.7269C25.0989 30.6033 25.0279 30.5662 24.96 30.6157" stroke="#B6A15E" stroke-width="2"/>
<path d="M24.96 30.6157L24.1041 30.3845" stroke="#DFAAA3" stroke-width="2"/>
<path d="M24.1042 30.3845L23.803 29.6757C23.7759 29.6102 23.7344 29.5528 23.6785 29.5033L23.2845 29.1566" stroke="#B6A15E" stroke-width="2"/>
<path d="M23.2845 29.1566C22.9766 30.1569 22.4551 30.5663 21.72 30.3845C21.6844 30.3755 21.6466 30.3781 21.6127 30.3918C21.5787 30.4055 21.5504 30.4296 21.5321 30.4604C21.5138 30.4912 21.5065 30.527 21.5114 30.5621C21.5163 30.5973 21.5331 30.6299 21.5592 30.6549L22.1411 31.222C22.197 31.2773 22.2181 31.3427 22.2045 31.4183L21.9894 32.5307" stroke="#DFAAA3" stroke-width="2"/>
<path d="M23.2845 29.1566C23.5638 29.9548 23.837 30.3641 24.1042 30.3845" stroke="#C4A283" stroke-width="2"/>
<path d="M24.96 30.6157L24.1087 31.294" stroke="#C4A283" stroke-width="2"/>
<path d="M24.1087 31.294L24.1404 32.4456" stroke="#805E3E" stroke-width="2"/>
<path d="M23.7894 32.4325L23.1917 32.0966C23.1208 32.0574 23.0483 32.0545 22.9743 32.0879L21.9894 32.5307" stroke="#805E3E" stroke-width="2"/>
<path d="M25.1729 30.7269L24.634 31.3049C24.5812 31.3602 24.5178 31.3798 24.4438 31.3638L24.1087 31.294" stroke="#454445" stroke-width="2"/>
<path d="M26.5743 32.6332L26.8755 32.8884" stroke="#5F4C65" stroke-width="2"/>
<path d="M26.8755 32.8884C26.9328 32.932 26.9713 32.9771 26.991 33.0236C27.0166 33.0832 27.0619 33.1152 27.1268 33.1196C27.7789 33.1705 28.4234 33.1675 29.0604 33.1108C29.4574 33.0745 29.6189 32.868 29.5449 32.4914C29.4227 31.872 30.3261 31.5601 29.957 31.0148" stroke="#B6A15E" stroke-width="2"/>
<path d="M29.957 31.0148C29.8241 30.8723 29.6891 30.7727 29.5517 30.716" stroke="#B6A15E" stroke-width="2"/>
<path d="M29.5517 30.716C29.197 30.559 28.8506 30.4819 28.5125 30.4848" stroke="#DFAAA3" stroke-width="2"/>
<path d="M28.5125 30.4848C28.5743 29.9977 28.3691 29.6305 27.8966 29.3834" stroke="#B6A15E" stroke-width="2"/>
<path d="M27.8966 29.3834C27.6249 29.6305 27.4317 29.933 27.317 30.2907C27.308 30.317 27.2919 30.3404 27.2704 30.3585C27.2488 30.3765 27.2227 30.3885 27.1947 30.3932L26.1872 30.535C26.1613 30.5382 26.1369 30.5486 26.117 30.5648C26.0971 30.581 26.0823 30.6025 26.0745 30.6267C26.0667 30.6509 26.0661 30.6768 26.0728 30.7015C26.0795 30.7262 26.0933 30.7486 26.1125 30.7662L26.7147 31.3267C26.7736 31.3805 26.7955 31.4452 26.7804 31.5208L26.5743 32.6332" stroke="#DFAAA3" stroke-width="2"/>
<path d="M27.8966 29.3834C28.0385 29.8937 28.2438 30.2609 28.5125 30.4848" stroke="#C4A283" stroke-width="2"/>
<path d="M29.5517 30.716C28.9539 31.0388 28.6339 31.3732 28.5917 31.7193" stroke="#C4A283" stroke-width="2"/>
<path d="M28.5917 31.7193L28.7434 32.679" stroke="#805E3E" stroke-width="2"/>
<path d="M28.7434 32.6789L28.2725 32.5219" stroke="#C48C83" stroke-width="2"/>
<path d="M28.2725 32.5219C27.6068 31.8698 27.2264 32.3387 26.5743 32.6332" stroke="#805E3E" stroke-width="2"/>
<path d="M26.8755 32.8883L27.0136 32.908C27.0702 32.9152 27.1275 32.9099 27.1812 32.8927L28.2725 32.5219" stroke="#452E45" stroke-width="2"/>
<path d="M28.7434 32.679C28.757 32.7386 28.7781 32.7866 28.8068 32.8229C28.8252 32.8447 28.8506 32.8599 28.879 32.8662C28.9073 32.8725 28.937 32.8696 28.9635 32.8578C28.9899 32.8461 29.0116 32.8262 29.025 32.8014C29.0384 32.7765 29.0429 32.748 29.0377 32.7204L28.9177 32.1861C28.9101 32.1521 28.9117 32.1166 28.9224 32.083C28.9331 32.0494 28.9525 32.0189 28.9789 31.9941L29.7442 31.2613" stroke="#452E45" stroke-width="2"/>
<path d="M29.957 31.0148C29.9087 31.1137 29.8377 31.1959 29.7441 31.2613" stroke="#B6A15E" stroke-width="2"/>
<path d="M29.7441 31.2613C29.7139 31.2104 29.68 31.1733 29.6422 31.15C29.5743 31.1093 29.5139 31.118 29.4611 31.1762C29.2347 31.4234 28.9449 31.6044 28.5917 31.7193" stroke="#454445" stroke-width="2"/>
<path d="M31.1207 32.7466C31.329 33.0432 31.5373 33.0956 31.8951 32.956C32.2981 32.7989 32.7396 32.7459 33.2196 32.7967" stroke="#5F4C65" stroke-width="2"/>
<path d="M33.2196 32.7968C33.1396 32.7677 33.1736 32.7604 33.3215 32.775" stroke="#DFAAA3" stroke-width="2"/>
<path d="M33.3215 32.775C33.3366 32.9305 33.4166 32.9996 33.5615 32.9822C33.6446 32.9705 33.6785 32.9247 33.6634 32.8448L33.5321 32.1446C33.5185 32.0734 33.5434 32.0189 33.6068 31.9811C33.9374 31.7891 34.7298 31.3267 34.3019 30.8927" stroke="#B6A15E" stroke-width="2"/>
<path d="M34.3019 30.8927C34.2551 30.8563 34.1804 30.8483 34.0778 30.8687" stroke="#B6A15E" stroke-width="2"/>
<path d="M34.0777 30.8687C33.7759 30.6942 33.4408 30.5866 33.0725 30.5459C32.9864 30.5371 32.9268 30.4935 32.8936 30.415L32.5472 29.56C32.5402 29.5428 32.5283 29.5277 32.5128 29.5167C32.4973 29.5057 32.4789 29.4991 32.4598 29.4978C32.4406 29.4964 32.4214 29.5003 32.4044 29.509C32.3874 29.5177 32.3733 29.5309 32.3638 29.5469L31.8294 30.4346C31.8175 30.4543 31.801 30.471 31.7814 30.4835C31.7617 30.496 31.7394 30.5039 31.7162 30.5066L30.7698 30.62C30.7432 30.6229 30.7179 30.6328 30.6967 30.6486C30.6756 30.6645 30.6594 30.6857 30.65 30.7099C30.6407 30.7341 30.6384 30.7603 30.6436 30.7856C30.6487 30.811 30.6611 30.8344 30.6793 30.8534L31.2883 31.4881C31.3426 31.5463 31.3615 31.6139 31.3449 31.6909L31.1208 32.7466" stroke="#DFAAA3" stroke-width="2"/>
<path d="M34.0777 30.8687L33.317 31.4707" stroke="#C4A283" stroke-width="2"/>
<path d="M33.317 31.4706L33.3215 32.7749" stroke="#AA7969" stroke-width="2"/>
<path d="M33.2196 32.7967L32.3343 32.2864C32.2709 32.2515 32.2068 32.2486 32.1419 32.2776L31.1207 32.7466" stroke="#805E3E" stroke-width="2"/>
<path d="M34.3019 30.8927C33.9124 31.0846 33.9985 31.6408 33.317 31.4707" stroke="#6F5F70" stroke-width="2"/>
<path d="M35.7555 32.8535L36.1245 33.1719" stroke="#5F4C65" stroke-width="2"/>
<path d="M36.1245 33.1719L36.4347 33.4402C36.5026 33.4984 36.5819 33.5202 36.6724 33.5056L38.4611 33.2308C38.4977 33.2257 38.532 33.2102 38.5601 33.1863C38.5882 33.1623 38.6089 33.1308 38.6196 33.0956C38.7117 32.7902 38.837 32.5089 38.9955 32.2515C39.274 31.7978 39.4664 31.3507 38.9434 31.0236" stroke="#B6A15E" stroke-width="2"/>
<path d="M38.9434 31.0236L38.7713 30.9254" stroke="#B6A15E" stroke-width="2"/>
<path d="M38.7713 30.9254C38.5268 30.7989 38.3139 30.7385 38.1328 30.7443" stroke="#DFAAA3" stroke-width="2"/>
<path d="M38.1328 30.7443C37.9668 30.2805 37.6204 29.8894 37.0936 29.5709" stroke="#B6A15E" stroke-width="2"/>
<path d="M37.0936 29.5709L36.4891 30.5306C36.4559 30.5844 36.4068 30.6157 36.3419 30.6244L35.3253 30.7749C35.3062 30.778 35.2883 30.786 35.2736 30.7982C35.2589 30.8104 35.248 30.8262 35.2419 30.8439C35.2358 30.8616 35.2349 30.8806 35.2393 30.8988C35.2436 30.917 35.253 30.9338 35.2665 30.9472L35.9208 31.5753C35.9494 31.6035 35.9703 31.638 35.9817 31.6756C35.9932 31.7133 35.9948 31.753 35.9864 31.7913L35.7555 32.8534" stroke="#DFAAA3" stroke-width="2"/>
<path d="M37.0936 29.5709L37.517 30.5066C37.5487 30.5749 37.6 30.6251 37.6709 30.6571C37.7977 30.7138 37.9517 30.7429 38.1328 30.7443" stroke="#C4A283" stroke-width="2"/>
<path d="M38.7713 30.9254L37.9517 31.6343C37.8913 31.6866 37.8649 31.7513 37.8725 31.8284L37.9857 32.8993" stroke="#AA7969" stroke-width="2"/>
<path d="M37.9856 32.8993L37.4966 32.6855" stroke="#C48C83" stroke-width="2"/>
<path d="M37.4966 32.6855L36.9442 32.4172C36.8732 32.3838 36.8015 32.3831 36.7291 32.4151L35.7555 32.8535" stroke="#805E3E" stroke-width="2"/>
<path d="M36.1245 33.1719L37.4966 32.6855" stroke="#452E45" stroke-width="2"/>
<path d="M38.9434 31.0236L39.0476 31.2569C39.0808 31.3296 39.0717 31.3965 39.0204 31.4576C38.6378 31.9156 38.0604 32.125 38.3434 32.884C38.3551 32.9158 38.3557 32.9503 38.345 32.982C38.3344 33.0136 38.3131 33.0406 38.2845 33.0585L38.1261 33.1588C38.0264 33.2228 37.9781 33.1966 37.9812 33.0803L37.9857 32.8993" stroke="#B6A15E" stroke-width="2"/>
<path d="M57.0702 9.66653L56.9638 9.81048C56.9432 9.83785 56.9152 9.85935 56.883 9.87268C56.8507 9.88601 56.8153 9.89069 56.7805 9.88622C56.7457 9.88175 56.7128 9.8683 56.6852 9.84729C56.6577 9.82627 56.6366 9.79848 56.6242 9.76686L56.1917 8.65451C56.1761 8.61173 56.145 8.57577 56.1042 8.55314C56.0634 8.5305 56.0155 8.5227 55.9693 8.53114C55.923 8.53958 55.8814 8.5637 55.852 8.59914C55.8226 8.63457 55.8074 8.67898 55.8091 8.72431C55.8242 9.41353 55.8128 10.1355 55.7751 10.8901C55.2906 20.5973 54.7842 30.3031 54.2559 40.0074C54.1774 41.4265 54.0717 42.4633 53.9389 43.1176C53.4045 45.1664 52.2838 46.8756 50.5766 48.2453C47.5336 50.5049 45.12 50.265 40.8544 50.0927C30.0302 49.6535 19.203 49.197 8.37284 48.723C4.91925 47.9814 2.69058 46.0788 1.6868 43.0151C0.774349 40.2299 1.76831 36.9953 1.80454 34.1447C1.8136 33.3355 2.00605 32.5634 2.03548 31.7717C2.07171 30.8578 2.21662 30.0312 2.25511 29.0453C2.28454 28.3016 2.45888 27.5971 2.48152 26.8643C2.49511 26.4251 2.53435 25.9875 2.59925 25.5513C2.84378 23.9133 2.81888 22.1793 3.02945 20.5522C3.09133 20.0739 3.13511 19.5177 3.16077 18.8837C3.1902 18.1247 3.36227 17.4028 3.38944 16.6547C3.44605 14.9949 3.75171 13.2457 3.8468 11.5553C3.90114 10.6 3.97888 9.81993 4.08001 9.21505C4.64605 5.8213 7.29963 2.78307 10.8023 1.86048C11.6325 1.64237 13.0166 1.53332 14.9547 1.53332C25.0302 1.52896 35.0966 1.37192 45.1676 1.32612C47.3396 1.31594 48.8393 1.4199 49.6664 1.63801C53.4611 2.63476 55.6393 6.28369 57.0702 9.66653ZM8.18039 6.62176C6.90567 7.76246 6.84227 9.52694 6.70642 11.0624C5.85812 20.6068 5.01133 30.1504 4.16605 39.6933C3.96907 41.9355 5.00152 43.5037 6.73812 44.8952C6.76415 44.9158 6.797 44.9266 6.83066 44.9258C6.86433 44.925 6.89658 44.9126 6.92152 44.8908C6.94869 44.8675 6.96756 44.8356 6.97813 44.7948C7.61963 45.3968 8.20378 45.7102 8.73058 45.7349C12.9253 45.9239 17.1962 46.0889 21.5434 46.23L34.8589 46.7513C36.9283 46.8589 38.9434 46.9447 40.9042 47.0086C43.5502 47.0959 45.0581 47.1177 45.4279 47.0741C48.72 46.6946 50.8393 44.2627 51.0204 41.0194C51.6196 30.2769 52.2008 19.594 52.7638 8.97077L52.0755 6.93147L51.6906 6.42328C50.16 4.61953 48.5683 4.25094 46.0506 4.25094C35.4483 4.24803 24.8476 4.27129 14.2483 4.32073C11.5336 4.33381 9.7336 4.60645 8.18039 6.62176Z" fill="#B6A15E"/>
<path d="M51.6905 6.42326C51.6619 6.42907 51.6347 6.43271 51.609 6.43416C51.5487 6.43853 51.4981 6.4189 51.4573 6.37527C50.5638 5.42724 49.5434 4.9554 48.3962 4.95976C37.0619 5.0092 27.2838 5.02665 19.0619 5.01211C17.6759 5.0109 16.0981 5.03432 14.3592 5.0819C11.5834 5.15824 8.75545 6.65009 7.76602 9.28264L7.47394 9.30009C7.37734 9.30591 7.33432 9.26228 7.34489 9.16922C7.443 8.32733 7.72149 7.47817 8.18036 6.62174C9.73357 4.60643 11.5336 4.33379 14.2483 4.32071C24.8475 4.27127 35.4483 4.24801 46.0506 4.25091C48.5683 4.25091 50.16 4.61951 51.6905 6.42326Z" fill="#B6A15E"/>
<path d="M51.6906 6.42324L52.0755 6.93143C52.0257 7.04194 51.9147 6.99614 51.7427 6.79402C51.6325 6.66607 51.5238 6.60209 51.4166 6.60209C51.3442 6.60064 51.2762 6.58391 51.2129 6.55193C50.5087 6.18332 49.9178 5.68822 49.071 5.67077C46.0098 5.6097 42.2219 5.66423 39.8921 5.65987C31.3079 5.63951 22.7238 5.64169 14.1396 5.66641C13.5895 5.66859 13.1864 5.91069 12.6679 6.06118C11.803 6.30765 11.2687 6.71551 10.5804 7.19316C10.2634 7.41345 10.114 7.75588 9.76531 7.98925C9.70795 8.02851 9.67398 8.08086 9.66342 8.14629C9.63021 8.34404 9.52983 8.49017 9.36229 8.58468C9.29587 8.62103 9.2521 8.67556 9.23097 8.74826C9.07851 9.263 8.837 9.73484 8.50644 10.1638C8.117 10.6698 8.38644 11.4026 8.30945 11.9697C8.3004 12.038 8.26719 12.0926 8.20983 12.1333C8.08002 12.2293 8.03927 12.3667 8.08757 12.5455C8.11172 12.6371 8.09813 12.7091 8.04681 12.7614C7.99851 12.8109 7.97285 12.8698 7.96983 12.9381C7.92908 14.2925 7.96304 15.6862 7.69361 17.0189C7.53511 17.7997 7.52832 18.8117 7.48304 19.3701C7.43625 19.9372 7.397 20.505 7.3653 21.0735C7.36229 21.1404 7.33512 21.1956 7.28379 21.2393C7.13134 21.373 7.06644 21.5272 7.08908 21.7016C7.18191 22.3865 6.94417 22.995 6.93285 23.5097C6.92228 24.0143 6.93511 24.5196 6.97134 25.0256C6.97587 25.0896 6.95247 25.1419 6.90115 25.1826C6.86191 25.2132 6.84153 25.251 6.84002 25.296C6.837 25.3717 6.86191 25.4262 6.91474 25.4596C6.96455 25.4916 6.99398 25.4785 7.00304 25.4204L7.05285 25.0692C7.05435 25.0632 7.05784 25.0578 7.06279 25.0539C7.06774 25.05 7.07389 25.0477 7.0803 25.0475C7.0867 25.0472 7.09302 25.049 7.09828 25.0525C7.10354 25.0561 7.10747 25.0612 7.10945 25.067C7.17889 25.3971 7.15625 25.7104 7.04153 26.0071C7.01738 26.0696 7.02945 26.1248 7.07776 26.1728C7.13059 26.2266 7.13059 26.2855 7.07776 26.3495C7.02794 26.4106 7.00077 26.4026 6.99625 26.3255L6.9487 25.6232C6.94719 25.5927 6.9321 25.5847 6.90342 25.5992C6.87625 25.6152 6.86191 25.6428 6.8604 25.6821C6.8121 26.902 6.7321 28.1198 6.6204 29.3354C6.61436 29.3863 6.59247 29.4401 6.55474 29.4968C6.51247 29.5564 6.4921 29.6233 6.4936 29.6974C6.51021 30.4259 6.45814 31.15 6.33738 31.8698C6.19248 32.7444 6.17889 33.5579 6.05889 34.4086C6.01134 34.7444 6.07247 35.0694 6.00228 35.4446C5.91625 35.9026 5.87097 36.1578 5.86644 36.2101C5.68078 38.4232 5.54719 40.6413 5.46568 42.8646C5.07323 42.0096 4.917 41.2128 4.997 40.4741C5.33663 37.2927 5.61738 34.1068 5.83927 30.9167C6.10417 27.0758 6.55474 23.2633 6.83323 19.3984C6.99172 17.2115 7.30266 13.8396 7.76606 9.28263C8.75549 6.65007 11.5834 5.15822 14.3593 5.08189C16.0981 5.0343 17.6759 5.01088 19.0619 5.01209C27.2838 5.02663 37.0619 5.00918 48.3963 4.95975C49.5434 4.95538 50.5638 5.42722 51.4574 6.37526C51.4981 6.41888 51.5487 6.43851 51.6091 6.43415C51.6347 6.43269 51.6619 6.42906 51.6906 6.42324Z" fill="#B6A15E"/>
<path d="M52.0755 6.93142L52.7638 8.97072C51.8943 8.02122 51.1555 7.41125 50.5471 7.1408C49.7139 6.7722 48.4166 6.47775 47.3456 6.4843C43.9162 6.50465 40.4875 6.49447 37.0596 6.45376C36.6679 6.4494 36.2513 6.54318 35.8302 6.54318C30.2256 6.55046 24.6219 6.53955 19.0188 6.51047C16.6113 6.49884 14.8498 6.52283 13.7343 6.58244C13.3879 6.60207 13.0709 6.76347 12.7177 6.84199C11.7871 7.04483 10.9788 7.65117 10.3381 8.30985C10.1524 8.50179 10.089 8.77878 9.82866 8.96417C9.7713 9.00489 9.72677 9.0565 9.69507 9.11903C9.18036 10.163 8.87243 11.2514 8.7713 12.3841C8.65658 13.6666 8.59771 14.3209 8.5947 14.3471C8.38866 15.9894 8.40677 17.7059 8.21205 19.2741C7.96903 21.2283 7.81507 23.1898 7.75016 25.1586C7.74866 25.2051 7.73432 25.2473 7.70715 25.2851C7.66639 25.3462 7.63696 25.4029 7.63243 25.4792C7.54187 26.9929 7.60073 28.6571 7.28375 30.138C7.05734 31.2045 7.09809 32.2885 6.93734 33.3682C6.83318 34.069 6.74488 34.9058 6.67243 35.8786C6.6679 35.928 6.64375 35.9629 6.59998 35.9833C6.54564 36.008 6.51771 36.0494 6.5162 36.1076C6.50564 36.5264 6.48979 36.9451 6.46866 37.3639C6.46715 37.4104 6.44903 37.4417 6.41432 37.4577C6.37054 37.4795 6.34715 37.5144 6.34413 37.5624C6.2513 38.7358 6.20828 39.9048 6.10186 41.0782C5.99771 42.2153 6.28149 43.3 6.95319 44.3324C7.01507 44.4255 6.9713 44.5396 6.82186 44.6748C6.19847 44.179 5.74639 43.5756 5.46564 42.8645C5.54715 40.6413 5.68073 38.4232 5.86639 36.2101C5.87092 36.1578 5.9162 35.9026 6.00224 35.4445C6.07243 35.0694 6.0113 34.7444 6.05884 34.4085C6.17884 33.5579 6.19243 32.7444 6.33734 31.8698C6.45809 31.15 6.51016 30.4259 6.49356 29.6974C6.49205 29.6233 6.51243 29.5564 6.55469 29.4968C6.59243 29.4401 6.61432 29.3863 6.62036 29.3354C6.73205 28.1198 6.81205 26.902 6.86036 25.6821C6.86186 25.6428 6.8762 25.6152 6.90337 25.5992C6.93205 25.5847 6.94715 25.5926 6.94866 25.6232L6.9962 26.3255C7.00073 26.4026 7.0279 26.4105 7.07771 26.3495C7.13054 26.2855 7.13054 26.2266 7.07771 26.1728C7.02941 26.1248 7.01734 26.0696 7.04149 26.0071C7.1562 25.7104 7.17884 25.3971 7.10941 25.067C7.10742 25.0611 7.1035 25.0561 7.09824 25.0525C7.09297 25.049 7.08666 25.0472 7.08025 25.0475C7.07385 25.0477 7.0677 25.05 7.06275 25.0539C7.05779 25.0578 7.0543 25.0632 7.05281 25.0692L7.00299 25.4203C6.99394 25.4785 6.9645 25.4916 6.91469 25.4596C6.86186 25.4262 6.83696 25.3716 6.83998 25.296C6.84149 25.2509 6.86186 25.2131 6.90111 25.1826C6.95243 25.1419 6.97582 25.0896 6.9713 25.0256C6.93507 24.5196 6.92224 24.0143 6.93281 23.5097C6.94413 22.995 7.18186 22.3865 7.08903 21.7016C7.06639 21.5271 7.1313 21.373 7.28375 21.2392C7.33507 21.1956 7.36224 21.1404 7.36526 21.0735C7.39696 20.5049 7.4362 19.9371 7.483 19.3701C7.52828 18.8117 7.53507 17.7997 7.69356 17.0189C7.963 15.6862 7.92903 14.2925 7.96979 12.9381C7.97281 12.8697 7.99847 12.8109 8.04677 12.7614C8.09809 12.7091 8.11168 12.6371 8.08752 12.5455C8.03922 12.3666 8.07998 12.2292 8.20979 12.1333C8.26715 12.0926 8.30035 12.038 8.30941 11.9697C8.38639 11.4026 8.11696 10.6698 8.50639 10.1638C8.83696 9.73482 9.07847 9.26298 9.23092 8.74825C9.25205 8.67554 9.29583 8.62102 9.36224 8.58467C9.52979 8.49015 9.63016 8.34402 9.66337 8.14627C9.67394 8.08084 9.7079 8.02849 9.76526 7.98924C10.1139 7.75586 10.2634 7.41343 10.5804 7.19314C11.2687 6.71549 11.803 6.30763 12.6679 6.06117C13.1864 5.91067 13.5894 5.66858 14.1396 5.66639C22.7238 5.64168 31.3079 5.63949 39.8921 5.65985C42.2219 5.66421 46.0098 5.60969 49.0709 5.67076C49.9177 5.68821 50.5087 6.18331 51.2128 6.55191C51.2762 6.5839 51.3441 6.60062 51.4166 6.60207C51.5238 6.60207 51.6324 6.66605 51.7426 6.79401C51.9147 6.99612 52.0256 7.04192 52.0755 6.93142Z" fill="#B6A15E"/>
<path d="M52.7961 9.06032C52.2331 19.6836 51.6519 30.3665 51.0527 41.109C50.8716 44.3522 48.7523 46.7841 45.4602 47.1636C45.0904 47.2072 43.5825 47.1854 40.9365 47.0982C38.9757 47.0342 36.9606 46.9484 34.8912 46.8408C35.3063 46.0236 35.5183 45.2094 35.5274 44.398C35.5342 43.94 35.2965 43.6346 35.0949 43.229C35.0805 43.1992 35.0776 43.1655 35.0868 43.1339C35.0959 43.1023 35.1165 43.0749 35.1448 43.0567C35.3802 42.904 35.6391 42.8436 35.9214 42.8756C37.5153 43.0501 40.3093 43.4841 41.5931 42.6335C42.0021 42.3631 42.2882 42.0097 42.4512 41.5735C42.8149 40.6037 42.587 39.8345 41.7674 39.266C41.4882 39.01 41.1553 38.8188 40.7689 38.6923C40.4474 38.3681 40.0195 38.198 39.4851 38.182C32.2157 37.9639 24.9463 37.7428 17.6768 37.5189C16.6957 37.4884 15.7078 37.4826 14.7131 37.5015C14.6428 37.5028 14.5747 37.5283 14.5206 37.5734C13.5863 38.3237 13.6617 39.0086 14.747 39.628C14.7697 39.6455 14.7931 39.6629 14.8172 39.6804C14.7387 39.9741 14.8255 40.2278 15.0776 40.4416C15.1304 40.4866 15.1659 40.5419 15.184 40.6073C15.51 41.7306 17.1923 42.0686 18.1772 42.1581C18.9561 42.23 19.8391 41.9203 20.5002 42.4939C20.221 43.0886 20.3448 43.5903 20.8716 43.9989C20.7795 44.7623 21.0142 45.5358 21.5757 46.3195C17.2285 46.1785 12.9576 46.0135 8.76287 45.8244C8.23608 45.7997 7.65193 45.4864 7.01042 44.8844L6.85419 44.7644C7.00363 44.6292 7.0474 44.5151 6.98552 44.422C6.31382 43.3896 6.03004 42.3049 6.13419 41.1678C6.24061 39.9944 6.28363 38.8254 6.37646 37.652C6.37948 37.604 6.40287 37.5691 6.44665 37.5473C6.48136 37.5313 6.49948 37.5 6.50099 37.4535C6.52212 37.0347 6.53797 36.616 6.54853 36.1972C6.55004 36.139 6.57797 36.0976 6.6323 36.0729C6.67608 36.0525 6.70023 36.0176 6.70476 35.9682C6.77721 34.9954 6.86551 34.1586 6.96966 33.4578C7.13042 32.3781 7.08966 31.2941 7.31608 30.2276C7.63306 28.7467 7.57419 27.0825 7.66476 25.5688C7.66929 25.4925 7.69872 25.4358 7.73947 25.3747C7.76664 25.3369 7.78098 25.2947 7.78249 25.2482C7.8474 23.2794 8.00136 21.3179 8.24438 19.3637C8.4391 17.7955 8.42099 16.079 8.62702 14.4367C8.63004 14.4105 8.68891 13.7562 8.80363 12.4737C8.90476 11.341 9.21269 10.2526 9.7274 9.20863C9.7591 9.1461 9.80363 9.09449 9.86099 9.05377C10.1214 8.86838 10.1848 8.59139 10.3704 8.39945C11.0112 7.74077 11.8195 7.13443 12.75 6.93159C13.1032 6.85307 13.4202 6.69167 13.7666 6.67204C14.8821 6.61243 16.6436 6.58844 19.0512 6.60007C24.6542 6.62915 30.258 6.64006 35.8625 6.63279C36.2836 6.63279 36.7002 6.539 37.0919 6.54336C40.5199 6.58407 43.9485 6.59425 47.378 6.5739C48.4489 6.56735 49.7463 6.8618 50.5795 7.2304C51.1878 7.50085 51.9266 8.11082 52.7961 9.06032ZM22.8527 22.9755C23.147 23.6451 23.7878 23.8218 24.0368 24.2951C24.07 24.3605 24.1206 24.4092 24.1885 24.4412C24.9765 24.8185 25.5946 25.2591 26.4889 25.4423C27.1251 25.5732 27.7251 25.8393 28.3614 25.8371C29.2957 25.8313 30.2278 25.7477 31.1576 25.5863L30.6391 25.8633C30.538 25.9185 30.5455 25.9447 30.6617 25.9418C31.0399 25.9353 31.3523 25.776 31.7123 25.7586C32.9123 25.7019 33.8497 25.1261 34.9002 24.6441C34.9606 24.6164 34.9976 24.5706 35.0112 24.5067C35.0429 24.3598 35.1304 24.2646 35.2738 24.2209C35.3448 24.1991 35.4074 24.165 35.4617 24.1184C36.2617 23.4278 36.9787 22.6673 37.6127 21.837C38.0972 21.2023 38.3893 20.4891 38.7176 19.7585C39.0346 19.0533 39.1998 18.4949 39.2134 18.0834C39.2451 17.0474 39.5078 15.1499 38.9734 14.2491C38.4346 13.3396 38.181 12.4061 37.5538 11.4377C37.3983 11.1992 37.2127 11.1127 36.9968 11.1781C33.4149 6.63278 26.8716 6.37106 22.8617 10.5216C19.4202 14.0811 19.2504 19.4597 22.8527 22.9755ZM15.9334 34.0314C15.941 34.1201 15.9682 34.1448 16.0149 34.1055C16.024 34.3556 16.0731 34.5083 16.1621 34.5636C16.1757 34.8762 16.3048 35.0216 16.5493 34.9998C16.6399 34.9911 16.7153 35.0201 16.7757 35.087L16.9002 35.2266C16.9576 35.2906 17.0293 35.3269 17.1153 35.3357C17.7659 35.4011 18.4165 35.4258 19.067 35.4098C21.8474 35.3422 24.5191 35.3858 27.39 35.5472C30.3176 35.713 33.2949 35.6432 36.1568 35.7741C38.6542 35.8897 40.4587 36.1623 42.2497 34.8406C43.2844 34.075 43.2074 32.6159 43.1712 31.5166C43.1485 30.8645 42.6617 29.5515 41.8738 29.4642C41.0949 28.7946 40.3116 28.4195 39.1976 28.3955C32.3387 28.2443 25.4806 28.0981 18.6232 27.9571C16.7304 27.9178 15.0912 28.1709 14.4187 29.9179C13.7923 31.5435 14.2074 32.9016 15.664 33.9921C15.7304 34.0416 15.8202 34.0547 15.9334 34.0314Z" fill="white"/>
<path d="M8.18038 6.6217C7.72151 7.47814 7.44302 8.3273 7.34491 9.16919C7.33434 9.26225 7.37736 9.30587 7.47396 9.30006L7.76604 9.28261C7.30264 13.8396 6.9917 17.2115 6.83321 19.3984C6.55472 23.2633 6.10415 27.0758 5.83924 30.9166C5.61736 34.1068 5.33661 37.2926 4.99698 40.4741C4.91698 41.2127 5.07321 42.0096 5.46566 42.8645C5.74642 43.5756 6.19849 44.179 6.82189 44.6748L6.97812 44.7948C6.96755 44.8355 6.94868 44.8675 6.92151 44.8908C6.89657 44.9126 6.86432 44.925 6.83065 44.9258C6.79699 44.9266 6.76414 44.9157 6.73811 44.8951C5.00151 43.5036 3.96906 41.9354 4.16604 39.6933C5.01132 30.1504 5.85811 20.6067 6.70641 11.0624C6.84226 9.52689 6.90566 7.7624 8.18038 6.6217Z" fill="#B6A15E"/>
<path d="M36.9645 11.0885C37.0053 11.1278 37.0249 11.1743 37.0234 11.2281C37.0475 11.4332 37.1275 11.6527 37.2634 11.8868C39.6951 16.0374 37.4785 21.4704 33.4143 23.7409C30.5388 25.3477 27.5517 25.4531 24.4528 24.0572C23.8626 23.906 23.3185 23.5156 22.8204 22.886C19.2181 19.3701 19.3879 13.9916 22.8294 10.432C26.8392 6.28147 33.3826 6.54319 36.9645 11.0885ZM27.3487 15.8585C27.3139 15.9458 27.3766 16.0178 27.5366 16.0745L27.5796 16.3842C27.5887 16.4554 27.6287 16.5012 27.6996 16.5216C27.9622 16.5943 28.1849 16.723 28.3675 16.9076C28.4204 16.9614 28.4853 16.992 28.5622 16.9992C29.7939 17.1148 30.4075 16.9011 31.3766 16.1988C31.8679 15.8411 32.1509 15.2958 32.606 14.8553C32.6558 14.8058 32.6853 14.7469 32.6943 14.6786C32.7373 14.3296 33.0702 13.2609 32.7238 12.9512C32.6377 12.2707 32.4551 11.7523 32.1758 11.3961C30.2309 8.22916 25.4581 9.83225 25.68 13.359C25.7479 14.4176 26.3041 15.2508 27.3487 15.8585ZM23.0966 21.6536C23.3985 22.1349 23.88 22.5268 24.5411 22.8292C24.3736 23.4247 24.6928 23.4312 25.0913 23.6057C26.56 24.2513 28.077 24.5218 29.6422 24.4171C30.4694 24.3618 31.3124 24.1459 32.1713 23.7693C32.9758 23.4145 33.7419 22.9928 34.4694 22.5043C34.5268 22.465 34.5683 22.4141 34.5939 22.3516C34.9109 21.586 33.9124 20.1683 33.2966 19.2414C32.7532 18.3617 32.08 17.6288 31.277 17.0429C31.2324 17.0106 31.1771 16.9954 31.1222 17.0002C31.0672 17.0051 31.0166 17.0296 30.9804 17.069C29.6196 18.5216 27.806 18.8706 26.4996 17.0429C26.4833 17.0201 26.4625 17.0007 26.4383 16.9858C26.4142 16.971 26.3871 16.9609 26.3589 16.9562C26.3306 16.9515 26.3017 16.9524 26.2737 16.9586C26.2458 16.9649 26.2194 16.9765 26.1962 16.9927C24.6687 18.0629 23.56 19.4486 22.8702 21.1498C22.8415 21.2182 22.8483 21.2836 22.8905 21.3461L23.0966 21.6536Z" fill="#B6A15E"/>
<path d="M57.0702 9.66648C57.28 10.6669 57.372 11.4433 57.3464 11.9959C56.9026 21.7758 56.332 31.5513 55.8679 41.3313C55.8483 41.7398 55.7705 42.5737 55.6347 43.8329C55.2558 43.878 54.8951 43.721 54.5524 43.3618C54.5041 43.3109 54.446 43.2746 54.3781 43.2528L53.9388 43.1175C54.0717 42.4632 54.1773 41.4265 54.2558 40.0073C54.7841 30.303 55.2905 20.5973 55.7751 10.8901C55.8128 10.1354 55.8241 9.41347 55.809 8.72425C55.8074 8.67892 55.8226 8.63452 55.852 8.59908C55.8814 8.56365 55.923 8.53952 55.9692 8.53108C56.0155 8.52265 56.0634 8.53045 56.1042 8.55308C56.145 8.57572 56.176 8.61168 56.1917 8.65446L56.6241 9.76681C56.6366 9.79843 56.6577 9.82622 56.6852 9.84723C56.7127 9.86824 56.7456 9.8817 56.7804 9.88617C56.8152 9.89064 56.8507 9.88596 56.8829 9.87262C56.9152 9.85929 56.9431 9.8378 56.9637 9.81043L57.0702 9.66648Z" fill="#B6A15E"/>
<path d="M32.1759 11.3961C33.2106 14.3624 30.4234 17.0756 27.3487 15.8586C26.3042 15.2508 25.748 14.4176 25.68 13.3591C25.4581 9.83228 30.231 8.2292 32.1759 11.3961Z" fill="white"/>
<path d="M36.9645 11.0886C37.1804 11.0231 37.366 11.1097 37.5215 11.3481C38.1487 12.3165 38.4022 13.25 38.9411 14.1595C39.4755 15.0603 39.2128 16.9578 39.1811 17.9938C39.1675 18.4053 39.0022 18.9637 38.6853 19.6689C38.357 20.3996 38.0649 21.1128 37.5804 21.7475C36.9464 22.5777 36.2294 23.3382 35.4294 24.0289C35.3751 24.0754 35.3124 24.1096 35.2415 24.1314C35.0981 24.175 35.0105 24.2702 34.9788 24.4171C34.9653 24.4811 34.9283 24.5269 34.8679 24.5545C33.8173 25.0365 32.88 25.6123 31.68 25.669C31.32 25.6865 31.0075 25.8457 30.6294 25.8522C30.5132 25.8551 30.5056 25.829 30.6068 25.7737L31.1253 25.4967C32.4385 25.2059 33.6279 24.6686 34.6936 23.8849C34.7298 23.8587 34.7645 23.8464 34.7977 23.8478C34.846 23.8493 34.8898 23.8355 34.929 23.8064C36.3238 22.742 37.3592 21.4181 38.0355 19.8347C38.2015 19.4435 38.3668 19.0546 38.5313 18.6678C38.5585 18.6024 38.5713 18.534 38.5698 18.4628L38.5223 16.7375C38.6626 14.6917 38.163 12.8552 37.0234 11.2282C37.0249 11.1744 37.0053 11.1278 36.9645 11.0886Z" fill="#B6A15E"/>
<path d="M37.0234 11.2281C38.163 12.8552 38.6626 14.6917 38.5223 16.7375C37.7774 23.3265 30.7924 27.7083 24.4528 24.0572C27.5517 25.4531 30.5389 25.3477 33.4143 23.741C37.4785 21.4705 39.6951 16.0374 37.2634 11.8868C37.1275 11.6527 37.0475 11.4332 37.0234 11.2281Z" fill="#B6A15E"/>
<path d="M32.1759 11.3961C32.4551 11.7524 32.6378 12.2707 32.7238 12.9512C32.7193 13.6477 32.5366 14.3158 32.1759 14.9556C31.2113 16.6678 29.031 16.8728 27.5366 16.0745C27.3766 16.0178 27.314 15.9458 27.3487 15.8586C30.4234 17.0756 33.2106 14.3624 32.1759 11.3961Z" fill="#B6A15E"/>
<path d="M32.7238 12.9512C33.0702 13.2609 32.7374 14.3296 32.6944 14.6786C32.6853 14.7469 32.6559 14.8058 32.6061 14.8552C32.151 15.2958 31.8679 15.8411 31.3766 16.1988C30.4076 16.9011 29.794 17.1148 28.5623 16.9992C28.4853 16.992 28.4204 16.9614 28.3676 16.9076C28.1849 16.723 27.9623 16.5943 27.6996 16.5216C27.6287 16.5012 27.5887 16.4554 27.5796 16.3842L27.5366 16.0745C29.031 16.8727 31.2113 16.6677 32.1759 14.9556C32.5366 14.3158 32.7193 13.6477 32.7238 12.9512Z" fill="#B6A15E"/>
<path d="M38.5223 16.7375L38.5698 18.4628C38.5713 18.534 38.5585 18.6024 38.5313 18.6678C38.3668 19.0546 38.2015 19.4435 38.0355 19.8347C37.3592 21.4181 36.3238 22.742 34.9291 23.8064C34.8898 23.8355 34.846 23.8493 34.7977 23.8478C34.7645 23.8464 34.7298 23.8587 34.6936 23.8849C33.6279 24.6686 32.4385 25.2059 31.1253 25.4967C30.1955 25.6581 29.2634 25.7417 28.3291 25.7475C27.6928 25.7497 27.0928 25.4836 26.4566 25.3528C25.5623 25.1696 24.9441 24.729 24.1562 24.3517C24.0883 24.3197 24.0377 24.271 24.0045 24.2055C23.7555 23.7322 23.1147 23.5556 22.8204 22.886C23.3185 23.5156 23.8626 23.906 24.4528 24.0572C30.7924 27.7083 37.7774 23.3266 38.5223 16.7375Z" fill="#B6A15E"/>
<path d="M33.2966 19.2414L34.0551 21.4421C30.9283 24.2579 26.2777 24.5872 23.0966 21.6537L22.8906 21.3461C22.8483 21.2836 22.8415 21.2182 22.8702 21.1498C23.56 19.4486 24.6687 18.0629 26.1962 16.9927C26.2194 16.9765 26.2458 16.9649 26.2737 16.9586C26.3017 16.9524 26.3306 16.9516 26.3589 16.9562C26.3871 16.9609 26.4142 16.971 26.4383 16.9859C26.4625 17.0007 26.4833 17.0201 26.4996 17.0429C27.806 18.8706 29.6196 18.5216 30.9804 17.0691C31.0166 17.0297 31.0672 17.0051 31.1222 17.0002C31.1771 16.9954 31.2324 17.0106 31.277 17.0429C32.08 17.6289 32.7532 18.3617 33.2966 19.2414Z" fill="white"/>
<path d="M33.2966 19.2414C33.9125 20.1683 34.9109 21.586 34.594 22.3516C34.5683 22.4141 34.5268 22.465 34.4694 22.5043C33.7419 22.9928 32.9759 23.4145 32.1713 23.7693C31.3125 24.1459 30.4694 24.3618 29.6423 24.4171C28.077 24.5218 26.56 24.2513 25.0913 23.6057C24.6928 23.4312 24.3736 23.4247 24.5411 22.8293C27.4189 24.5196 30.8128 24.5327 33.5366 22.5479C33.7359 22.4018 34.1909 22.1662 34.3313 21.8761C34.4294 21.674 34.3374 21.5293 34.0551 21.4421L33.2966 19.2414Z" fill="#B6A15E"/>
<path d="M34.0551 21.4421C34.3374 21.5294 34.4295 21.6741 34.3313 21.8762C34.191 22.1663 33.7359 22.4018 33.5366 22.5479C30.8128 24.5327 27.4189 24.5196 24.5411 22.8293C23.88 22.5269 23.3985 22.135 23.0966 21.6537C26.2778 24.5872 30.9283 24.2579 34.0551 21.4421Z" fill="#B6A15E"/>
<path d="M41.8415 29.3747C41.8687 29.4837 41.9207 29.5768 41.9977 29.6538C42.1034 29.9941 42.1985 30.3358 42.283 30.6789C42.6838 32.2951 41.7894 33.872 40.2815 34.4217C39.7305 34.6223 38.7894 34.7023 37.4581 34.6616C31.2739 34.4711 25.0898 34.3126 18.9056 34.1861C18.0588 34.1701 17.0573 34.0887 15.9011 33.9418C15.7879 33.9651 15.6981 33.952 15.6317 33.9026C14.1751 32.812 13.76 31.454 14.3864 29.8283C15.0588 28.0813 16.6981 27.8283 18.5909 27.8675C25.4483 28.0086 32.3064 28.1547 39.1653 28.3059C40.2792 28.3299 41.0626 28.7051 41.8415 29.3747ZM17.4588 32.4194L17.8936 32.679C17.8287 33.0381 18.0468 33.1806 18.5479 33.1065C18.9585 33.0469 19.1675 33.0185 19.1751 33.0214C19.4347 33.0927 19.8309 32.9909 20.3637 32.7161C20.4181 32.687 20.446 32.6419 20.4475 32.5808L20.4656 31.7433C20.4656 31.7025 20.4809 31.663 20.5087 31.6321C20.649 31.4707 20.7192 31.3064 20.7192 31.1391C20.7313 31.049 20.7668 30.9632 20.8256 30.8818C20.8694 30.8207 20.8656 30.7626 20.8143 30.7073C20.7343 30.623 20.6294 30.5663 20.4996 30.5372L19.7864 30.3147C19.6475 29.8872 19.3773 29.5324 18.9758 29.2503C18.9336 29.2242 18.8853 29.2184 18.8309 29.2329C18.7917 29.2431 18.7554 29.27 18.7222 29.3136C18.5411 29.5477 18.3894 29.8022 18.2671 30.077C18.2512 30.1124 18.2263 30.1433 18.1946 30.167C18.1629 30.1906 18.1256 30.2062 18.086 30.2122L17.2007 30.3365C17.1733 30.3404 17.1476 30.3516 17.1264 30.3687C17.1052 30.3859 17.0893 30.4084 17.0806 30.4338C17.072 30.4591 17.0707 30.4863 17.0772 30.5122C17.0836 30.5382 17.0974 30.5619 17.117 30.5808L17.6604 31.113C17.6887 31.1404 17.7095 31.1743 17.7205 31.2117C17.7316 31.2491 17.7327 31.2887 17.7237 31.3267L17.4588 32.4194ZM21.9894 32.5307C22.6121 33.0607 23.0853 32.5765 23.7894 32.4325C23.9388 32.5169 24.0558 32.5212 24.1404 32.4456C24.1509 32.5721 24.1939 32.6688 24.2694 32.7357C24.2875 32.7523 24.3105 32.763 24.3352 32.7664C24.3599 32.7698 24.3851 32.7657 24.4073 32.7547C24.4294 32.7436 24.4475 32.7262 24.4589 32.7048C24.4703 32.6834 24.4745 32.6592 24.4709 32.6354L24.3849 31.9723C24.3728 31.8836 24.4022 31.8109 24.4732 31.7542L25.2996 31.0824C25.3181 31.0673 25.3331 31.0485 25.3434 31.0274C25.3537 31.0063 25.3592 30.9833 25.3594 30.96C25.3596 30.9368 25.3546 30.9139 25.3446 30.8928C25.3347 30.8718 25.3201 30.8531 25.3019 30.8382L25.1728 30.7269C25.0988 30.6033 25.0279 30.5663 24.96 30.6157L24.1041 30.3845L23.803 29.6757C23.7758 29.6102 23.7343 29.5528 23.6785 29.5033L23.2845 29.1566C22.9766 30.1569 22.4551 30.5663 21.72 30.3845C21.6843 30.3755 21.6466 30.3781 21.6127 30.3918C21.5787 30.4055 21.5504 30.4296 21.5321 30.4604C21.5138 30.4912 21.5065 30.527 21.5114 30.5621C21.5163 30.5973 21.5331 30.6299 21.5592 30.6549L22.1411 31.222C22.197 31.2773 22.2181 31.3427 22.2045 31.4183L21.9894 32.5307ZM26.5743 32.6332L26.8754 32.8884C26.9328 32.932 26.9713 32.9771 26.9909 33.0236C27.0166 33.0832 27.0619 33.1152 27.1268 33.1196C27.7788 33.1705 28.4234 33.1675 29.0604 33.1108C29.4573 33.0745 29.6188 32.868 29.5449 32.4914C29.4226 31.872 30.326 31.5601 29.957 31.0148C29.8241 30.8723 29.689 30.7727 29.5517 30.716C29.197 30.559 28.8505 30.4819 28.5124 30.4848C28.5743 29.9977 28.369 29.6306 27.8966 29.3834C27.6249 29.6306 27.4317 29.933 27.317 30.2907C27.308 30.317 27.2919 30.3404 27.2703 30.3585C27.2488 30.3766 27.2226 30.3886 27.1947 30.3932L26.1871 30.535C26.1612 30.5383 26.1369 30.5486 26.117 30.5648C26.097 30.5811 26.0823 30.6025 26.0745 30.6267C26.0666 30.6509 26.0661 30.6768 26.0728 30.7015C26.0795 30.7262 26.0932 30.7486 26.1124 30.7662L26.7147 31.3267C26.7736 31.3805 26.7954 31.4452 26.7804 31.5208L26.5743 32.6332ZM31.1207 32.7466C31.329 33.0432 31.5373 33.0956 31.8951 32.956C32.2981 32.7989 32.7396 32.7459 33.2196 32.7968C33.1396 32.7677 33.1736 32.7604 33.3215 32.7749C33.3366 32.9305 33.4166 32.9996 33.5615 32.9822C33.6445 32.9705 33.6785 32.9247 33.6634 32.8447L33.5321 32.1446C33.5185 32.0734 33.5434 32.0188 33.6068 31.981C33.9373 31.7891 34.7298 31.3267 34.3019 30.8927C34.2551 30.8563 34.1804 30.8483 34.0777 30.8687C33.7758 30.6942 33.4407 30.5866 33.0724 30.5459C32.9864 30.5372 32.9268 30.4936 32.8936 30.415L32.5471 29.5601C32.5402 29.5428 32.5282 29.5278 32.5128 29.5168C32.4973 29.5057 32.4789 29.4992 32.4597 29.4978C32.4405 29.4964 32.4214 29.5003 32.4044 29.509C32.3874 29.5177 32.3733 29.5309 32.3638 29.547L31.8294 30.4347C31.8174 30.4543 31.801 30.4711 31.7813 30.4835C31.7617 30.496 31.7394 30.5039 31.7162 30.5066L30.7698 30.6201C30.7431 30.6229 30.7178 30.6328 30.6967 30.6487C30.6756 30.6645 30.6594 30.6857 30.65 30.7099C30.6406 30.7341 30.6384 30.7603 30.6435 30.7857C30.6487 30.811 30.6611 30.8344 30.6792 30.8534L31.2883 31.4881C31.3426 31.5463 31.3615 31.6139 31.3449 31.691L31.1207 32.7466ZM35.7555 32.8535L36.1245 33.1719L36.4347 33.4402C36.5026 33.4983 36.5819 33.5201 36.6724 33.5056L38.4611 33.2308C38.4977 33.2257 38.532 33.2102 38.5601 33.1863C38.5882 33.1623 38.6089 33.1308 38.6196 33.0956C38.7117 32.7902 38.837 32.5089 38.9954 32.2515C39.2739 31.7978 39.4664 31.3507 38.9434 31.0236L38.7713 30.9254C38.5268 30.7989 38.3139 30.7386 38.1328 30.7444C37.9668 30.2805 37.6203 29.8894 37.0936 29.571L36.489 30.5306C36.4558 30.5844 36.4068 30.6157 36.3419 30.6244L35.3253 30.7749C35.3061 30.778 35.2883 30.7861 35.2736 30.7982C35.2589 30.8104 35.2479 30.8262 35.2418 30.8439C35.2358 30.8617 35.2349 30.8807 35.2392 30.8989C35.2435 30.9171 35.2529 30.9338 35.2664 30.9472L35.9207 31.5754C35.9493 31.6035 35.9702 31.638 35.9817 31.6757C35.9931 31.7133 35.9948 31.753 35.9864 31.7913L35.7555 32.8535Z" fill="#B6A15E"/>
<path d="M18.9758 29.2503C19.074 29.9585 19.3441 30.3132 19.7864 30.3147L20.4996 30.5372C19.6075 30.876 19.3336 31.4896 19.6777 32.378L19.3585 32.3584L18.6611 31.9723C18.5902 31.9331 18.5177 31.9301 18.4438 31.9636L17.4589 32.4194L17.7238 31.3267C17.7327 31.2887 17.7316 31.2491 17.7206 31.2117C17.7095 31.1743 17.6888 31.1404 17.6604 31.113L17.117 30.5808C17.0974 30.5619 17.0836 30.5382 17.0772 30.5122C17.0708 30.4863 17.072 30.4591 17.0807 30.4338C17.0894 30.4084 17.1052 30.3859 17.1264 30.3687C17.1476 30.3516 17.1733 30.3404 17.2007 30.3365L18.086 30.2122C18.1256 30.2062 18.163 30.1906 18.1946 30.167C18.2263 30.1433 18.2512 30.1124 18.2672 30.077C18.3894 29.8021 18.5411 29.5477 18.7223 29.3136C18.7555 29.27 18.7917 29.2431 18.8309 29.2329C18.8853 29.2183 18.9336 29.2242 18.9758 29.2503Z" fill="#104C5B"/>
<path d="M18.9759 29.2503C19.3774 29.5324 19.6476 29.8872 19.7865 30.3147C19.3442 30.3132 19.074 29.9584 18.9759 29.2503Z" fill="white"/>
<path d="M23.2845 29.1566C23.5638 29.9548 23.837 30.3641 24.1041 30.3845L24.96 30.6157L24.1087 31.294L24.1404 32.4456C24.0558 32.5212 23.9389 32.5169 23.7894 32.4325L23.1917 32.0966C23.1207 32.0574 23.0483 32.0545 22.9743 32.0879L21.9894 32.5307L22.2045 31.4183C22.2181 31.3427 22.197 31.2773 22.1411 31.222L21.5592 30.6549C21.5331 30.6299 21.5163 30.5973 21.5114 30.5621C21.5065 30.527 21.5138 30.4912 21.5321 30.4604C21.5504 30.4296 21.5787 30.4055 21.6127 30.3918C21.6466 30.3781 21.6844 30.3755 21.72 30.3845C22.4551 30.5663 22.9766 30.1569 23.2845 29.1566Z" fill="#104C5B"/>
<path d="M23.2845 29.1566L23.6785 29.5033C23.7344 29.5528 23.7759 29.6102 23.803 29.6757L24.1042 30.3845C23.837 30.3641 23.5638 29.9548 23.2845 29.1566Z" fill="white"/>
<path d="M27.8966 29.3834C28.0385 29.8937 28.2438 30.2609 28.5125 30.4848C28.8506 30.4819 29.197 30.559 29.5517 30.716C28.954 31.0388 28.634 31.3732 28.5917 31.7193L28.7434 32.679L28.2725 32.5219C27.6068 31.8698 27.2264 32.3387 26.5743 32.6332L26.7804 31.5208C26.7955 31.4452 26.7736 31.3805 26.7147 31.3267L26.1125 30.7662C26.0933 30.7486 26.0795 30.7262 26.0728 30.7015C26.0661 30.6768 26.0667 30.6509 26.0745 30.6267C26.0823 30.6025 26.0971 30.581 26.117 30.5648C26.1369 30.5486 26.1613 30.5382 26.1872 30.535L27.1947 30.3932C27.2227 30.3885 27.2488 30.3765 27.2704 30.3585C27.2919 30.3404 27.308 30.317 27.317 30.2907C27.4317 29.933 27.6249 29.6305 27.8966 29.3834Z" fill="#104C5B"/>
<path d="M41.8415 29.3746C42.6294 29.4619 43.1162 30.7749 43.1389 31.427C43.1751 32.5263 43.2521 33.9854 42.2174 34.751C40.4264 36.0727 38.6219 35.8001 36.1245 35.6845C33.2626 35.5536 30.2853 35.6234 27.3577 35.4576C24.4868 35.2962 21.8151 35.2526 19.0347 35.3202C18.3842 35.3362 17.7336 35.3115 17.083 35.2461C16.997 35.2374 16.9253 35.201 16.8679 35.137L16.7434 34.9974C16.683 34.9305 16.6076 34.9015 16.517 34.9102C16.2725 34.932 16.1434 34.7866 16.1298 34.474C16.8996 34.6899 17.5902 34.8927 18.4143 34.908C21.3396 34.9625 24.2491 34.9582 27.1743 35.0738C29.0694 35.1479 31.046 35.1043 32.9932 35.2941C33.6377 35.3566 34.2483 35.3791 34.8249 35.3617C36.4642 35.3137 39.6951 35.7717 41.0626 34.9669C41.683 34.6005 42.1977 34.1243 42.6068 33.5383C43.08 32.8622 42.9623 32.2166 42.6204 31.5339C42.5691 30.7923 42.3615 30.1656 41.9977 29.6538C41.9208 29.5767 41.8687 29.4837 41.8415 29.3746Z" fill="#B6A15E"/>
<path d="M27.8966 29.3834C28.3691 29.6305 28.5743 29.9977 28.5125 30.4848C28.2438 30.2609 28.0385 29.8937 27.8966 29.3834Z" fill="white"/>
<path d="M34.0777 30.8687L33.317 31.4706L33.3215 32.7749C33.1736 32.7604 33.1396 32.7677 33.2196 32.7967L32.3343 32.2864C32.271 32.2515 32.2068 32.2486 32.1419 32.2776L31.1208 32.7466L31.3449 31.6909C31.3615 31.6139 31.3426 31.5463 31.2883 31.4881L30.6793 30.8534C30.6611 30.8344 30.6487 30.811 30.6436 30.7856C30.6384 30.7603 30.6407 30.7341 30.65 30.7099C30.6594 30.6857 30.6756 30.6645 30.6967 30.6486C30.7179 30.6328 30.7432 30.6229 30.7698 30.62L31.7162 30.5066C31.7394 30.5039 31.7617 30.496 31.7814 30.4835C31.801 30.471 31.8175 30.4543 31.8294 30.4346L32.3638 29.5469C32.3733 29.5309 32.3874 29.5177 32.4044 29.509C32.4214 29.5003 32.4406 29.4964 32.4598 29.4978C32.4789 29.4991 32.4973 29.5057 32.5128 29.5167C32.5283 29.5277 32.5402 29.5428 32.5472 29.56L32.8936 30.415C32.9268 30.4935 32.9864 30.5371 33.0725 30.5459C33.4408 30.5866 33.7759 30.6942 34.0777 30.8687Z" fill="#104C5B"/>
<path d="M37.0936 29.5709L37.517 30.5066C37.5487 30.5749 37.6 30.6251 37.6709 30.6571C37.7977 30.7138 37.9517 30.7429 38.1328 30.7443C38.3139 30.7385 38.5268 30.7989 38.7713 30.9254L37.9517 31.6342C37.8913 31.6866 37.8649 31.7513 37.8724 31.8283L37.9856 32.8992L37.4966 32.6855L36.9441 32.4172C36.8732 32.3838 36.8015 32.3831 36.729 32.415L35.7554 32.8534L35.9864 31.7913C35.9948 31.753 35.9931 31.7133 35.9817 31.6756C35.9702 31.638 35.9493 31.6035 35.9207 31.5753L35.2664 30.9472C35.2529 30.9338 35.2435 30.917 35.2392 30.8988C35.2349 30.8806 35.2358 30.8616 35.2418 30.8439C35.2479 30.8262 35.2589 30.8104 35.2736 30.7982C35.2883 30.786 35.3061 30.778 35.3253 30.7749L36.3419 30.6244C36.4068 30.6157 36.4558 30.5844 36.489 30.5306L37.0936 29.5709Z" fill="#104C5B"/>
<path d="M37.0936 29.5709C37.6204 29.8894 37.9668 30.2805 38.1328 30.7443C37.9517 30.7429 37.7977 30.7138 37.6709 30.6571C37.6 30.6251 37.5487 30.5749 37.517 30.5066L37.0936 29.5709Z" fill="white"/>
<path d="M41.9977 29.6538C42.3615 30.1656 42.569 30.7923 42.6204 31.5339C42.36 33.0519 42.24 34.197 40.5894 34.7968C40.1472 34.9567 39.3789 35.0229 38.2845 34.9953C33.4015 34.8731 28.5185 34.7364 23.6355 34.5852C21.403 34.5154 17.9434 34.7444 15.9826 34.0159C15.9358 34.0552 15.9087 34.0305 15.9011 33.9418C17.0573 34.0887 18.0589 34.1701 18.9057 34.1861C25.0898 34.3126 31.274 34.4711 37.4581 34.6616C38.7894 34.7023 39.7306 34.6223 40.2815 34.4216C41.7894 33.872 42.6838 32.2951 42.283 30.6789C42.1985 30.3358 42.1034 29.9941 41.9977 29.6538Z" fill="black"/>
<path d="M20.4996 30.5372C20.6294 30.5663 20.7343 30.623 20.8143 30.7073C20.8656 30.7625 20.8694 30.8207 20.8256 30.8818C20.7668 30.9632 20.7313 31.049 20.7192 31.1391C20.3871 31.3253 20.1177 31.5703 19.9109 31.8742C19.8747 31.9265 19.8634 31.9839 19.877 32.0465L19.9879 32.5416C19.992 32.5602 19.9904 32.5796 19.9832 32.5974C19.976 32.6152 19.9636 32.6306 19.9476 32.6417C19.9315 32.6528 19.9124 32.6591 19.8926 32.6599C19.8728 32.6607 19.8532 32.656 19.8362 32.6463C19.7109 32.5721 19.6581 32.4827 19.6777 32.378C19.3336 31.4896 19.6075 30.876 20.4996 30.5372Z" fill="white"/>
<path d="M24.96 30.6157C25.0279 30.5662 25.0988 30.6033 25.1728 30.7269L24.6339 31.3049C24.5811 31.3601 24.5177 31.3798 24.4437 31.3638L24.1086 31.294L24.96 30.6157Z" fill="white"/>
<path d="M29.5517 30.716C29.689 30.7727 29.8241 30.8723 29.957 31.0148C29.9087 31.1137 29.8377 31.1958 29.7441 31.2613C29.7139 31.2104 29.68 31.1733 29.6422 31.15C29.5743 31.1093 29.5139 31.1181 29.4611 31.1762C29.2347 31.4234 28.9449 31.6044 28.5917 31.7193C28.6339 31.3732 28.9539 31.0388 29.5517 30.716Z" fill="white"/>
<path d="M25.1728 30.7269L25.3019 30.8382C25.3201 30.8531 25.3347 30.8718 25.3446 30.8928C25.3545 30.9139 25.3596 30.9368 25.3594 30.96C25.3591 30.9833 25.3537 31.0063 25.3434 31.0274C25.333 31.0485 25.3181 31.0673 25.2996 31.0824L24.4732 31.7542C24.4022 31.8109 24.3728 31.8836 24.3849 31.9723L24.4709 32.6354C24.4745 32.6592 24.4703 32.6834 24.4589 32.7048C24.4475 32.7262 24.4294 32.7436 24.4073 32.7547C24.3851 32.7657 24.3599 32.7698 24.3352 32.7664C24.3105 32.763 24.2875 32.7523 24.2694 32.7357C24.1939 32.6688 24.1509 32.5721 24.1403 32.4456L24.1086 31.294L24.4437 31.3638C24.5177 31.3798 24.5811 31.3602 24.6339 31.3049L25.1728 30.7269Z" fill="white"/>
<path d="M34.0778 30.8687C34.1804 30.8483 34.2551 30.8563 34.3019 30.8927C33.9125 31.0846 33.9985 31.6408 33.317 31.4707L34.0778 30.8687Z" fill="white"/>
<path d="M34.3019 30.8927C34.7298 31.3267 33.9374 31.7891 33.6068 31.9811C33.5434 32.0189 33.5185 32.0734 33.5321 32.1446L33.6634 32.8448C33.6785 32.9247 33.6446 32.9705 33.5615 32.9822C33.4166 32.9996 33.3366 32.9305 33.3215 32.775L33.317 31.4707C33.9985 31.6408 33.9125 31.0846 34.3019 30.8927Z" fill="white"/>
<path d="M38.7713 30.9254L38.9434 31.0236L39.0476 31.2569C39.0808 31.3296 39.0717 31.3965 39.0204 31.4576C38.6378 31.9156 38.0604 32.125 38.3434 32.884C38.3551 32.9158 38.3557 32.9503 38.345 32.982C38.3344 33.0136 38.3131 33.0406 38.2846 33.0585L38.1261 33.1588C38.0264 33.2228 37.9781 33.1966 37.9812 33.0803L37.9857 32.8993L37.8725 31.8284C37.8649 31.7513 37.8913 31.6866 37.9517 31.6343L38.7713 30.9254Z" fill="white"/>
<path d="M29.957 31.0148C30.3261 31.5601 29.4227 31.872 29.5449 32.4914C29.6189 32.868 29.4574 33.0745 29.0604 33.1108C28.4234 33.1675 27.7789 33.1705 27.1268 33.1196C27.0619 33.1152 27.0166 33.0832 26.991 33.0236C26.9713 32.9771 26.9328 32.932 26.8755 32.8884L27.0136 32.908C27.0702 32.9152 27.1275 32.91 27.1812 32.8927L28.2725 32.5219L28.7434 32.679C28.757 32.7386 28.7781 32.7866 28.8068 32.8229C28.8252 32.8447 28.8506 32.8599 28.879 32.8662C28.9073 32.8725 28.937 32.8696 28.9635 32.8578C28.9899 32.8461 29.0116 32.8262 29.025 32.8014C29.0384 32.7765 29.0429 32.748 29.0378 32.7204L28.9178 32.1861C28.9101 32.152 28.9117 32.1166 28.9224 32.083C28.9331 32.0494 28.9525 32.0189 28.9789 31.9941L29.7442 31.2613C29.8378 31.1959 29.9087 31.1137 29.957 31.0148Z" fill="#B6A15E"/>
<path d="M38.9434 31.0236C39.4664 31.3507 39.274 31.7978 38.9955 32.2515C38.837 32.5089 38.7117 32.7902 38.6196 33.0956C38.6089 33.1308 38.5882 33.1623 38.5601 33.1863C38.532 33.2102 38.4977 33.2257 38.4611 33.2308L36.6724 33.5056C36.5819 33.5202 36.5026 33.4984 36.4347 33.4402L36.1245 33.1719L37.4966 32.6855L37.9856 32.8993L37.9811 33.0803C37.9781 33.1966 38.0264 33.2228 38.126 33.1588L38.2845 33.0585C38.313 33.0406 38.3343 33.0136 38.345 32.982C38.3557 32.9503 38.3551 32.9158 38.3434 32.884C38.0604 32.125 38.6377 31.9156 39.0204 31.4576C39.0717 31.3965 39.0807 31.3296 39.0475 31.2569L38.9434 31.0236Z" fill="#B6A15E"/>
<path d="M20.7193 31.1392C20.7193 31.3064 20.6491 31.4707 20.5087 31.6321C20.481 31.663 20.4657 31.7025 20.4657 31.7433L20.4476 32.5809C20.4461 32.6419 20.4181 32.687 20.3638 32.7161C19.831 32.9909 19.4347 33.0927 19.1751 33.0214C19.1676 33.0185 18.9585 33.0469 18.5479 33.1065C18.0468 33.1806 17.8287 33.0381 17.8936 32.679C18.203 32.7153 18.4883 32.6303 18.7495 32.4238C18.8098 32.3758 18.8778 32.3591 18.9532 32.3736C19.1027 32.4027 19.2378 32.3976 19.3585 32.3584L19.6778 32.378C19.6581 32.4827 19.711 32.5721 19.8363 32.6463C19.8533 32.656 19.8729 32.6608 19.8926 32.6599C19.9124 32.6591 19.9315 32.6528 19.9476 32.6417C19.9637 32.6306 19.9761 32.6152 19.9832 32.5974C19.9904 32.5796 19.992 32.5602 19.9879 32.5416L19.877 32.0465C19.8634 31.984 19.8747 31.9265 19.911 31.8742C20.1178 31.5703 20.3872 31.3253 20.7193 31.1392Z" fill="#B6A15E"/>
<path d="M29.7441 31.2613L28.9788 31.9941C28.9525 32.0188 28.9331 32.0494 28.9224 32.083C28.9117 32.1166 28.9101 32.152 28.9177 32.186L29.0377 32.7204C29.0429 32.748 29.0384 32.7765 29.025 32.8013C29.0115 32.8262 28.9899 32.8461 28.9634 32.8578C28.937 32.8695 28.9073 32.8725 28.8789 32.8661C28.8506 32.8598 28.8252 32.8446 28.8068 32.8229C28.7781 32.7866 28.757 32.7386 28.7434 32.679L28.5917 31.7193C28.9449 31.6044 29.2347 31.4234 29.4611 31.1762C29.5139 31.118 29.5743 31.1093 29.6422 31.15C29.68 31.1733 29.7139 31.2104 29.7441 31.2613Z" fill="white"/>
<path d="M42.6203 31.5339C42.9622 32.2165 43.08 32.8621 42.6068 33.5383C42.1977 34.1243 41.683 34.6005 41.0626 34.9669C39.6951 35.7717 36.4641 35.3137 34.8249 35.3617C34.2483 35.3791 33.6377 35.3566 32.9932 35.294C31.046 35.1043 29.0694 35.1479 27.1743 35.0738C24.249 34.9582 21.3396 34.9625 18.4143 34.908C17.5902 34.8927 16.8996 34.6899 16.1298 34.474C16.0407 34.4187 15.9917 34.266 15.9826 34.0159C17.9434 34.7444 21.403 34.5154 23.6354 34.5852C28.5185 34.7364 33.4015 34.8731 38.2845 34.9952C39.3788 35.0229 40.1471 34.9567 40.5894 34.7968C42.24 34.197 42.36 33.0519 42.6203 31.5339Z" fill="#89888A"/>
<path d="M19.3585 32.3583C19.2377 32.3976 19.1026 32.4027 18.9532 32.3736C18.8777 32.3591 18.8098 32.3758 18.7494 32.4238C18.4883 32.6302 18.203 32.7153 17.8936 32.679L17.4589 32.4194L18.4438 31.9636C18.5177 31.9301 18.5902 31.933 18.6611 31.9723L19.3585 32.3583Z" fill="white"/>
<path d="M23.7894 32.4325C23.0853 32.5765 22.6121 33.0607 21.9894 32.5307L22.9743 32.0879C23.0483 32.0545 23.1208 32.0574 23.1917 32.0966L23.7894 32.4325Z" fill="white"/>
<path d="M28.2725 32.5219L27.1811 32.8927C27.1274 32.91 27.0701 32.9152 27.0136 32.908L26.8755 32.8884L26.5743 32.6332C27.2264 32.3387 27.6068 31.8698 28.2725 32.5219Z" fill="white"/>
<path d="M33.2196 32.7967C32.7396 32.7458 32.2981 32.7989 31.8951 32.956C31.5373 33.0955 31.329 33.0432 31.1207 32.7466L32.1419 32.2776C32.2068 32.2486 32.2709 32.2515 32.3343 32.2864L33.2196 32.7967Z" fill="white"/>
<path d="M37.4966 32.6855L36.1245 33.1719L35.7555 32.8535L36.7291 32.4151C36.8015 32.3831 36.8732 32.3838 36.9442 32.4172L37.4966 32.6855Z" fill="white"/>
<path d="M40.7366 38.6028C40.8755 39.0608 40.8196 39.4941 40.569 39.9027C40.2687 40.2095 39.8966 40.3556 39.4528 40.3411C31.2566 40.0604 23.0106 39.7929 14.7147 39.5384C13.6294 38.919 13.5539 38.2342 14.4883 37.4839C14.5424 37.4387 14.6105 37.4132 14.6807 37.4119C15.6755 37.393 16.6634 37.3988 17.6445 37.4293C24.9139 37.6533 32.1834 37.8743 39.4528 38.0924C39.9872 38.1084 40.4151 38.2785 40.7366 38.6028Z" fill="#104C5B"/>
<path d="M40.7366 38.6028C41.123 38.7293 41.4558 38.9205 41.7351 39.1764C42.0491 39.7551 42.1985 40.3346 42.1834 40.9147C42.1819 40.929 42.1752 40.9423 42.1645 40.9523C42.1538 40.9623 42.1398 40.9684 42.1249 40.9694C42.1101 40.9704 42.0953 40.9664 42.0832 40.958C42.0711 40.9496 42.0625 40.9374 42.0589 40.9234C41.9819 40.472 42.1585 40.2866 41.8936 39.8024C41.8864 39.7908 41.8753 39.7819 41.8622 39.7773C41.8491 39.7726 41.8347 39.7725 41.8214 39.7768C41.8082 39.7811 41.7969 39.7897 41.7894 39.8011C41.7819 39.8125 41.7787 39.8261 41.7804 39.8395C41.8634 40.3135 41.7849 40.754 41.5449 41.1612C41.5057 41.2295 41.4468 41.276 41.3683 41.3008C40.6377 41.5247 40.1313 41.6337 39.8491 41.6279C35.6634 41.5203 31.4777 41.4229 27.2921 41.3357C26.5109 41.3182 25.7728 41.1459 24.9736 41.1699C23.2664 41.2201 21.4913 41.0041 19.9019 41.0107C18.9962 41.015 18.0906 41.002 17.1849 40.9714C16.6823 40.954 16.2521 40.7337 15.7789 40.581C15.7473 40.5707 15.7182 40.5542 15.6933 40.5325C15.6684 40.5107 15.6482 40.4842 15.634 40.4545C15.5449 40.2684 15.3962 40.1543 15.1879 40.1121C15.12 40.099 15.0906 40.0597 15.0996 39.9943L15.1268 39.75C15.4936 39.9042 15.8906 39.9878 16.3177 40.0008C17.6098 40.0401 18.9011 40.0816 20.1917 40.1252C20.2521 40.1266 20.3117 40.1404 20.3706 40.1666C20.4183 40.1882 20.4708 40.1994 20.5245 40.1993C22.8415 40.2095 25.1577 40.2648 27.4732 40.3651C31.6596 40.5439 35.9298 40.6464 40.0528 40.7642C40.8611 40.7882 41.3909 40.4458 41.2189 39.6148C41.1977 39.5087 41.157 39.5014 41.0966 39.593C40.9396 39.8315 40.7638 39.9347 40.5691 39.9027C40.8196 39.4941 40.8755 39.0608 40.7366 38.6028Z" fill="white"/>
<path d="M41.7351 39.1764C42.5547 39.7449 42.7826 40.5141 42.4189 41.484C42.2559 41.9202 41.9698 42.2735 41.5608 42.544C40.277 43.3946 37.483 42.9606 35.8891 42.7861C35.6068 42.7541 35.3479 42.8144 35.1125 42.9671C35.0842 42.9854 35.0636 43.0128 35.0545 43.0444C35.0453 43.076 35.0482 43.1097 35.0626 43.1394C35.2642 43.5451 35.5019 43.8504 35.4951 44.3084C35.486 45.1198 35.274 45.9341 34.8589 46.7512L21.5434 46.23C20.9819 45.4462 20.7472 44.6727 20.8393 43.9093C21.034 44.0227 21.1977 44.0649 21.3306 44.0358C21.4076 44.1769 21.5826 44.2852 21.8559 44.3608C21.8679 44.544 21.9736 44.6414 22.1728 44.6531C22.2438 44.6574 22.3057 44.6829 22.3585 44.7294C22.7842 45.1045 23.1759 44.9911 23.6332 45.0457C25.7117 45.2957 27.7955 45.3997 29.8845 45.3575C30.8536 45.3379 32.3343 45.423 33.5547 45.2899C33.6302 45.2827 33.6936 45.2529 33.7449 45.2005C34.3487 44.584 34.4242 43.9311 33.9713 43.2419C33.8264 42.9685 33.634 42.7635 33.394 42.6268C33.0936 42.3724 32.7359 42.2379 32.3208 42.2233C28.8294 42.0998 25.3389 41.9667 21.8491 41.8242C21.2091 41.798 20.7487 41.9914 20.4679 42.4044C19.8068 41.8308 18.9238 42.1405 18.1449 42.0685C17.16 41.9791 15.4777 41.641 15.1517 40.5177C15.1336 40.4523 15.0981 40.3971 15.0453 40.352C14.7932 40.1382 14.7064 39.8845 14.7849 39.5908C14.9268 39.5792 15.0408 39.6322 15.1268 39.75L15.0996 39.9943C15.0906 40.0597 15.12 40.099 15.1879 40.1121C15.3962 40.1542 15.5449 40.2684 15.634 40.4545C15.6482 40.4842 15.6684 40.5107 15.6933 40.5324C15.7183 40.5542 15.7474 40.5707 15.7789 40.581C16.2521 40.7337 16.6823 40.954 17.1849 40.9714C18.0906 41.0019 18.9962 41.015 19.9019 41.0107C21.4913 41.0041 23.2664 41.2201 24.9736 41.1699C25.7728 41.1459 26.5109 41.3182 27.2921 41.3356C31.4777 41.4229 35.6634 41.5203 39.8491 41.6279C40.1313 41.6337 40.6377 41.5247 41.3683 41.3008C41.4468 41.276 41.5057 41.2295 41.5449 41.1612C41.7849 40.754 41.8634 40.3135 41.7804 39.8394C41.7787 39.826 41.7819 39.8125 41.7894 39.8011C41.7969 39.7897 41.8082 39.7811 41.8214 39.7768C41.8347 39.7724 41.8491 39.7726 41.8622 39.7773C41.8753 39.7819 41.8864 39.7908 41.8936 39.8024C42.1585 40.2866 41.9819 40.4719 42.0589 40.9234C42.0625 40.9373 42.0711 40.9496 42.0832 40.958C42.0953 40.9664 42.1101 40.9704 42.1249 40.9694C42.1398 40.9683 42.1538 40.9623 42.1645 40.9523C42.1752 40.9423 42.1819 40.929 42.1834 40.9147C42.1985 40.3345 42.0491 39.7551 41.7351 39.1764Z" fill="#B6A15E"/>
<path d="M14.7147 39.5384C23.0106 39.7929 31.2566 40.0604 39.4528 40.3411C39.8966 40.3556 40.2687 40.2095 40.5691 39.9027C40.7638 39.9347 40.9396 39.8314 41.0966 39.5929C41.157 39.5013 41.1977 39.5086 41.2189 39.6148C41.3909 40.4457 40.8611 40.7882 40.0528 40.7642C35.9298 40.6464 31.6596 40.5439 27.4732 40.365C25.1577 40.2647 22.8415 40.2095 20.5245 40.1993C20.4708 40.1993 20.4183 40.1881 20.3706 40.1666C20.3117 40.1404 20.2521 40.1266 20.1917 40.1251C18.9011 40.0815 17.6098 40.0401 16.3177 40.0008C15.8906 39.9877 15.4936 39.9041 15.1268 39.75C15.0408 39.6322 14.9268 39.5791 14.7849 39.5908C14.7608 39.5733 14.7374 39.5559 14.7147 39.5384Z" fill="white"/>
<path d="M33.394 42.6268C33.8264 44.2408 32.8347 44.4633 31.4649 44.4109C28.0943 44.2873 24.7162 44.1623 21.3306 44.0358C21.1977 44.0649 21.034 44.0227 20.8392 43.9093C20.3125 43.5007 20.1887 42.999 20.4679 42.4043C20.7487 41.9914 21.2091 41.798 21.8491 41.8242C25.3389 41.9667 28.8294 42.0997 32.3208 42.2233C32.7359 42.2379 33.0936 42.3724 33.394 42.6268Z" fill="#104C5B"/>
<path d="M33.394 42.6268C33.634 42.7635 33.8264 42.9685 33.9713 43.2419C33.8717 43.6999 34.0913 44.2604 33.6725 44.7163C33.6241 44.7701 33.563 44.7984 33.4891 44.8014C31.474 44.8973 29.3185 44.6618 27.4958 44.6465C25.6045 44.6305 23.7245 44.5353 21.8558 44.3608C21.5826 44.2852 21.4075 44.1768 21.3306 44.0358C24.7162 44.1623 28.0943 44.2874 31.4649 44.4109C32.8347 44.4633 33.8264 44.2408 33.394 42.6268Z" fill="white"/>
<path d="M53.9389 43.1176L54.3781 43.2528C54.446 43.2746 54.5041 43.3109 54.5524 43.3618C54.8951 43.721 55.2558 43.878 55.6347 43.8329C55.2453 45.9355 54.2075 47.6854 52.5215 49.0828C51.8083 48.7818 51.3079 48.459 50.5766 48.2453C52.2838 46.8755 53.4045 45.1663 53.9389 43.1176Z" fill="#B6A15E"/>
<path d="M33.9713 43.2419C34.4241 43.9311 34.3487 44.584 33.7449 45.2005C33.6936 45.2528 33.6302 45.2826 33.5547 45.2899C32.3343 45.4229 30.8536 45.3379 29.8845 45.3575C27.7955 45.3997 25.7117 45.2957 23.6332 45.0456C23.1758 44.9911 22.7841 45.1045 22.3585 44.7294C22.3056 44.6828 22.2438 44.6574 22.1728 44.653C21.9736 44.6414 21.8679 44.544 21.8558 44.3608C23.7245 44.5353 25.6045 44.6305 27.4958 44.6465C29.3185 44.6618 31.4739 44.8973 33.489 44.8013C33.563 44.7984 33.6241 44.7701 33.6724 44.7163C34.0913 44.2604 33.8717 43.6999 33.9713 43.2419Z" fill="white"/>
<path d="M50.5766 48.2452C51.3079 48.459 51.8083 48.7818 52.5215 49.0828C50.3841 50.8124 48.0475 51.3315 45.3464 51.1526C44.2053 51.077 43.5668 51.037 43.4309 51.0326C33.2196 50.6357 23.0128 50.1275 12.8015 49.7458C11.2649 49.6891 9.78865 49.3481 8.3728 48.7229C19.203 49.1969 30.0302 49.6535 40.8543 50.0926C45.12 50.2649 47.5336 50.5048 50.5766 48.2452Z" fill="#B6A15E"/>
</svg>
