<svg width="24" height="24" viewBox="0 0 24 24" fill="none" xmlns="http://www.w3.org/2000/svg">
<path d="M6.375 15.5625C6.375 16.598 5.53552 17.4375 4.5 17.4375C3.46448 17.4375 2.625 16.598 2.625 15.5625V12.1875C2.625 11.152 3.46448 10.3125 4.5 10.3125C5.53552 10.3125 6.375 11.152 6.375 12.1875V15.5625ZM21.375 15.5625C21.375 16.598 20.5355 17.4375 19.5 17.4375C18.4645 17.4375 17.625 16.598 17.625 15.5625V12.1875C17.625 11.152 18.4645 10.3125 19.5 10.3125C20.5355 10.3125 21.375 11.152 21.375 12.1875V15.5625Z" stroke="#B6A15E" stroke-width="1.875" stroke-miterlimit="10" stroke-linecap="round" stroke-linejoin="round"/>
<path d="M2.625 12.1875V10.3125C2.625 5.13483 6.82233 0.9375 12 0.9375C17.1777 0.9375 21.375 5.13483 21.375 10.3125V12.1875M21.375 15.5625V17.4375C21.375 19.5086 19.6961 21.1875 17.625 21.1875H13.875" stroke="#B6A15E" stroke-width="1.875" stroke-miterlimit="10" stroke-linecap="round" stroke-linejoin="round"/>
<path d="M12 23.0625C13.0355 23.0625 13.875 22.223 13.875 21.1875C13.875 20.152 13.0355 19.3125 12 19.3125C10.9645 19.3125 10.125 20.152 10.125 21.1875C10.125 22.223 10.9645 23.0625 12 23.0625Z" stroke="#B6A15E" stroke-width="1.875" stroke-miterlimit="10" stroke-linecap="round" stroke-linejoin="round"/>
</svg>
