<svg width="20" height="20" viewBox="0 0 20 20" fill="none" xmlns="http://www.w3.org/2000/svg">
<g clip-path="url(#clip0_95_464)">
<path d="M13.75 2.5C16.2817 2.5 18.3333 4.58333 18.3333 7.5C18.3333 13.3333 12.0833 16.6667 9.99999 17.9167C7.91666 16.6667 1.66666 13.3333 1.66666 7.5C1.66666 4.58333 3.74999 2.5 6.24999 2.5C7.79999 2.5 9.16666 3.33333 9.99999 4.16667C10.8333 3.33333 12.2 2.5 13.75 2.5ZM10.7783 15.5033C11.5125 15.04 12.175 14.5792 12.795 14.0858C15.2792 12.1108 16.6667 9.9525 16.6667 7.5C16.6667 5.53333 15.3858 4.16667 13.75 4.16667C12.8533 4.16667 11.8833 4.64167 11.1783 5.345L9.99999 6.52333L8.82166 5.345C8.11666 4.64167 7.14666 4.16667 6.24999 4.16667C4.63332 4.16667 3.33332 5.54667 3.33332 7.5C3.33332 9.95333 4.72166 12.1108 7.20416 14.0858C7.82499 14.5792 8.48749 15.04 9.22166 15.5025C9.47082 15.66 9.71749 15.8108 9.99999 15.9792C10.2825 15.8108 10.5292 15.66 10.7783 15.5033Z" fill="#104C5B"/>
</g>
<defs>
<clipPath id="clip0_95_464">
<rect width="20" height="20" fill="white"/>
</clipPath>
</defs>
</svg>
