<svg width="16" height="16" viewBox="0 0 16 16" fill="none" xmlns="http://www.w3.org/2000/svg">
<g clip-path="url(#clip0_95_471)">
<mask id="mask0_95_471" style="mask-type:luminance" maskUnits="userSpaceOnUse" x="0" y="0" width="16" height="16">
<path d="M0 0H16V16H0V0Z" fill="white"/>
</mask>
<g mask="url(#mask0_95_471)">
<path d="M8 13.3332L7.42667 12.7598C7.23984 12.5732 7.09187 12.3513 6.99132 12.1071C6.89078 11.8629 6.83965 11.6012 6.84089 11.3371C6.84213 11.073 6.89571 10.8117 6.99855 10.5685C7.10138 10.3252 7.25143 10.1047 7.44 9.91984L8 9.37317C7.77865 9.34792 7.55611 9.33457 7.33333 9.33317C5.55333 9.33317 2 10.2265 2 11.9998V13.3332H8ZM7.33333 7.99984C8.80667 7.99984 10 6.8065 10 5.33317C10 3.85984 8.80667 2.6665 7.33333 2.6665C5.86 2.6665 4.66667 3.85984 4.66667 5.33317C4.66667 6.8065 5.86 7.99984 7.33333 7.99984ZM10.7867 13.1865C10.5267 13.4465 10.1 13.4465 9.84 13.1865L8.46 11.7932C8.33827 11.6697 8.27002 11.5032 8.27002 11.3298C8.27002 11.1564 8.33827 10.99 8.46 10.8665L8.46667 10.8598C8.52768 10.7981 8.60035 10.749 8.68046 10.7156C8.76056 10.6821 8.84652 10.6649 8.93333 10.6649C9.02015 10.6649 9.1061 10.6821 9.18621 10.7156C9.26632 10.749 9.33899 10.7981 9.4 10.8598L10.3133 11.7732L13.2667 8.79984C13.3283 8.73803 13.4016 8.689 13.4823 8.65555C13.5629 8.62209 13.6494 8.60487 13.7367 8.60487C13.824 8.60487 13.9104 8.62209 13.9911 8.65555C14.0717 8.689 14.145 8.73803 14.2067 8.79984L14.2133 8.8065C14.3351 8.93 14.4033 9.09643 14.4033 9.26984C14.4033 9.44324 14.3351 9.60968 14.2133 9.73317L10.7867 13.1865Z" fill="#B6A15E"/>
</g>
</g>
<defs>
<clipPath id="clip0_95_471">
<rect width="16" height="16" fill="white"/>
</clipPath>
</defs>
</svg>
