<svg width="32" height="26" viewBox="0 0 32 26" fill="none" xmlns="http://www.w3.org/2000/svg">
<path d="M21.0099 18.3321L15.6759 12.998L10.3418 18.3321" stroke="#DFDFDF" stroke-width="2" stroke-linecap="round" stroke-linejoin="round"/>
<path d="M15.6758 12.998V24.9997" stroke="#DFDFDF" stroke-width="2" stroke-linecap="round" stroke-linejoin="round"/>
<path d="M26.864 21.5195C28.1646 20.8105 29.1921 19.6885 29.7842 18.3306C30.3763 16.9727 30.4994 15.4563 30.134 14.0208C29.7686 12.5852 28.9356 11.3121 27.7663 10.4026C26.5971 9.49306 25.1582 8.99879 23.6769 8.99782H21.9966C21.593 7.43659 20.8407 5.98718 19.7963 4.75856C18.7518 3.52994 17.4425 2.55407 15.9666 1.90432C14.4908 1.25458 12.8868 0.947861 11.2753 1.00723C9.66387 1.06661 8.08683 1.49052 6.66278 2.24711C5.23874 3.0037 4.00473 4.07328 3.05355 5.37543C2.10237 6.67758 1.45876 8.17842 1.1711 9.76511C0.883452 11.3518 0.959243 12.9831 1.39278 14.5363C1.82632 16.0894 2.60632 17.5241 3.67414 18.7325" stroke="#DFDFDF" stroke-width="2" stroke-linecap="round" stroke-linejoin="round"/>
<path d="M21.0099 18.3321L15.6759 12.998L10.3418 18.3321" stroke="#DFDFDF" stroke-width="2" stroke-linecap="round" stroke-linejoin="round"/>
</svg>
