<svg width="24" height="24" viewBox="0 0 24 24" fill="none" xmlns="http://www.w3.org/2000/svg">
<g filter="url(#filter0_b_243_1683)">
<rect width="24" height="24" rx="2" fill="white" fill-opacity="0.3"/>
<rect x="0.25" y="0.25" width="23.5" height="23.5" rx="1.75" stroke="#B6A15E" stroke-width="0.5"/>
</g>
<g clip-path="url(#clip0_243_1683)">
<path d="M15 6C17.0253 6 18.6666 7.66667 18.6666 10C18.6666 14.6667 13.6666 17.3333 12 18.3333C10.3333 17.3333 5.33331 14.6667 5.33331 10C5.33331 7.66667 6.99998 6 8.99998 6C10.24 6 11.3333 6.66667 12 7.33333C12.6666 6.66667 13.76 6 15 6ZM12.6226 16.4027C13.21 16.032 13.74 15.6633 14.236 15.2687C16.2233 13.6887 17.3333 11.962 17.3333 10C17.3333 8.42667 16.3086 7.33333 15 7.33333C14.2826 7.33333 13.5066 7.71333 12.9426 8.276L12 9.21867L11.0573 8.276C10.4933 7.71333 9.71731 7.33333 8.99998 7.33333C7.70665 7.33333 6.66665 8.43733 6.66665 10C6.66665 11.9627 7.77731 13.6887 9.76331 15.2687C10.26 15.6633 10.79 16.032 11.3773 16.402C11.5766 16.528 11.774 16.6487 12 16.7833C12.226 16.6487 12.4233 16.528 12.6226 16.4027Z" fill="#B6A15E"/>
</g>
<defs>
<filter id="filter0_b_243_1683" x="-15" y="-15" width="54" height="54" filterUnits="userSpaceOnUse" color-interpolation-filters="sRGB">
<feFlood flood-opacity="0" result="BackgroundImageFix"/>
<feGaussianBlur in="BackgroundImageFix" stdDeviation="7.5"/>
<feComposite in2="SourceAlpha" operator="in" result="effect1_backgroundBlur_243_1683"/>
<feBlend mode="normal" in="SourceGraphic" in2="effect1_backgroundBlur_243_1683" result="shape"/>
</filter>
<clipPath id="clip0_243_1683">
<rect width="16" height="16" fill="white" transform="translate(4 4)"/>
</clipPath>
</defs>
</svg>
