<svg width="24" height="24" viewBox="0 0 24 24" fill="none" xmlns="http://www.w3.org/2000/svg">
<g clip-path="url(#clip0_243_1771)">
<path d="M12 24C18.6274 24 24 18.6274 24 12C24 5.37258 18.6274 0 12 0C5.37258 0 0 5.37258 0 12C0 18.6274 5.37258 24 12 24Z" fill="#29A71A"/>
<path d="M17.2909 6.70914C16.0424 5.44818 14.3844 4.67488 12.616 4.52872C10.8475 4.38255 9.08506 4.87315 7.64647 5.91202C6.20789 6.95088 5.1879 8.46963 4.77048 10.1943C4.35305 11.919 4.56568 13.7361 5.37001 15.3178L4.58046 19.151C4.57227 19.1891 4.57204 19.2285 4.57978 19.2668C4.58752 19.305 4.60307 19.3413 4.62546 19.3732C4.65826 19.4217 4.70507 19.4591 4.75965 19.4803C4.81423 19.5015 4.87398 19.5055 4.93091 19.4919L8.68773 18.6014C10.265 19.3854 12.0692 19.5843 13.7794 19.1629C15.4896 18.7414 16.9948 17.7269 18.0272 16.2998C19.0596 14.8727 19.5522 13.1257 19.4174 11.3695C19.2826 9.6133 18.529 7.96191 17.2909 6.70914ZM16.1196 16.0582C15.2557 16.9196 14.1434 17.4883 12.9392 17.684C11.7351 17.8797 10.4999 17.6926 9.40773 17.1491L8.8841 16.89L6.58091 17.4355L6.58773 17.4069L7.06501 15.0887L6.80864 14.5828C6.25059 13.4868 6.05373 12.2423 6.24626 11.0276C6.43879 9.81284 7.01084 8.69021 7.88046 7.8205C8.97315 6.72815 10.4549 6.11451 12 6.11451C13.5451 6.11451 15.0269 6.72815 16.1196 7.8205C16.1289 7.83118 16.1389 7.8412 16.1496 7.8505C17.2287 8.94567 17.8311 10.423 17.8255 11.9605C17.8199 13.498 17.2067 14.971 16.1196 16.0582Z" fill="white"/>
<path d="M15.915 14.3577C15.6328 14.8022 15.1869 15.3463 14.6264 15.4813C13.6446 15.7186 12.1378 15.4895 10.2628 13.7413L10.2396 13.7209C8.59094 12.1923 8.16276 10.92 8.26639 9.91089C8.32367 9.33816 8.80094 8.81998 9.20321 8.48179C9.26681 8.42752 9.34223 8.38887 9.42343 8.36895C9.50464 8.34903 9.58938 8.34838 9.67088 8.36707C9.75237 8.38575 9.82837 8.42325 9.89278 8.47656C9.9572 8.52986 10.0082 8.5975 10.0418 8.67407L10.6487 10.0377C10.6881 10.1261 10.7027 10.2236 10.6909 10.3197C10.6792 10.4158 10.6415 10.5069 10.5818 10.5832L10.275 10.9813C10.2092 11.0636 10.1695 11.1636 10.161 11.2686C10.1525 11.3736 10.1756 11.4787 10.2273 11.5704C10.3991 11.8718 10.8109 12.315 11.2678 12.7254C11.7805 13.1891 12.3491 13.6132 12.7091 13.7577C12.8055 13.7971 12.9114 13.8067 13.0132 13.7853C13.115 13.7639 13.2081 13.7125 13.2805 13.6377L13.6364 13.2791C13.7051 13.2113 13.7905 13.1631 13.8839 13.1391C13.9773 13.1151 14.0754 13.1164 14.1682 13.1427L15.6096 13.5518C15.6891 13.5762 15.762 13.6184 15.8226 13.6753C15.8833 13.7322 15.9302 13.8022 15.9597 13.8799C15.9891 13.9577 16.0004 14.0412 15.9927 14.124C15.985 14.2068 15.9584 14.2867 15.915 14.3577Z" fill="white"/>
</g>
<defs>
<clipPath id="clip0_243_1771">
<rect width="24" height="24" fill="white"/>
</clipPath>
</defs>
</svg>
