<svg width="18" height="18" viewBox="0 0 18 18" fill="none" xmlns="http://www.w3.org/2000/svg">
<path fill-rule="evenodd" clip-rule="evenodd" d="M14.7256 3.40126C13.2489 1.92282 11.2851 1.10828 9.19271 1.10742C4.88154 1.10742 1.3727 4.61598 1.37102 8.92848C1.37041 10.3071 1.73058 11.6526 2.41508 12.8388L1.30542 16.8919L5.4518 15.8042C6.59423 16.4273 7.88052 16.7558 9.1896 16.7562H9.19277C13.5035 16.7562 17.0126 13.2473 17.0144 8.93474C17.0152 6.84477 16.2024 4.87963 14.7256 3.40126ZM9.19274 15.4353H9.19011C8.02361 15.4348 6.87944 15.1214 5.88129 14.5291L5.64392 14.3882L3.1834 15.0336L3.84018 12.6347L3.68559 12.3887C3.03484 11.3536 2.69115 10.1573 2.69165 8.92893C2.69305 5.34455 5.60947 2.42844 9.19538 2.42844C10.9318 2.42898 12.5641 3.10611 13.7915 4.33493C15.0189 5.56375 15.6945 7.19713 15.6938 8.9342C15.6923 12.5189 12.776 15.4353 9.19274 15.4353Z" fill="#29A71A"/>
<path fill-rule="evenodd" clip-rule="evenodd" d="M12.7587 10.5663C12.5633 10.4684 11.6024 9.99571 11.4233 9.93044C11.2441 9.86522 11.1138 9.83261 10.9836 10.0283C10.8533 10.2239 10.4787 10.6641 10.3647 10.7946C10.2508 10.9249 10.1367 10.9414 9.94132 10.8434C9.74589 10.7456 9.11617 10.5393 8.36969 9.87345C7.78867 9.35519 7.39646 8.71524 7.28242 8.51953C7.16843 8.32392 7.27029 8.21816 7.36814 8.12069C7.45606 8.03309 7.56359 7.89244 7.66132 7.7783C7.75901 7.66422 7.79159 7.58262 7.85674 7.45229C7.92189 7.32183 7.88935 7.20769 7.84045 7.1099C7.79159 7.01208 7.40075 6.05012 7.2379 5.65873C7.07922 5.2777 6.91812 5.32933 6.79813 5.32326C6.68431 5.31758 6.55385 5.31641 6.42358 5.31641C6.29331 5.31641 6.08154 5.36533 5.90244 5.56094C5.7233 5.75662 5.21838 6.22947 5.21838 7.19134C5.21838 8.15333 5.91869 9.08265 6.01642 9.21305C6.11411 9.34354 7.39453 11.3175 9.35502 12.164C9.8213 12.3654 10.1853 12.4857 10.4692 12.5757C10.9373 12.7245 11.3634 12.7035 11.7001 12.6532C12.0756 12.5971 12.8564 12.1804 13.0193 11.7239C13.1822 11.2674 13.1822 10.876 13.1333 10.7945C13.0844 10.713 12.9541 10.6641 12.7587 10.5663Z" fill="#29A71A"/>
</svg>
