<svg xmlns="http://www.w3.org/2000/svg" version="1.1" xmlns:xlink="http://www.w3.org/1999/xlink" width="512" height="512" x="0" y="0" viewBox="0 0 24 24" style="enable-background:new 0 0 512 512" xml:space="preserve" class=""><g><circle cx="11.997" cy="18.5" r="1.5" fill="#FFFFFF" opacity="1" data-original="#000000"></circle><path d="M2.307 9.548a1 1 0 0 0 1.414-.022C5.934 7.242 8.874 5.986 12 5.984c.98 0 1.938.133 2.863.375L13.44 8.492A8.906 8.906 0 0 0 12 8.36c-2.54 0-4.924 1.019-6.716 2.867A1 1 0 0 0 6.72 12.62c1.412-1.457 3.287-2.26 5.28-2.26.062 0 .123.013.185.015l-1.762 2.643c-.798.25-1.534.679-2.14 1.304a1 1 0 0 0 .022 1.414.986.986 0 0 0 .207.148l-3.133 4.7a.75.75 0 1 0 1.248.832l12-18a.75.75 0 1 0-1.248-.832l-1.36 2.04a13.256 13.256 0 0 0-4.02-.64c-3.67.001-7.121 1.475-9.714 4.15a1 1 0 0 0 .022 1.414zM20.997 9.83a1 1 0 0 0 .718-1.696 13.735 13.735 0 0 0-3.436-2.572l-1.117 1.676a11.705 11.705 0 0 1 3.117 2.288.998.998 0 0 0 .718.304zM17.998 12.924a1 1 0 0 0 .718-1.696 9.461 9.461 0 0 0-2.866-2.023l-1.13 1.697c.945.382 1.819.954 2.56 1.718a.998.998 0 0 0 .718.304zM14.999 16.018a1 1 0 0 0 .718-1.696 5.147 5.147 0 0 0-2.358-1.38l-1.228 1.843c.79.03 1.571.332 2.15.93a.998.998 0 0 0 .718.303z" fill="#FFFFFF" opacity="1" data-original="#000000"></path></g></svg>